<!-- Generated by IcoMoon.io -->
<svg version="1.1" xmlns="http://www.w3.org/2000/svg" width="32" height="32" viewBox="0 0 32 32">
<path d="M17.44 19.712l2.939-2.939c0.812-0.812 1.013-2.052 0.5-3.078l-0.166-0.333c-0.513-1.027-0.312-2.267 0.5-3.078l3.644-3.644c0.26-0.26 0.682-0.26 0.943 0 0.051 0.051 0.093 0.109 0.125 0.173l1.472 2.944c1.126 2.252 0.685 4.972-1.096 6.753l-7.998 7.998c-1.938 1.938-4.805 2.615-7.405 1.748l-3.219-1.073c-0.349-0.116-0.538-0.494-0.422-0.843 0.033-0.098 0.088-0.187 0.161-0.261l3.535-3.535c0.812-0.812 2.052-1.013 3.078-0.5l0.333 0.166c1.027 0.513 2.267 0.312 3.078-0.5zM18.864 8.010l-0.255 2.654c-1.971-0.19-3.929 0.495-5.356 1.922-1.422 1.422-2.107 3.372-1.924 5.338l-2.655 0.248c-0.256-2.747 0.703-5.481 2.693-7.471 1.996-1.996 4.742-2.956 7.497-2.691zM19.331 2.696l-0.247 2.655c-3.535-0.328-7.044 0.904-9.603 3.463-2.555 2.555-3.788 6.058-3.464 9.589l-2.656 0.244c-0.395-4.311 1.113-8.596 4.234-11.718 3.126-3.126 7.419-4.634 11.735-4.233z"></path>
</svg>
