<!-- Generated by IcoMoon.io -->
<svg version="1.1" xmlns="http://www.w3.org/2000/svg" width="32" height="32" viewBox="0 0 32 32">
<path d="M24 10.667h-2.667c-0.736 0-1.333-0.597-1.333-1.333s0.597-1.333 1.333-1.333h2.667v-2.667c0-0.736 0.597-1.333 1.333-1.333s1.333 0.597 1.333 1.333v2.667h2.667c0.736 0 1.333 0.597 1.333 1.333s-0.597 1.333-1.333 1.333h-2.667v2.667c0 0.736-0.597 1.333-1.333 1.333s-1.333-0.597-1.333-1.333v-2.667zM12 14.667c-2.946 0-5.333-2.388-5.333-5.333s2.388-5.333 5.333-5.333c2.946 0 5.333 2.388 5.333 5.333s-2.388 5.333-5.333 5.333zM0.001 26.932c0.517-6.364 5.682-9.599 11.977-9.599 6.384 0 11.629 3.058 12.019 9.6 0.016 0.261 0 1.067-1.002 1.067-4.941 0-12.283 0-22.026 0-0.334 0-0.997-0.721-0.969-1.068z"></path>
</svg>
