<!-- Generated by IcoMoon.io -->
<svg version="1.1" xmlns="http://www.w3.org/2000/svg" width="32" height="32" viewBox="0 0 32 32">
<path d="M22.667 2.667h2.667c2.209 0 4 1.791 4 4v18.667c0 2.209-1.791 4-4 4h-2.667v-26.667zM5.333 2.667h16c2.209 0 4 1.791 4 4v18.667c0 2.209-1.791 4-4 4h-16c-0.736 0-1.333-0.597-1.333-1.333v-24c0-0.736 0.597-1.333 1.333-1.333zM14.824 18.279c-0.594 0.593-1.5 0.741-2.251 0.365s-1.657-0.228-2.251 0.365l-2.015 2.015c-0.073 0.073-0.128 0.162-0.161 0.261-0.116 0.349 0.072 0.727 0.422 0.843l1.805 0.602c1.733 0.578 3.645 0.127 4.937-1.165l5.332-5.332c1.187-1.187 1.481-3 0.731-4.502l-0.843-1.687c-0.032-0.064-0.074-0.123-0.125-0.173-0.26-0.26-0.682-0.26-0.943 0l-2.123 2.123c-0.593 0.594-0.741 1.5-0.365 2.251s0.228 1.657-0.365 2.251l-1.784 1.784z"></path>
</svg>
