<svg width="7" height="7" viewBox="0 0 7 7" fill="none" xmlns="http://www.w3.org/2000/svg">
<g clip-path="url(#clip0_201_13879)">
<path d="M5.27566 1.94336C4.97022 1.94336 4.72032 2.19326 4.72032 2.4987V3.05404C4.72032 3.35948 4.97022 3.60938 5.27566 3.60938H5.831V4.16472H4.72032V4.72007H5.831C6.13644 4.72007 6.38634 4.47016 6.38634 4.16472V3.60938C6.38634 3.30395 6.13644 3.05404 5.831 3.05404H5.27566V2.4987H6.38634V1.94336H5.27566ZM2.49895 1.94336V4.72007H3.60964C3.91507 4.72007 4.16498 4.47016 4.16498 4.16472V2.4987C4.16498 2.19326 3.91507 1.94336 3.60964 1.94336H2.49895ZM3.05429 2.4987H3.60964V4.16472H3.05429V2.4987ZM0.832929 1.94336C0.527491 1.94336 0.277588 2.19326 0.277588 2.4987V4.72007H0.832929V3.60938H1.38827V4.72007H1.94361V2.4987C1.94361 2.19326 1.69371 1.94336 1.38827 1.94336H0.832929ZM0.832929 2.4987H1.38827V3.05404H0.832929V2.4987Z" fill="black"/>
</g>
<defs>
<clipPath id="clip0_201_13879">
<rect width="6.6641" height="6.6641" fill="white"/>
</clipPath>
</defs>
</svg>
