<!-- Generated by IcoMoon.io -->
<svg version="1.1" xmlns="http://www.w3.org/2000/svg" width="32" height="32" viewBox="0 0 32 32">
<path d="M13.543 20.947c0.766 0.215 1.573 0.33 2.407 0.33s1.641-0.115 2.407-0.33l0.68 1.838c0.024 0.064 0.036 0.132 0.036 0.2 0 0.314-0.252 0.569-0.562 0.569l-1.437-0.036c0.075 1.584 0.651 2.494 2.148 2.999 0.589 0.199 0.907 0.844 0.711 1.44s-0.833 0.919-1.422 0.72c-2.415-0.815-3.607-2.559-3.683-5.123h-1.44c-0.067 0-0.134-0.012-0.197-0.036-0.291-0.11-0.438-0.439-0.329-0.733l0.681-1.838zM16 21.333c-5.155 0-9.333-4.179-9.333-9.333s4.179-9.333 9.333-9.333c5.155 0 9.333 4.179 9.333 9.333s-4.179 9.333-9.333 9.333zM11.755 11.734c-0.034-0.482-0.452-0.846-0.934-0.812s-0.846 0.452-0.812 0.934c0.155 2.214 1.187 3.962 3.051 5.166 0.406 0.262 0.948 0.146 1.21-0.26s0.146-0.948-0.26-1.21c-1.402-0.906-2.139-2.154-2.255-3.819z"></path>
</svg>
