<!-- Generated by IcoMoon.io -->
<svg version="1.1" xmlns="http://www.w3.org/2000/svg" width="32" height="32" viewBox="0 0 32 32">
<path d="M10.667 28h10.667l-5.333-6.667zM23.204 19.399l-2.057 1.697c-1.26-1.528-3.128-2.429-5.147-2.429-2.012 0-3.874 0.895-5.135 2.414l-2.053-1.702c1.761-2.124 4.373-3.379 7.187-3.379 2.823 0 5.443 1.263 7.204 3.399zM27.291 15.972l-2.052 1.703c-2.267-2.732-5.62-4.342-9.239-4.342-3.614 0-6.962 1.605-9.23 4.331l-2.050-1.706c2.769-3.328 6.865-5.292 11.28-5.292 4.421 0 8.522 1.969 11.291 5.305zM31.054 12.961l-2.149 1.579c-2.998-4.081-7.745-6.539-12.905-6.539-5.231 0-10.036 2.527-13.023 6.703l-2.169-1.551c3.482-4.869 9.091-7.818 15.192-7.818 6.018 0 11.559 2.869 15.054 7.627z"></path>
</svg>
