<!-- Generated by IcoMoon.io -->
<svg version="1.1" xmlns="http://www.w3.org/2000/svg" width="32" height="32" viewBox="0 0 32 32">
<path d="M9.333 20c0.736 0 1.333 0.597 1.333 1.333s-0.597 1.333-1.333 1.333h-1.333c-2.209 0-4-1.791-4-4v-9.333c0-2.209 1.791-4 4-4h16c2.209 0 4 1.791 4 4v9.333c0 2.209-1.791 4-4 4h-1.333c-0.736 0-1.333-0.597-1.333-1.333s0.597-1.333 1.333-1.333h1.333c0.736 0 1.333-0.597 1.333-1.333v-9.333c0-0.736-0.597-1.333-1.333-1.333h-16c-0.736 0-1.333 0.597-1.333 1.333v9.333c0 0.736 0.597 1.333 1.333 1.333h1.333zM10.667 26.667h10.667l-5.333-6.667z"></path>
</svg>
