<!-- Generated by IcoMoon.io -->
<svg version="1.1" xmlns="http://www.w3.org/2000/svg" width="32" height="32" viewBox="0 0 32 32">
<path d="M9.524 25.81c0.704 0.539 1.477 0.992 2.304 1.343l-1.305 2.261c-0.368 0.638-1.184 0.856-1.821 0.488s-0.856-1.184-0.488-1.821l1.311-2.271zM20.182 27.149c0.826-0.352 1.599-0.806 2.302-1.346l1.291 2.237c0.368 0.638 0.15 1.453-0.488 1.821s-1.453 0.15-1.821-0.488l-1.284-2.225zM16 28c-5.891 0-10.667-4.776-10.667-10.667s4.776-10.667 10.667-10.667c5.891 0 10.667 4.776 10.667 10.667s-4.776 10.667-10.667 10.667zM25.425 4.339l2.332 2.332c0.781 0.781 0.781 2.047 0 2.828s-2.047 0.781-2.828 0l-2.332-2.332c-0.781-0.781-0.781-2.047 0-2.828s2.047-0.781 2.828 0zM7.065 3.843c0.781-0.781 2.047-0.781 2.828 0s0.781 2.047 0 2.828l-2.828 2.828c-0.781 0.781-2.047 0.781-2.828 0s-0.781-2.047 0-2.828l2.828-2.828zM15.951 10h0.113c0.343 0 0.629 0.26 0.663 0.6l0.607 6.066 4.331 2.475c0.208 0.119 0.336 0.34 0.336 0.579v0.28c0 0.281-0.228 0.509-0.509 0.509-0.045 0-0.090-0.006-0.134-0.018l-6.159-1.68c-0.309-0.084-0.514-0.375-0.489-0.694l0.577-7.502c0.027-0.347 0.316-0.616 0.665-0.616z"></path>
</svg>
