<!-- Generated by IcoMoon.io -->
<svg version="1.1" xmlns="http://www.w3.org/2000/svg" width="32" height="32" viewBox="0 0 32 32">
<path d="M12.824 6.667l-1.176 2.667h-7.647c-0.736 0-1.333-0.597-1.333-1.333s0.597-1.333 1.333-1.333h8.824zM19.176 6.667h8.824c0.736 0 1.333 0.597 1.333 1.333s-0.597 1.333-1.333 1.333h-7.647l-1.176-2.667zM8.118 17.333l-1.176 2.667h-2.941c-0.736 0-1.333-0.597-1.333-1.333s0.597-1.333 1.333-1.333h4.118zM23.882 17.333h4.118c0.736 0 1.333 0.597 1.333 1.333s-0.597 1.333-1.333 1.333h-2.941l-1.176-2.667zM10.471 12l-1.176 2.667h-5.294c-0.736 0-1.333-0.597-1.333-1.333s0.597-1.333 1.333-1.333h6.471zM21.529 12h6.471c0.736 0 1.333 0.597 1.333 1.333s-0.597 1.333-1.333 1.333h-5.294l-1.176-2.667zM5.765 22.667l-1.176 2.667h-0.588c-0.736 0-1.333-0.597-1.333-1.333s0.597-1.333 1.333-1.333h1.765zM26.235 22.667h1.765c0.736 0 1.333 0.597 1.333 1.333s-0.597 1.333-1.333 1.333h-0.588l-1.176-2.667zM14.725 7.008h2.616l7.325 18.325h-3.333l-1.712-5.221h-7.368l-2.253 5.221h-3.333l8.059-18.325zM18.565 17.52l-2.616-6.912-2.664 6.912h5.28z"></path>
</svg>
