<!-- Generated by IcoMoon.io -->
<svg version="1.1" xmlns="http://www.w3.org/2000/svg" width="32" height="32" viewBox="0 0 32 32">
<path d="M25.038 16.667c-2.864 2.864-7.507 2.864-10.371 0s-2.864-7.507 0-10.371c2.864-2.864 7.507-2.864 10.371 0s2.864 7.507 0 10.371zM21.738 13.367c1.041-1.041 1.041-2.73 0-3.771s-2.73-1.041-3.771 0c-1.041 1.041-1.041 2.73 0 3.771s2.73 1.041 3.771 0zM20.795 12.424c0.521-0.521 0.521-1.365 0-1.886s-1.365-0.521-1.886 0c-0.521 0.521-0.521 1.365 0 1.886s1.365 0.521 1.886 0zM4.767 21.852l9.428-9.428c1.562-1.562 4.095-1.562 5.657 0s1.562 4.095 0 5.657l-9.428 9.428c-1.562 1.562-4.095 1.562-5.657 0s-1.562-4.095 0-5.657zM27.253 17.939c-4.421 3.11-10.108 3.091-13.529-0.33s-3.44-9.109-0.33-13.529l13.859 13.859z"></path>
</svg>
