<!-- Generated by IcoMoon.io -->
<svg version="1.1" xmlns="http://www.w3.org/2000/svg" width="32" height="32" viewBox="0 0 32 32">
<path d="M26.667 10.667h-2.435c-1.473 0-2.667 1.194-2.667 2.667v2.667c0 0.736-0.597 1.333-1.333 1.333h-8.406c-0.736 0-1.333-0.597-1.333-1.333v-2.667c0-1.473-1.194-2.667-2.667-2.667h-2.493v-2.667c0-2.209 1.791-4 4-4h13.333c2.209 0 4 1.791 4 4v2.667zM8.213 28.081l2.667-4.619c0.368-0.638 1.184-0.856 1.821-0.488s0.856 1.184 0.488 1.821l-2.667 4.619c-0.368 0.638-1.184 0.856-1.821 0.488s-0.856-1.184-0.488-1.821zM23.776 28.040c0.368 0.638 0.15 1.453-0.488 1.821s-1.453 0.15-1.821-0.488l-2.667-4.619c-0.368-0.638-0.15-1.453 0.488-1.821s1.453-0.15 1.821 0.488l2.667 4.619zM26.667 13.333v6.667c0 2.209-1.791 4-4 4h-13.333c-2.209 0-4-1.791-4-4v-6.667h2.493v2.667c0 2.209 1.791 4 4 4h8.406c2.209 0 4-1.791 4-4v-2.667h2.435z"></path>
</svg>
