<!-- Generated by IcoMoon.io -->
<svg version="1.1" xmlns="http://www.w3.org/2000/svg" width="32" height="32" viewBox="0 0 32 32">
<path d="M16 4c0.736 0 1.333 0.597 1.333 1.333v16c0 0.736-0.597 1.333-1.333 1.333s-1.333-0.597-1.333-1.333v-16c0-0.736 0.597-1.333 1.333-1.333zM8.943 12.391c-0.521-0.521-1.365-0.521-1.886 0s-0.521 1.365 0 1.886l8 8c0.505 0.505 1.318 0.522 1.844 0.040l8-7.333c0.543-0.498 0.579-1.341 0.082-1.884s-1.341-0.579-1.884-0.082l-7.059 6.471-7.097-7.097zM5.333 25.333h21.333c0.736 0 1.333 0.597 1.333 1.333s-0.597 1.333-1.333 1.333h-21.333c-0.736 0-1.333-0.597-1.333-1.333s0.597-1.333 1.333-1.333z"></path>
</svg>
