<!-- Generated by IcoMoon.io -->
<svg version="1.1" xmlns="http://www.w3.org/2000/svg" width="32" height="32" viewBox="0 0 32 32">
<path d="M10.667 14.667h10.667c0.736 0 1.333 0.597 1.333 1.333s-0.597 1.333-1.333 1.333h-10.667c-0.736 0-1.333-0.597-1.333-1.333s0.597-1.333 1.333-1.333zM20.391 8.943c-0.521-0.521-0.521-1.365 0-1.886s1.365-0.521 1.886 0l8 8c0.505 0.505 0.522 1.318 0.040 1.844l-7.333 8c-0.498 0.543-1.341 0.579-1.884 0.082s-0.579-1.341-0.082-1.884l6.471-7.059-7.097-7.097zM11.609 23.057c0.521 0.521 0.521 1.365 0 1.886s-1.365 0.521-1.886 0l-8-8c-0.505-0.505-0.522-1.318-0.040-1.844l7.333-8c0.498-0.543 1.341-0.58 1.884-0.082s0.579 1.341 0.082 1.884l-6.471 7.059 7.097 7.097z"></path>
</svg>
