<!-- Generated by IcoMoon.io -->
<svg version="1.1" xmlns="http://www.w3.org/2000/svg" width="32" height="32" viewBox="0 0 32 32">
<path d="M23.893 8.827c-0.135-0.326-0.394-0.585-0.72-0.72-0.16-0.068-0.332-0.105-0.507-0.107h-13.333c-0.354 0-0.693 0.14-0.943 0.391s-0.391 0.589-0.391 0.943c0 0.354 0.14 0.693 0.391 0.943s0.589 0.391 0.943 0.391h10.12l-11.067 11.053c-0.125 0.124-0.224 0.271-0.292 0.434s-0.103 0.337-0.103 0.513 0.035 0.35 0.103 0.513c0.068 0.162 0.167 0.31 0.292 0.434 0.124 0.125 0.271 0.224 0.434 0.292s0.337 0.103 0.513 0.103c0.176 0 0.35-0.035 0.513-0.103s0.31-0.167 0.434-0.292l11.053-11.067v10.12c0 0.354 0.141 0.693 0.391 0.943s0.589 0.391 0.943 0.391c0.354 0 0.693-0.141 0.943-0.391s0.391-0.589 0.391-0.943v-13.333c-0.002-0.174-0.038-0.346-0.107-0.507z"></path>
</svg>
