<!-- Generated by IcoMoon.io -->
<svg version="1.1" xmlns="http://www.w3.org/2000/svg" width="32" height="32" viewBox="0 0 32 32">
<path d="M22.667 8c-0.354 0-0.693 0.14-0.943 0.391s-0.391 0.589-0.391 0.943v10.12l-11.053-11.067c-0.251-0.251-0.592-0.392-0.947-0.392s-0.696 0.141-0.947 0.392c-0.251 0.251-0.392 0.592-0.392 0.947s0.141 0.696 0.392 0.947l11.067 11.053h-10.12c-0.354 0-0.693 0.141-0.943 0.391s-0.391 0.589-0.391 0.943c0 0.354 0.14 0.693 0.391 0.943s0.589 0.391 0.943 0.391h13.333c0.174-0.002 0.346-0.038 0.507-0.107 0.326-0.135 0.585-0.394 0.72-0.72 0.068-0.16 0.105-0.332 0.107-0.507v-13.333c0-0.354-0.14-0.693-0.391-0.943s-0.589-0.391-0.943-0.391z"></path>
</svg>
