<!-- Generated by IcoMoon.io -->
<svg version="1.1" xmlns="http://www.w3.org/2000/svg" width="32" height="32" viewBox="0 0 32 32">
<path d="M13.172 16.943l-2.828 2.828c-0.521 0.521-0.521 1.365 0 1.886s1.365 0.521 1.886 0l2.828-2.828 0.943 0.943c1.041 1.041 1.041 2.73 0 3.771l-3.771 3.771c-1.041 1.041-2.73 1.041-3.771 0l-3.771-3.771c-1.041-1.041-1.041-2.73 0-3.771l3.771-3.771c1.041-1.041 2.73-1.041 3.771 0l0.943 0.943zM18.828 15.057l2.828-2.828c0.521-0.521 0.521-1.365 0-1.886s-1.365-0.521-1.886 0l-2.828 2.828-0.943-0.943c-1.041-1.041-1.041-2.73 0-3.771l3.771-3.771c1.041-1.041 2.73-1.041 3.771 0l3.771 3.771c1.041 1.041 1.041 2.73 0 3.771l-3.771 3.771c-1.041 1.041-2.73 1.041-3.771 0l-0.943-0.943zM5.629 5.629c0.521-0.521 1.365-0.521 1.886 0l1.886 1.886c0.521 0.521 0.521 1.365 0 1.886s-1.365 0.521-1.886 0l-1.886-1.886c-0.521-0.521-0.521-1.365 0-1.886zM12.458 2.020c0.736 0 1.333 0.597 1.333 1.333v2.667c0 0.736-0.597 1.333-1.333 1.333s-1.333-0.597-1.333-1.333v-2.667c0-0.736 0.597-1.333 1.333-1.333zM2.248 12.229c0-0.736 0.597-1.333 1.333-1.333h2.667c0.736 0 1.333 0.597 1.333 1.333s-0.597 1.333-1.333 1.333h-2.667c-0.736 0-1.333-0.597-1.333-1.333zM26.209 26.209c0.521-0.521 0.521-1.365 0-1.886l-1.886-1.886c-0.521-0.521-1.365-0.521-1.886 0s-0.521 1.365 0 1.886l1.886 1.886c0.521 0.521 1.365 0.521 1.886 0zM29.819 19.381c0-0.736-0.597-1.333-1.333-1.333h-2.667c-0.736 0-1.333 0.597-1.333 1.333s0.597 1.333 1.333 1.333h2.667c0.736 0 1.333-0.597 1.333-1.333zM19.609 29.59c0.736 0 1.333-0.597 1.333-1.333v-2.667c0-0.736-0.597-1.333-1.333-1.333s-1.333 0.597-1.333 1.333v2.667c0 0.736 0.597 1.333 1.333 1.333z"></path>
</svg>
