<!-- Generated by IcoMoon.io -->
<svg version="1.1" xmlns="http://www.w3.org/2000/svg" width="32" height="32" viewBox="0 0 32 32">
<path d="M14.114 16l-2.828 2.828c-0.521 0.521-0.521 1.365 0 1.886s1.365 0.521 1.886 0l2.828-2.828 0.943 0.943c1.041 1.041 1.041 2.73 0 3.771l-3.771 3.771c-1.041 1.041-2.73 1.041-3.771 0l-3.771-3.771c-1.041-1.041-1.041-2.73 0-3.771l3.771-3.771c1.041-1.041 2.73-1.041 3.771 0l0.943 0.943zM17.886 16l2.828-2.828c0.521-0.521 0.521-1.365 0-1.886s-1.365-0.521-1.886 0l-2.828 2.828-0.943-0.943c-1.041-1.041-1.041-2.73 0-3.771l3.771-3.771c1.041-1.041 2.73-1.041 3.771 0l3.771 3.771c1.041 1.041 1.041 2.73 0 3.771l-3.771 3.771c-1.041 1.041-2.73 1.041-3.771 0l-0.943-0.943z"></path>
</svg>
