<!-- Generated by IcoMoon.io -->
<svg version="1.1" xmlns="http://www.w3.org/2000/svg" width="32" height="32" viewBox="0 0 32 32">
<path d="M20.324 21.105l8.485-8.485 1.886 1.886-8.485 8.485-1.886-1.886zM2.41 22.047l13.199-13.199c0.521-0.521 1.365-0.521 1.886 0l1.886 1.886c0.521 0.521 0.521 1.365 0 1.886l-13.199 13.199c-0.521 0.521-1.365 0.521-1.886 0l-1.886-1.886c-0.521-0.521-0.521-1.365 0-1.886zM21.266 5.077l1.886 1.886c0.521 0.521 0.521 1.365 0 1.886l-0.943 0.943c-0.521 0.521-1.365 0.521-1.886 0l-1.886-1.886c-0.521-0.521-0.521-1.365 0-1.886l0.943-0.943c0.521-0.521 1.365-0.521 1.886 0zM27.866 11.676c-3.457-0.943-5.657-1.886-6.6-2.828s-2.828-2.828-5.657-5.657l-4.714 4.714c2.514 2.514 4.4 4.4 5.657 5.657s2.2 3.457 2.828 6.6l8.485-8.485z"></path>
</svg>
