<!-- Generated by IcoMoon.io -->
<svg version="1.1" xmlns="http://www.w3.org/2000/svg" width="32" height="32" viewBox="0 0 32 32">
<path d="M22.895 24.37l-8.988-7.839c-0.277-0.242-0.306-0.663-0.064-0.941 0.019-0.022 0.040-0.043 0.063-0.063l8.988-7.889c0.277-0.243 0.698-0.215 0.941 0.061 0.107 0.122 0.166 0.278 0.166 0.44v15.728c0 0.368-0.298 0.667-0.667 0.667-0.161 0-0.317-0.058-0.438-0.164zM9.333 8h1.333c0.736 0 1.333 0.597 1.333 1.333v13.333c0 0.736-0.597 1.333-1.333 1.333h-1.333c-0.736 0-1.333-0.597-1.333-1.333v-13.333c0-0.736 0.597-1.333 1.333-1.333z"></path>
</svg>
