<!-- Generated by IcoMoon.io -->
<svg version="1.1" xmlns="http://www.w3.org/2000/svg" width="32" height="32" viewBox="0 0 32 32">
<path d="M16 2.667v0c3.064 0 5.866 1.731 7.236 4.472l4.431 8.861c2.276 4.551 0.431 10.085-4.12 12.361-1.279 0.64-2.69 0.973-4.12 0.973h-6.852c-5.088 0-9.213-4.125-9.213-9.213 0-1.43 0.333-2.841 0.973-4.12l4.431-8.861c1.37-2.741 4.172-4.472 7.236-4.472zM8.583 22l1.5-2c2.017 1.513 3.983 2.25 5.917 2.25s3.899-0.737 5.917-2.25l1.5 2c-2.427 1.82-4.906 2.75-7.417 2.75s-4.989-0.93-7.417-2.75z"></path>
</svg>
