<!-- Generated by IcoMoon.io -->
<svg version="1.1" xmlns="http://www.w3.org/2000/svg" width="32" height="32" viewBox="0 0 32 32">
<path d="M18.667 12v-1.333c0-1.473-1.194-2.667-2.667-2.667s-2.667 1.194-2.667 2.667v1.333h-2.667v-1.333c0-2.946 2.388-5.333 5.333-5.333s5.333 2.388 5.333 5.333v1.333h-2.667zM18.667 12v-1.333c0-1.473-1.194-2.667-2.667-2.667s-2.667 1.194-2.667 2.667v1.333h-2.667v-1.333c0-2.946 2.388-5.333 5.333-5.333s5.333 2.388 5.333 5.333v1.333h-2.667zM9.13 12h13.741c0.652 0 1.208 0.471 1.315 1.114l1.963 11.781c0.242 1.453-0.739 2.827-2.192 3.069-0.145 0.024-0.291 0.036-0.438 0.036h-15.038c-1.473 0-2.667-1.194-2.667-2.667 0-0.147 0.012-0.294 0.036-0.438l1.963-11.781c0.107-0.643 0.663-1.114 1.315-1.114z"></path>
</svg>
