<!-- Generated by IcoMoon.io -->
<svg version="1.1" xmlns="http://www.w3.org/2000/svg" width="32" height="32" viewBox="0 0 32 32">
<path d="M7.924 5.333h16.152c0.706 0 1.29 0.55 1.331 1.255l1.093 18.588c0.086 1.47-1.035 2.732-2.505 2.819-0.052 0.003-0.104 0.005-0.157 0.005h-15.677c-1.473 0-2.667-1.194-2.667-2.667 0-0.052 0.002-0.104 0.005-0.157l1.093-18.588c0.041-0.705 0.625-1.255 1.331-1.255zM9.333 9.333h2.667c0 2.209 1.791 4 4 4s4-1.791 4-4h2.667c0 3.682-2.985 6.667-6.667 6.667s-6.667-2.985-6.667-6.667z"></path>
</svg>
