<!-- Generated by IcoMoon.io -->
<svg version="1.1" xmlns="http://www.w3.org/2000/svg" width="32" height="32" viewBox="0 0 32 32">
<path d="M20 12h-2.667v-5.333h2.667v5.333zM20 20v6.667h-2.667v-6.667h2.667zM6.667 12h-4v-4c0-0.736 0.597-1.333 1.333-1.333h2.667v5.333zM6.667 20v6.667h-2.667c-0.736 0-1.333-0.597-1.333-1.333v-5.333h4zM24 12h-2.667v-5.333h2.667v5.333zM24 20v6.667h-2.667v-6.667h2.667zM29.333 12h-2.667v-5.333h1.333c0.736 0 1.333 0.597 1.333 1.333v4zM29.333 20v5.333c0 0.736-0.597 1.333-1.333 1.333h-1.333v-6.667h2.667zM12 12h-2.667v-5.333h2.667v5.333zM12 20v6.667h-2.667v-6.667h2.667zM1.333 14.667h29.333c0.736 0 1.333 0.597 1.333 1.333s-0.597 1.333-1.333 1.333h-29.333c-0.736 0-1.333-0.597-1.333-1.333s0.597-1.333 1.333-1.333z"></path>
</svg>
