<!-- Generated by IcoMoon.io -->
<svg version="1.1" xmlns="http://www.w3.org/2000/svg" width="32" height="32" viewBox="0 0 32 32">
<path d="M8 13.333c0 0.736-0.597 1.333-1.333 1.333s-1.333-0.597-1.333-1.333v-5.333c0-2.209 1.791-4 4-4s4 1.791 4 4c0 0.736-0.597 1.333-1.333 1.333s-1.333-0.597-1.333-1.333c0-0.736-0.597-1.333-1.333-1.333s-1.333 0.597-1.333 1.333v5.333zM8 26.667h-2.667c0-3.682 2.985-5.333 6.667-5.333h8c3.682 0 6.667 1.651 6.667 5.333h-2.667c0-2.209-1.791-2.667-4-2.667h-8c-2.209 0-4 0.458-4 2.667zM2.667 12h28l-0.674 6.070c-0.375 3.376-3.229 5.93-6.626 5.93h-13.399c-3.397 0-6.251-2.554-6.626-5.93l-0.674-6.070zM25.667 15.333c0 1.907-0.741 3.389-2.267 4.533-0.442 0.331-0.531 0.958-0.2 1.4s0.958 0.531 1.4 0.2c2.030-1.522 3.067-3.596 3.067-6.133 0-0.552-0.448-1-1-1s-1 0.448-1 1z"></path>
</svg>
