<!-- Generated by IcoMoon.io -->
<svg version="1.1" xmlns="http://www.w3.org/2000/svg" width="32" height="32" viewBox="0 0 32 32">
<path d="M5.333 29.333h-2.667c0-3.682 2.985-5.333 6.667-5.333h13.333c3.682 0 6.667 1.651 6.667 5.333h-2.667c0-2.209-1.791-2.667-4-2.667h-13.333c-2.209 0-4 0.458-4 2.667zM2.667 18.667h26.667c0.736 0 1.333 0.597 1.333 1.333v5.333c0 0.736-0.597 1.333-1.333 1.333h-26.667c-0.736 0-1.333-0.597-1.333-1.333v-5.333c0-0.736 0.597-1.333 1.333-1.333zM17.333 17.333h-2.667v-1.333c0-0.736-0.597-1.333-1.333-1.333h-5.333c-0.736 0-1.333 0.597-1.333 1.333v1.333h-1.333c-0.736 0-1.333-0.597-1.333-1.333v-5.333c0-1.473 1.194-2.667 2.667-2.667h18.667c1.473 0 2.667 1.194 2.667 2.667v5.333c0 0.736-0.597 1.333-1.333 1.333h-1.333v-1.333c0-0.736-0.597-1.333-1.333-1.333h-5.333c-0.736 0-1.333 0.597-1.333 1.333v1.333z"></path>
</svg>
