<!-- Generated by IcoMoon.io -->
<svg version="1.1" xmlns="http://www.w3.org/2000/svg" width="32" height="32" viewBox="0 0 32 32">
<path d="M17.125 21.333h-2.249l-0.228 0.852c-0.867 3.234-4.191 5.154-7.425 4.287s-5.154-4.191-4.287-7.425l2.293-8.557c0.867-3.234 4.191-5.154 7.425-4.287 1.403 0.376 2.559 1.215 3.347 2.308 0.788-1.093 1.944-1.932 3.347-2.308 3.234-0.867 6.559 1.053 7.425 4.287l2.293 8.557c0.867 3.234-1.053 6.559-4.287 7.425s-6.559-1.053-7.425-4.287l-0.228-0.852zM23.275 24.14c2.009 0 3.638-1.69 3.638-3.774s-1.629-3.774-3.638-3.774c-2.009 0-3.638 1.69-3.638 3.774s1.629 3.774 3.638 3.774zM8.725 24.14c2.009 0 3.638-1.69 3.638-3.774s-1.629-3.774-3.638-3.774c-2.009 0-3.638 1.69-3.638 3.774s1.629 3.774 3.638 3.774z"></path>
</svg>
