<!-- Generated by IcoMoon.io -->
<svg version="1.1" xmlns="http://www.w3.org/2000/svg" width="32" height="32" viewBox="0 0 32 32">
<path d="M18.247 24.944c2.968-1.186 6.663-1.945 11.086-2.278 0-0.090 0-5.198 0-15.325h-0c0-0.368-0.298-0.667-0.667-0.667-0.006 0-0.011 0-0.017 0-3.772 0.096-7.544 0.982-11.316 2.658 0 0.059 0 5.057 0 14.992h-0c0 0.368 0.299 0.667 0.667 0.667 0.085 0 0.169-0.016 0.247-0.048zM13.753 24.944c-2.968-1.186-6.663-1.945-11.086-2.278 0-0.090 0-5.198 0-15.325h0c0-0.368 0.298-0.667 0.667-0.667 0.006 0 0.011 0 0.017 0 3.772 0.096 7.544 0.982 11.316 2.658 0 0.059 0 5.057 0 14.992h0c0 0.368-0.299 0.667-0.667 0.667-0.085 0-0.169-0.016-0.247-0.048z"></path>
</svg>
