<!-- Generated by IcoMoon.io -->
<svg version="1.1" xmlns="http://www.w3.org/2000/svg" width="32" height="32" viewBox="0 0 32 32">
<path d="M12.947 13.613l3.053-3.067 3.053 3.067c0.124 0.125 0.271 0.224 0.434 0.292s0.337 0.103 0.513 0.103c0.176 0 0.35-0.035 0.513-0.103s0.31-0.167 0.434-0.292c0.125-0.124 0.224-0.271 0.292-0.434s0.103-0.337 0.103-0.513-0.035-0.35-0.103-0.513c-0.068-0.162-0.167-0.31-0.292-0.434l-4-4c-0.124-0.125-0.271-0.224-0.434-0.292s-0.337-0.103-0.513-0.103c-0.176 0-0.35 0.035-0.513 0.103s-0.31 0.167-0.434 0.292l-4 4c-0.251 0.251-0.392 0.592-0.392 0.947s0.141 0.696 0.392 0.947c0.251 0.251 0.592 0.392 0.947 0.392s0.696-0.141 0.947-0.392zM19.053 19.72l-3.053 3.067-3.053-3.067c-0.124-0.124-0.272-0.223-0.434-0.29s-0.337-0.102-0.512-0.102-0.35 0.035-0.512 0.102c-0.162 0.067-0.31 0.166-0.434 0.29s-0.223 0.272-0.29 0.434-0.102 0.337-0.102 0.512c0 0.176 0.035 0.35 0.102 0.512s0.166 0.31 0.29 0.434l4 4c0.124 0.125 0.271 0.224 0.434 0.292s0.337 0.103 0.513 0.103c0.176 0 0.35-0.035 0.513-0.103s0.31-0.167 0.434-0.292l4-4c0.251-0.251 0.392-0.592 0.392-0.947s-0.141-0.696-0.392-0.947c-0.251-0.251-0.592-0.392-0.947-0.392s-0.696 0.141-0.947 0.392z"></path>
</svg>
