<!-- Generated by IcoMoon.io -->
<svg version="1.1" xmlns="http://www.w3.org/2000/svg" width="32" height="32" viewBox="0 0 32 32">
<path d="M8.267 12.978l3.333-4.444c0.252-0.336 0.647-0.533 1.067-0.533h6.667c0.42 0 0.815 0.198 1.067 0.533l3.333 4.444c0.173 0.231 0.267 0.511 0.267 0.8v14.222c0 1.473-1.194 2.667-2.667 2.667h-10.667c-1.473 0-2.667-1.194-2.667-2.667v-14.222c0-0.288 0.094-0.569 0.267-0.8zM12 16c-0.736 0-1.333 0.597-1.333 1.333v9.333c0 0.736 0.597 1.333 1.333 1.333h1.333c0.736 0 1.333-0.597 1.333-1.333v-9.333c0-0.736-0.597-1.333-1.333-1.333h-1.333zM13.333 1.333h5.333c0.736 0 1.333 0.597 1.333 1.333v1.333c0 0.736-0.597 1.333-1.333 1.333h-5.333c-0.736 0-1.333-0.597-1.333-1.333v-1.333c0-0.736 0.597-1.333 1.333-1.333z"></path>
</svg>
