<!-- Generated by IcoMoon.io -->
<svg version="1.1" xmlns="http://www.w3.org/2000/svg" width="32" height="32" viewBox="0 0 32 32">
<path d="M5.333 12.9l9.174 5.296c0.099 0.057 0.202 0.098 0.308 0.124v10.272l-8.827-5.224c-0.406-0.24-0.654-0.676-0.654-1.147v-9.322zM26.667 12.759v9.462c0 0.471-0.249 0.907-0.654 1.147l-8.827 5.224v-10.362c0.021-0.011 0.043-0.022 0.064-0.034l9.418-5.437zM5.622 10.329c0.112-0.142 0.253-0.261 0.418-0.349l9.333-4.971c0.392-0.209 0.862-0.209 1.254 0l9.333 4.971c0.127 0.068 0.24 0.154 0.337 0.255l-10.233 5.908c-0.067 0.039-0.129 0.083-0.186 0.132-0.057-0.049-0.119-0.094-0.186-0.132l-10.071-5.814z"></path>
</svg>
