<!-- Generated by IcoMoon.io -->
<svg version="1.1" xmlns="http://www.w3.org/2000/svg" width="32" height="32" viewBox="0 0 32 32">
<path d="M27.208 8.981c0.482 0.214 0.792 0.691 0.792 1.218v11.682c0 0.484-0.263 0.93-0.686 1.166l-10.667 5.926c-0.403 0.224-0.892 0.224-1.295 0l-10.667-5.926c-0.423-0.235-0.686-0.681-0.686-1.166v-11.682c0-0.527 0.31-1.004 0.792-1.218l10.667-4.741c0.345-0.153 0.738-0.153 1.083 0l10.667 4.741zM19.956 5.633l-9.823 5.457v6.118l2.667 1.333v-5.882l10.207-5.67z"></path>
</svg>
