<!-- Generated by IcoMoon.io -->
<svg version="1.1" xmlns="http://www.w3.org/2000/svg" width="32" height="32" viewBox="0 0 32 32">
<path d="M28 14.218v11.116c0 1.473-1.194 2.667-2.667 2.667h-13.333c-1.473 0-2.667-1.194-2.667-2.667v-11.116c-1.577-0.749-2.667-2.356-2.667-4.218 0-2.577 2.089-4.667 4.667-4.667h14.667c2.577 0 4.667 2.089 4.667 4.667 0 1.862-1.090 3.469-2.667 4.218zM22.667 14.218v11.116c0 1.473-1.194 2.667-2.667 2.667h-13.333c-1.473 0-2.667-1.194-2.667-2.667v-11.116c-1.577-0.749-2.667-2.356-2.667-4.218 0-2.577 2.089-4.667 4.667-4.667h14.667c2.577 0 4.667 2.089 4.667 4.667 0 1.862-1.090 3.469-2.667 4.218z"></path>
</svg>
