<!-- Generated by IcoMoon.io -->
<svg version="1.1" xmlns="http://www.w3.org/2000/svg" width="32" height="32" viewBox="0 0 32 32">
<path d="M14.037 30.037l-2.307-2.307 1.597-3.135-3.52 1.213-3.076-3.076 4.141-7.216-7.216 4.141-1.922-1.922 10.62-7.025c2.768-1.831 6.484-1.174 8.456 1.495 2.078 2.812 2.019 6.666-0.144 9.413l-6.629 8.421zM19.991 8.905l5.357-5.357c1.041-1.041 2.73-1.041 3.771 0s1.041 2.73 0 3.771l-5.366 5.366c-0.238-0.453-0.513-0.892-0.825-1.313-0.797-1.078-1.81-1.907-2.938-2.467z"></path>
</svg>
