<!-- Generated by IcoMoon.io -->
<svg version="1.1" xmlns="http://www.w3.org/2000/svg" width="32" height="32" viewBox="0 0 32 32">
<path d="M21.41 6.821l2.828 2.828-3.3 6.128 6.128-3.3 2.357 2.357c0.26 0.26 0.26 0.682 0 0.943l-7.071 7.071-13.199-13.199 7.071-7.071c0.26-0.26 0.682-0.26 0.943 0l2.357 2.357-0.943 2.828 2.828-0.943zM13.547 21.584l-4.389 6.27c-0.845 1.207-2.507 1.5-3.714 0.655-0.127-0.089-0.247-0.189-0.356-0.299l-1.277-1.277c-1.041-1.041-1.041-2.73 0-3.771 0.115-0.115 0.24-0.219 0.374-0.311l6.296-4.332-4.155-4.155c-0.521-0.521-0.521-1.365 0-1.886l1.886-1.886 13.199 13.199-1.886 1.886c-0.521 0.521-1.365 0.521-1.886 0l-4.092-4.092zM6.325 25.677c0.521 0.521 1.365 0.521 1.886 0s0.521-1.365 0-1.886c-0.521-0.521-1.365-0.521-1.886 0s-0.521 1.365 0 1.886z"></path>
</svg>
