<!-- Generated by IcoMoon.io -->
<svg version="1.1" xmlns="http://www.w3.org/2000/svg" width="32" height="32" viewBox="0 0 32 32">
<path d="M10.667 1.333h10.667c0.736 0 1.333 0.597 1.333 1.333v1.333c0 0.736-0.597 1.333-1.333 1.333h-10.667c-0.736 0-1.333-0.597-1.333-1.333v-1.333c0-0.736 0.597-1.333 1.333-1.333zM12.43 8h7.141c3.682 0 6.667 2.985 6.667 6.667 0 0.139-0.004 0.277-0.013 0.416l-0.734 11.75c-0.088 1.405-1.253 2.5-2.661 2.5h-13.656c-1.408 0-2.574-1.095-2.661-2.5l-0.734-11.751c-0.23-3.675 2.563-6.84 6.238-7.070 0.138-0.009 0.277-0.013 0.416-0.013zM12 12c-1.473 0-2.667 1.194-2.667 2.667v1.333c0 1.473 1.194 2.667 2.667 2.667h8c1.473 0 2.667-1.194 2.667-2.667v-1.333c0-1.473-1.194-2.667-2.667-2.667h-8z"></path>
</svg>
