<!-- Generated by IcoMoon.io -->
<svg version="1.1" xmlns="http://www.w3.org/2000/svg" width="32" height="32" viewBox="0 0 32 32">
<path d="M18 28v-4c0-0.736-0.597-1.333-1.333-1.333h-1.333c-0.736 0-1.333 0.597-1.333 1.333v4h-7.333v-22.667c0-1.473 1.194-2.667 2.667-2.667h13.333c1.473 0 2.667 1.194 2.667 2.667v22.667h-7.333zM12 5.333c-0.736 0-1.333 0.597-1.333 1.333v1.333c0 0.736 0.597 1.333 1.333 1.333h1.333c0.736 0 1.333-0.597 1.333-1.333v-1.333c0-0.736-0.597-1.333-1.333-1.333h-1.333zM18.667 5.333c-0.736 0-1.333 0.597-1.333 1.333v1.333c0 0.736 0.597 1.333 1.333 1.333h1.333c0.736 0 1.333-0.597 1.333-1.333v-1.333c0-0.736-0.597-1.333-1.333-1.333h-1.333zM12 10.667c-0.736 0-1.333 0.597-1.333 1.333v1.333c0 0.736 0.597 1.333 1.333 1.333h1.333c0.736 0 1.333-0.597 1.333-1.333v-1.333c0-0.736-0.597-1.333-1.333-1.333h-1.333zM12 16c-0.736 0-1.333 0.597-1.333 1.333v1.333c0 0.736 0.597 1.333 1.333 1.333h1.333c0.736 0 1.333-0.597 1.333-1.333v-1.333c0-0.736-0.597-1.333-1.333-1.333h-1.333zM18.667 16c-0.736 0-1.333 0.597-1.333 1.333v1.333c0 0.736 0.597 1.333 1.333 1.333h1.333c0.736 0 1.333-0.597 1.333-1.333v-1.333c0-0.736-0.597-1.333-1.333-1.333h-1.333zM18.667 10.667h1.333c0.736 0 1.333 0.597 1.333 1.333v1.333c0 0.736-0.597 1.333-1.333 1.333h-1.333c-0.736 0-1.333-0.597-1.333-1.333v-1.333c0-0.736 0.597-1.333 1.333-1.333zM5.333 28h21.333c0.736 0 1.333 0.597 1.333 1.333v0.533c0 0.442-0.358 0.8-0.8 0.8h-22.4c-0.442 0-0.8-0.358-0.8-0.8v-0.533c0-0.736 0.597-1.333 1.333-1.333z"></path>
</svg>
