<!-- Generated by IcoMoon.io -->
<svg version="1.1" xmlns="http://www.w3.org/2000/svg" width="32" height="32" viewBox="0 0 32 32">
<path d="M6.817 2.718c2.599-0.923 5.66-1.384 9.183-1.384s6.584 0.461 9.184 1.384v0c1.388 0.493 2.114 2.017 1.621 3.405-0.047 0.133-0.105 0.261-0.172 0.385l-6.632 12.159h-8l-6.632-12.159c-0.705-1.293-0.229-2.913 1.064-3.618 0.123-0.067 0.252-0.125 0.385-0.172zM13.333 26.667h5.333c0 1.473-1.194 2.667-2.667 2.667v0c-1.473 0-2.667-1.194-2.667-2.667zM17.333 13.333v10.667c0 0.736-0.597 1.333-1.333 1.333s-1.333-0.597-1.333-1.333v-10.667h-0.667c-0.368 0-0.667-0.298-0.667-0.667s0.298-0.667 0.667-0.667h4c0.368 0 0.667 0.298 0.667 0.667s-0.298 0.667-0.667 0.667h-0.667zM12 24c-0.736 0-1.333-0.597-1.333-1.333s0.597-1.333 1.333-1.333c-0.736 0-1.333-0.597-1.333-1.333s0.597-1.333 1.333-1.333h8c0.736 0 1.333 0.597 1.333 1.333s-0.597 1.333-1.333 1.333c0.736 0 1.333 0.597 1.333 1.333s-0.597 1.333-1.333 1.333c0.736 0 1.333 0.597 1.333 1.333s-0.597 1.333-1.333 1.333h-8c-0.736 0-1.333-0.597-1.333-1.333s0.597-1.333 1.333-1.333z"></path>
</svg>
