<!-- Generated by IcoMoon.io -->
<svg version="1.1" xmlns="http://www.w3.org/2000/svg" width="32" height="32" viewBox="0 0 32 32">
<path d="M26.667 12c0 5.891-4.776 10.667-10.667 10.667s-10.667-4.776-10.667-10.667c0-5.891 4.776-10.667 10.667-10.667s10.667 4.776 10.667 10.667zM19.373 14.667h-6.757l3.352 8.619 3.405-8.619zM14.091 25.817l-5.373-13.817h14.576l-5.461 13.823-1.865-0.737-1.877 0.73zM13.333 29.333h5.333c0 1.473-1.194 2.667-2.667 2.667v0c-1.473 0-2.667-1.194-2.667-2.667zM12 26.667c-0.736 0-1.333-0.597-1.333-1.333s0.597-1.333 1.333-1.333c-0.736 0-1.333-0.597-1.333-1.333s0.597-1.333 1.333-1.333h8c0.736 0 1.333 0.597 1.333 1.333s-0.597 1.333-1.333 1.333c0.736 0 1.333 0.597 1.333 1.333s-0.597 1.333-1.333 1.333c0.736 0 1.333 0.597 1.333 1.333s-0.597 1.333-1.333 1.333h-8c-0.736 0-1.333-0.597-1.333-1.333s0.597-1.333 1.333-1.333z"></path>
</svg>
