<!-- Generated by IcoMoon.io -->
<svg version="1.1" xmlns="http://www.w3.org/2000/svg" width="32" height="32" viewBox="0 0 32 32">
<path d="M20 20l1.33 1.52c0.485 0.554 1.327 0.61 1.881 0.125 0.045-0.039 0.086-0.081 0.125-0.125l1.33-1.52h3.333c-0.775 3.876-4.179 6.667-8.132 6.667h-7.736c-3.953 0-7.357-2.79-8.132-6.667h16zM28 12h-24c0.775-3.876 4.179-6.667 8.132-6.667h7.736c3.953 0 7.357 2.79 8.132 6.667zM4 14.667h24c0.736 0 1.333 0.597 1.333 1.333s-0.597 1.333-1.333 1.333h-24c-0.736 0-1.333-0.597-1.333-1.333s0.597-1.333 1.333-1.333z"></path>
</svg>
