<!-- Generated by IcoMoon.io -->
<svg version="1.1" xmlns="http://www.w3.org/2000/svg" width="32" height="32" viewBox="0 0 32 32">
<path d="M17.333 14.667h5.333c2.768 0 5.043 2.108 5.308 4.807l-0.917 0.917c-1.547 1.547-3.005 2.276-4.391 2.276-0.637 0-1.083-0.198-1.914-0.797-0.081-0.058-0.186-0.135-0.386-0.281-1.519-1.105-2.627-1.588-4.368-1.588-1.71 0-2.828 0.45-4.56 1.538-0.204 0.128-0.306 0.192-0.398 0.25-1.043 0.649-1.621 0.879-2.375 0.879-0.897 0-1.758-0.377-2.553-1.030-0.499-0.41-0.851-0.818-1.013-1.056-0.32-0.404-0.437-0.551-1.050-1.318 0.359-2.596 2.587-4.596 5.283-4.596h5.333v-2.667h2.667v2.667zM16 9.333c1.473 0 2.667-1.194 2.667-2.667 0-0.982-0.889-2.315-2.667-4-1.778 1.685-2.667 3.018-2.667 4 0 1.473 1.194 2.667 2.667 2.667zM28 23.143v4.857c0 0.736-0.597 1.333-1.333 1.333h-21.333c-0.736 0-1.333-0.597-1.333-1.333v-4.67c0.131 0.121 0.271 0.244 0.421 0.367 1.234 1.014 2.656 1.637 4.246 1.637 1.368 0 2.355-0.392 3.785-1.282 0.099-0.061 0.207-0.13 0.407-0.256 1.343-0.844 2.053-1.129 3.142-1.129 1.065 0 1.693 0.274 2.799 1.078 0.192 0.14 0.305 0.223 0.393 0.287 1.244 0.898 2.154 1.302 3.474 1.302 1.833 0 3.614-0.748 5.333-2.191z"></path>
</svg>
