<!-- Generated by IcoMoon.io -->
<svg version="1.1" xmlns="http://www.w3.org/2000/svg" width="32" height="32" viewBox="0 0 32 32">
<path d="M16 25.333c0.264 0 0.521-0.078 0.741-0.225s0.39-0.355 0.491-0.598 0.127-0.512 0.076-0.77c-0.051-0.259-0.178-0.496-0.365-0.683s-0.424-0.313-0.683-0.365-0.527-0.025-0.77 0.076c-0.244 0.101-0.452 0.272-0.598 0.491s-0.225 0.477-0.225 0.741c0 0.354 0.141 0.693 0.391 0.943s0.589 0.391 0.943 0.391zM22.667 25.333c0.264 0 0.521-0.078 0.741-0.225s0.39-0.355 0.491-0.598 0.127-0.512 0.076-0.77c-0.051-0.259-0.178-0.496-0.365-0.683s-0.424-0.313-0.683-0.365-0.527-0.025-0.77 0.076c-0.244 0.101-0.452 0.272-0.598 0.491s-0.225 0.477-0.225 0.741c0 0.354 0.141 0.693 0.391 0.943s0.589 0.391 0.943 0.391zM22.667 20c0.264 0 0.521-0.078 0.741-0.225s0.39-0.355 0.491-0.598 0.127-0.512 0.076-0.77c-0.051-0.259-0.178-0.496-0.365-0.683s-0.424-0.313-0.683-0.365-0.527-0.025-0.77 0.076c-0.244 0.101-0.452 0.272-0.598 0.491s-0.225 0.477-0.225 0.741c0 0.354 0.141 0.693 0.391 0.943s0.589 0.391 0.943 0.391zM16 20c0.264 0 0.521-0.078 0.741-0.225s0.39-0.355 0.491-0.598 0.127-0.512 0.076-0.77c-0.051-0.259-0.178-0.496-0.365-0.683s-0.424-0.313-0.683-0.365-0.527-0.025-0.77 0.076c-0.244 0.101-0.452 0.272-0.598 0.491s-0.225 0.477-0.225 0.741c0 0.354 0.141 0.693 0.391 0.943s0.589 0.391 0.943 0.391zM25.333 4h-1.333v-1.333c0-0.354-0.141-0.693-0.391-0.943s-0.589-0.391-0.943-0.391c-0.354 0-0.693 0.14-0.943 0.391s-0.391 0.589-0.391 0.943v1.333h-10.667v-1.333c0-0.354-0.14-0.693-0.391-0.943s-0.589-0.391-0.943-0.391c-0.354 0-0.693 0.14-0.943 0.391s-0.391 0.589-0.391 0.943v1.333h-1.333c-1.061 0-2.078 0.421-2.828 1.172s-1.172 1.768-1.172 2.828v18.667c0 1.061 0.421 2.078 1.172 2.828s1.768 1.172 2.828 1.172h18.667c1.061 0 2.078-0.421 2.828-1.172s1.172-1.768 1.172-2.828v-18.667c0-1.061-0.421-2.078-1.172-2.828s-1.768-1.172-2.828-1.172zM26.667 26.667c0 0.354-0.141 0.693-0.391 0.943s-0.589 0.391-0.943 0.391h-18.667c-0.354 0-0.693-0.141-0.943-0.391s-0.391-0.589-0.391-0.943v-12h21.333v12zM26.667 12h-21.333v-4c0-0.354 0.14-0.693 0.391-0.943s0.589-0.391 0.943-0.391h1.333v1.333c0 0.354 0.14 0.693 0.391 0.943s0.589 0.391 0.943 0.391c0.354 0 0.693-0.14 0.943-0.391s0.391-0.589 0.391-0.943v-1.333h10.667v1.333c0 0.354 0.141 0.693 0.391 0.943s0.589 0.391 0.943 0.391c0.354 0 0.693-0.14 0.943-0.391s0.391-0.589 0.391-0.943v-1.333h1.333c0.354 0 0.693 0.14 0.943 0.391s0.391 0.589 0.391 0.943v4zM9.333 20c0.264 0 0.521-0.078 0.741-0.225s0.39-0.355 0.491-0.598c0.101-0.244 0.127-0.512 0.076-0.77s-0.178-0.496-0.365-0.683c-0.186-0.187-0.424-0.313-0.683-0.365s-0.527-0.025-0.77 0.076c-0.244 0.101-0.452 0.272-0.598 0.491s-0.225 0.477-0.225 0.741c0 0.354 0.14 0.693 0.391 0.943s0.589 0.391 0.943 0.391zM9.333 25.333c0.264 0 0.521-0.078 0.741-0.225s0.39-0.355 0.491-0.598c0.101-0.244 0.127-0.512 0.076-0.77s-0.178-0.496-0.365-0.683c-0.186-0.187-0.424-0.313-0.683-0.365s-0.527-0.025-0.77 0.076c-0.244 0.101-0.452 0.272-0.598 0.491s-0.225 0.477-0.225 0.741c0 0.354 0.14 0.693 0.391 0.943s0.589 0.391 0.943 0.391z"></path>
</svg>
