<!-- Generated by IcoMoon.io -->
<svg version="1.1" xmlns="http://www.w3.org/2000/svg" width="32" height="32" viewBox="0 0 32 32">
<path d="M15.886 18.857l2.939-2.939c0.812-0.812 1.013-2.052 0.5-3.078l-0.166-0.333c-0.513-1.027-0.312-2.267 0.5-3.078l3.644-3.644c0.26-0.26 0.682-0.26 0.943 0 0.051 0.051 0.093 0.109 0.125 0.173l1.472 2.944c1.126 2.252 0.685 4.972-1.096 6.753l-7.998 7.998c-1.938 1.938-4.805 2.615-7.405 1.748l-3.219-1.073c-0.349-0.116-0.538-0.494-0.422-0.843 0.033-0.098 0.088-0.187 0.161-0.261l3.535-3.535c0.812-0.812 2.052-1.013 3.078-0.5l0.333 0.166c1.027 0.513 2.267 0.312 3.078-0.5z"></path>
</svg>
