<!-- Generated by IcoMoon.io -->
<svg version="1.1" xmlns="http://www.w3.org/2000/svg" width="32" height="32" viewBox="0 0 32 32">
<path d="M16 29.333c-7.364 0-13.333-5.97-13.333-13.333s5.97-13.333 13.333-13.333c7.364 0 13.333 5.97 13.333 13.333s-5.97 13.333-13.333 13.333zM15.485 17.617c-0.594 0.593-1.5 0.741-2.251 0.365s-1.657-0.228-2.251 0.365l-2.015 2.015c-0.073 0.073-0.128 0.162-0.161 0.261-0.116 0.349 0.072 0.727 0.422 0.843l1.805 0.602c1.733 0.578 3.645 0.127 4.937-1.165l5.332-5.332c1.187-1.187 1.481-3 0.731-4.502l-0.843-1.687c-0.032-0.064-0.074-0.123-0.125-0.173-0.26-0.26-0.682-0.26-0.943 0l-2.123 2.123c-0.593 0.594-0.741 1.5-0.365 2.251s0.228 1.657-0.365 2.251l-1.784 1.784z"></path>
</svg>
