<!-- Generated by IcoMoon.io -->
<svg version="1.1" xmlns="http://www.w3.org/2000/svg" width="32" height="32" viewBox="0 0 32 32">
<path d="M17.182 15.304c-2.135-7.781-0.816-12.705 3.958-14.773 2.94 4.135 1.62 9.059-3.958 14.773zM30.746 10.225c-7.781-2.135-12.705-0.816-14.773 3.958 4.135 2.94 9.059 1.62 14.773-3.958zM26.674 4.66c-7.806 2.041-11.411 5.646-10.815 10.815 5.051 0.479 8.655-3.126 10.815-10.815zM3.438 23.351l0.386 0.386c0.521 0.521 1.365 0.521 1.886 0s0.521-1.365 0-1.886l-0.922-0.922 1.351-2.421 1.457 1.457c0.521 0.521 1.365 0.521 1.886 0s0.521-1.365 0-1.886l-1.886-1.886c-0.035-0.035-0.072-0.068-0.11-0.099l1.355-2.428 2.527 2.527c0.521 0.521 1.365 0.521 1.886 0s0.521-1.365 0-1.886l-2.828-2.828c-0.078-0.078-0.163-0.144-0.253-0.199l0.326-0.584c0.718-1.286 2.342-1.747 3.628-1.030 0.215 0.12 0.412 0.269 0.586 0.443l6.51 6.51c1.041 1.041 1.041 2.73 0 3.771-0.174 0.174-0.371 0.323-0.586 0.443l-16.010 8.932c-0.878 0.49-1.975 0.337-2.686-0.374s-0.864-1.808-0.374-2.686l1.873-3.357z"></path>
</svg>
