<!-- Generated by IcoMoon.io -->
<svg version="1.1" xmlns="http://www.w3.org/2000/svg" width="32" height="32" viewBox="0 0 32 32">
<path d="M24.193 15.792l-0.93 5.58c-0.001 0.006-0.002 0.013-0.003 0.019-0.132 0.724-0.826 1.205-1.55 1.073l-15.158-2.756c-0.499-0.091-0.904-0.457-1.044-0.946l-2.433-8.516c-0.034-0.119-0.051-0.242-0.051-0.366 0-0.736 0.597-1.333 1.333-1.333h18.301l0.818-3.504c0.166-0.712 0.801-1.216 1.532-1.216h2.753c0.869 0 1.573 0.704 1.573 1.573s-0.704 1.573-1.573 1.573h-1.505l-2.063 8.818zM8.667 28c-1.105 0-2-0.895-2-2s0.895-2 2-2c1.105 0 2 0.895 2 2s-0.895 2-2 2zM20.667 28c-1.105 0-2-0.895-2-2s0.895-2 2-2c1.105 0 2 0.895 2 2s-0.895 2-2 2z"></path>
</svg>
