<!-- Generated by IcoMoon.io -->
<svg version="1.1" xmlns="http://www.w3.org/2000/svg" width="32" height="32" viewBox="0 0 32 32">
<path d="M16 6.083l-5.642 6.771c-0.471 0.566-1.312 0.642-1.878 0.171s-0.642-1.312-0.171-1.878l6.667-8c0.533-0.64 1.516-0.64 2.049 0l6.667 8c0.471 0.566 0.395 1.406-0.171 1.878s-1.406 0.395-1.878-0.171l-5.642-6.771zM4.667 12h22.667c0.736 0 1.333 0.597 1.333 1.333 0 0.176-0.035 0.35-0.103 0.513l-4.872 11.692c-0.621 1.491-2.078 2.462-3.692 2.462h-8c-1.615 0-3.071-0.971-3.692-2.462l-4.872-11.692c-0.283-0.68 0.038-1.46 0.718-1.744 0.162-0.068 0.337-0.103 0.513-0.103zM16 22.667c1.473 0 2.667-1.194 2.667-2.667s-1.194-2.667-2.667-2.667c-1.473 0-2.667 1.194-2.667 2.667s1.194 2.667 2.667 2.667z"></path>
</svg>
