<!-- Generated by IcoMoon.io -->
<svg version="1.1" xmlns="http://www.w3.org/2000/svg" width="32" height="32" viewBox="0 0 32 32">
<path d="M16 6.083l-5.642 6.771c-0.471 0.566-1.312 0.642-1.878 0.171s-0.642-1.312-0.171-1.878l6.667-8c0.533-0.64 1.516-0.64 2.049 0l6.667 8c0.471 0.566 0.395 1.406-0.171 1.878s-1.406 0.395-1.878-0.171l-5.642-6.771zM4.374 12h23.251c0.736 0 1.333 0.597 1.333 1.333 0 0.109-0.013 0.218-0.040 0.323l-2.828 11.313c-0.445 1.781-2.045 3.030-3.881 3.030h-12.42c-1.835 0-3.435-1.249-3.881-3.030l-2.828-11.313c-0.179-0.714 0.256-1.438 0.97-1.617 0.106-0.026 0.214-0.040 0.323-0.040zM16 16c-0.736 0-1.333 0.597-1.333 1.333v5.333c0 0.736 0.597 1.333 1.333 1.333s1.333-0.597 1.333-1.333v-5.333c0-0.736-0.597-1.333-1.333-1.333zM9.286 16.182c-0.711 0.191-1.133 0.922-0.943 1.633l1.38 5.152c0.191 0.711 0.922 1.133 1.633 0.943s1.133-0.922 0.943-1.633l-1.38-5.152c-0.191-0.711-0.922-1.133-1.633-0.943zM22.714 16.182c-0.711-0.191-1.442 0.232-1.633 0.943l-1.38 5.152c-0.191 0.711 0.232 1.442 0.943 1.633s1.442-0.232 1.633-0.943l1.38-5.152c0.191-0.711-0.232-1.442-0.943-1.633z"></path>
</svg>
