<!-- Generated by IcoMoon.io -->
<svg version="1.1" xmlns="http://www.w3.org/2000/svg" width="32" height="32" viewBox="0 0 32 32">
<path d="M16 2.667c2.451 0 4.693 1.385 5.789 3.578l3.544 7.089c1.82 3.641 0.345 8.068-3.296 9.889-1.023 0.512-2.152 0.778-3.296 0.778h-5.482c-4.071 0-7.37-3.3-7.37-7.37 0-1.144 0.266-2.273 0.778-3.296l3.544-7.089c1.096-2.193 3.337-3.578 5.789-3.578zM10.067 18.133c1.942 1.456 3.925 2.2 5.933 2.2s3.992-0.744 5.933-2.2l-1.2-1.6c-1.614 1.21-3.186 1.8-4.733 1.8s-3.12-0.59-4.733-1.8l-1.2 1.6zM8.213 28.081l2.667-4.619c0.368-0.638 1.184-0.856 1.821-0.488s0.856 1.184 0.488 1.821l-2.667 4.619c-0.368 0.638-1.184 0.856-1.821 0.488s-0.856-1.184-0.488-1.821zM23.776 28.040c0.368 0.638 0.15 1.453-0.488 1.821s-1.453 0.15-1.821-0.488l-2.667-4.619c-0.368-0.638-0.15-1.453 0.488-1.821s1.453-0.15 1.821 0.488l2.667 4.619z"></path>
</svg>
