<!-- Generated by IcoMoon.io -->
<svg version="1.1" xmlns="http://www.w3.org/2000/svg" width="32" height="32" viewBox="0 0 32 32">
<path d="M8.723 28.669l2.131-7.953c0.191-0.711 0.922-1.133 1.633-0.943s1.133 0.922 0.943 1.633l-2.131 7.953c-0.191 0.711-0.922 1.133-1.633 0.943s-1.133-0.922-0.943-1.633zM23.266 28.628c0.191 0.711-0.232 1.442-0.943 1.633s-1.442-0.232-1.633-0.943l-1.737-6.483c-0.191-0.711 0.232-1.442 0.943-1.633s1.442 0.232 1.633 0.943l1.737 6.483zM9.815 1.333h12.371c1.473 0 2.667 1.194 2.667 2.667 0 0.147-0.012 0.293-0.036 0.438l-2.056 12.338c-0.054 0.321-0.332 0.557-0.658 0.557h-12.204c-0.326 0-0.604-0.236-0.658-0.557l-2.056-12.338c-0.242-1.453 0.739-2.827 2.192-3.069 0.145-0.024 0.291-0.036 0.438-0.036zM7.333 18.667h17.333c1.105 0 2 0.895 2 2s-0.895 2-2 2h-17.333c-1.105 0-2-0.895-2-2s0.895-2 2-2z"></path>
</svg>
