<!-- Generated by IcoMoon.io -->
<svg version="1.1" xmlns="http://www.w3.org/2000/svg" width="32" height="32" viewBox="0 0 32 32">
<path d="M6.667 25.333h20c0.736 0 1.333 0.597 1.333 1.333s-0.597 1.333-1.333 1.333h-21.333c-0.736 0-1.333-0.597-1.333-1.333v-21.333c0-0.736 0.597-1.333 1.333-1.333s1.333 0.597 1.333 1.333v20zM11.639 19.579c-0.504 0.537-1.347 0.564-1.885 0.061s-0.564-1.347-0.061-1.885l5-5.333c0.487-0.52 1.296-0.565 1.838-0.102l3.946 3.368 5.142-6.513c0.456-0.578 1.295-0.677 1.873-0.22s0.677 1.295 0.22 1.873l-6 7.6c-0.469 0.594-1.337 0.679-1.912 0.188l-4.032-3.441-4.13 4.405z"></path>
</svg>
