<!-- Generated by IcoMoon.io -->
<svg version="1.1" xmlns="http://www.w3.org/2000/svg" width="32" height="32" viewBox="0 0 32 32">
<path d="M24.667 5.333c1.105 0 2 0.895 2 2v13.333c0 1.105-0.895 2-2 2s-2-0.895-2-2v-13.333c0-1.105 0.895-2 2-2zM18 12c1.105 0 2 0.895 2 2v6.667c0 1.105-0.895 2-2 2s-2-0.895-2-2v-6.667c0-1.105 0.895-2 2-2zM6.667 25.333h20c0.736 0 1.333 0.597 1.333 1.333s-0.597 1.333-1.333 1.333h-21.333c-0.736 0-1.333-0.597-1.333-1.333v-21.333c0-0.736 0.597-1.333 1.333-1.333s1.333 0.597 1.333 1.333v20zM11.333 14.667c1.105 0 2 0.895 2 2v4c0 1.105-0.895 2-2 2s-2-0.895-2-2v-4c0-1.105 0.895-2 2-2z"></path>
</svg>
