<!-- Generated by IcoMoon.io -->
<svg version="1.1" xmlns="http://www.w3.org/2000/svg" width="32" height="32" viewBox="0 0 32 32">
<path d="M29.333 20.013l0.033-0.013v6.114c0 0.736-0.597 1.333-1.333 1.333-0.354 0-0.693-0.14-0.943-0.391l-3.057-3.057h-16.033c-2.209 0-4-1.791-4-4v-12c0-2.209 1.791-4 4-4h17.333c2.209 0 4 1.791 4 4v12c0 0.004 0 0.009-0 0.013zM10 16c-1.105 0-2-0.895-2-2s0.895-2 2-2c1.105 0 2 0.895 2 2s-0.895 2-2 2zM16.667 16c-1.105 0-2-0.895-2-2s0.895-2 2-2c1.105 0 2 0.895 2 2s-0.895 2-2 2zM23.333 16c-1.105 0-2-0.895-2-2s0.895-2 2-2c1.105 0 2 0.895 2 2s-0.895 2-2 2z"></path>
</svg>
