<!-- Generated by IcoMoon.io -->
<svg version="1.1" xmlns="http://www.w3.org/2000/svg" width="32" height="32" viewBox="0 0 32 32">
<path d="M29.333 20.013l0.033-0.013v6.114c0 0.736-0.597 1.333-1.333 1.333-0.354 0-0.693-0.14-0.943-0.391l-3.057-3.057h-17.367c-2.209 0-4-1.791-4-4v-12c0-2.209 1.791-4 4-4h18.667c2.209 0 4 1.791 4 4v12c0 0.004 0 0.009-0 0.013zM8.224 14.073c2.013 3.019 4.637 4.594 7.776 4.594s5.763-1.574 7.776-4.594c0.408-0.613 0.243-1.441-0.37-1.849s-1.441-0.243-1.849 0.37c-1.543 2.314-3.363 3.406-5.557 3.406s-4.015-1.092-5.557-3.406c-0.408-0.613-1.236-0.778-1.849-0.37s-0.778 1.236-0.37 1.849z"></path>
</svg>
