<!-- Generated by IcoMoon.io -->
<svg version="1.1" xmlns="http://www.w3.org/2000/svg" width="32" height="32" viewBox="0 0 32 32">
<path d="M6.667 20l-2.667 8.667 8.667-2.667zM18 28c-6.996 0-12.667-5.671-12.667-12.667s5.671-12.667 12.667-12.667c6.996 0 12.667 5.671 12.667 12.667s-5.671 12.667-12.667 12.667zM12 10.667c-0.736 0-1.333 0.597-1.333 1.333s0.597 1.333 1.333 1.333h12c0.736 0 1.333-0.597 1.333-1.333s-0.597-1.333-1.333-1.333h-12zM12 16c-0.736 0-1.333 0.597-1.333 1.333s0.597 1.333 1.333 1.333h6.667c0.736 0 1.333-0.597 1.333-1.333s-0.597-1.333-1.333-1.333h-6.667z"></path>
</svg>
