<!-- Generated by IcoMoon.io -->
<svg version="1.1" xmlns="http://www.w3.org/2000/svg" width="32" height="32" viewBox="0 0 32 32">
<path d="M6.667 20l-2.667 8.667 8.667-2.667zM18 28c-6.996 0-12.667-5.671-12.667-12.667s5.671-12.667 12.667-12.667c6.996 0 12.667 5.671 12.667 12.667s-5.671 12.667-12.667 12.667zM11.333 17.333c1.105 0 2-0.895 2-2s-0.895-2-2-2c-1.105 0-2 0.895-2 2s0.895 2 2 2zM18 17.333c1.105 0 2-0.895 2-2s-0.895-2-2-2c-1.105 0-2 0.895-2 2s0.895 2 2 2zM24.667 17.333c1.105 0 2-0.895 2-2s-0.895-2-2-2c-1.105 0-2 0.895-2 2s0.895 2 2 2z"></path>
</svg>
