<!-- Generated by IcoMoon.io -->
<svg version="1.1" xmlns="http://www.w3.org/2000/svg" width="32" height="32" viewBox="0 0 32 32">
<path d="M19.315 24l-2.252 4.075c-0.356 0.645-1.167 0.878-1.812 0.522-0.188-0.104-0.348-0.251-0.466-0.43l-2.763-4.167h-5.355c-2.209 0-4-1.791-4-4v-12c0-2.209 1.791-4 4-4h18.667c2.209 0 4 1.791 4 4v12c0 2.209-1.791 4-4 4h-6.018zM8 9.333h12c0.736 0 1.333 0.597 1.333 1.333s-0.597 1.333-1.333 1.333h-12c-0.736 0-1.333-0.597-1.333-1.333s0.597-1.333 1.333-1.333zM8 14.667h6.667c0.736 0 1.333 0.597 1.333 1.333s-0.597 1.333-1.333 1.333h-6.667c-0.736 0-1.333-0.597-1.333-1.333s0.597-1.333 1.333-1.333z"></path>
</svg>
