<!-- Generated by IcoMoon.io -->
<svg version="1.1" xmlns="http://www.w3.org/2000/svg" width="32" height="32" viewBox="0 0 32 32">
<path d="M29.333 18.553v6.78c0 1.473-1.194 2.667-2.667 2.667h-8c0-1.473-1.194-2.667-2.667-2.667s-2.667 1.194-2.667 2.667h-8c-1.473 0-2.667-1.194-2.667-2.667v-16h26.667v5.447c-0.209-0.074-0.433-0.114-0.667-0.114-1.105 0-2 0.895-2 2s0.895 2 2 2c0.234 0 0.458-0.040 0.667-0.114zM12 22.667c2.946 0 5.333-2.388 5.333-5.333s-2.388-5.333-5.333-5.333c-2.946 0-5.333 2.388-5.333 5.333s2.388 5.333 5.333 5.333zM24 24c0.736 0 1.333-0.597 1.333-1.333s-0.597-1.333-1.333-1.333c-0.736 0-1.333 0.597-1.333 1.333s0.597 1.333 1.333 1.333zM6.667 28c0.736 0 1.333-0.597 1.333-1.333s-0.597-1.333-1.333-1.333c-0.736 0-1.333 0.597-1.333 1.333s0.597 1.333 1.333 1.333zM26.127 7.78l-19.982-2.351c-0.498-0.059-0.987 0.167-1.265 0.585l-2.213 3.32c17.778 0 26.667 0 26.667 0s0 0 0 0v0c-0.864-0.864-1.993-1.411-3.206-1.554z"></path>
</svg>
