<!-- Generated by IcoMoon.io -->
<svg version="1.1" xmlns="http://www.w3.org/2000/svg" width="32" height="32" viewBox="0 0 32 32">
<path d="M26.842 5.824v0c3.063 3.063 3.063 8.028 0 11.090-0.561 0.561-1.204 1.034-1.906 1.402l-6.807 3.565c-2.108 1.104-4.689 0.71-6.372-0.972v0c-1.683-1.683-2.077-4.264-0.972-6.372l3.565-6.807c2.010-3.837 6.749-5.318 10.585-3.308 0.703 0.368 1.345 0.841 1.906 1.402zM6.491 23.347l1.966-1.966 2.828 2.828-1.966 1.966c0.355 0.743 0.225 1.661-0.391 2.277-0.781 0.781-2.047 0.781-2.828 0-0.362-0.362-0.556-0.829-0.583-1.303-0.474-0.026-0.941-0.221-1.303-0.583-0.781-0.781-0.781-2.047 0-2.828 0.616-0.616 1.533-0.746 2.277-0.391z"></path>
</svg>
