<!-- Generated by IcoMoon.io -->
<svg version="1.1" xmlns="http://www.w3.org/2000/svg" width="32" height="32" viewBox="0 0 32 32">
<path d="M14.781 21.381l-1.886-1.886 3.3-3.3c0.781-0.781 0.781-2.047 0-2.828s-2.047-0.781-2.828 0l-4.714 4.714c-1.822 1.822-1.822 4.777 0 6.6s4.777 1.822 6.6 0l9.428-9.428c1.822-1.822 1.822-4.777 0-6.6l-0.471-0.471c-1.562-1.562-4.095-1.562-5.657 0l-1.886-1.886c2.604-2.603 6.825-2.603 9.428 0l0.471 0.471c2.864 2.864 2.864 7.507 0 10.371l-9.428 9.428c-2.864 2.864-7.507 2.864-10.371 0s-2.864-7.507 0-10.371l4.714-4.714c1.822-1.822 4.777-1.822 6.6 0s1.822 4.777 0 6.6l-3.3 3.3z"></path>
</svg>
