<!-- Generated by IcoMoon.io -->
<svg version="1.1" xmlns="http://www.w3.org/2000/svg" width="32" height="32" viewBox="0 0 32 32">
<path d="M17.333 18.667h-5.333c-0.354 0-0.693 0.141-0.943 0.391s-0.391 0.589-0.391 0.943c0 0.354 0.14 0.693 0.391 0.943s0.589 0.391 0.943 0.391h5.333c0.354 0 0.693-0.141 0.943-0.391s0.391-0.589 0.391-0.943c0-0.354-0.141-0.693-0.391-0.943s-0.589-0.391-0.943-0.391zM22.667 5.333h-1.573c-0.275-0.778-0.784-1.452-1.457-1.929s-1.478-0.735-2.303-0.737h-2.667c-0.825 0.002-1.63 0.26-2.303 0.737s-1.182 1.151-1.457 1.929h-1.573c-1.061 0-2.078 0.421-2.828 1.172s-1.172 1.768-1.172 2.828v16c0 1.061 0.421 2.078 1.172 2.828s1.768 1.172 2.828 1.172h13.333c1.061 0 2.078-0.421 2.828-1.172s1.172-1.768 1.172-2.828v-16c0-1.061-0.421-2.078-1.172-2.828s-1.768-1.172-2.828-1.172zM13.333 6.667c0-0.354 0.141-0.693 0.391-0.943s0.589-0.391 0.943-0.391h2.667c0.354 0 0.693 0.14 0.943 0.391s0.391 0.589 0.391 0.943v1.333h-5.333v-1.333zM24 25.333c0 0.354-0.141 0.693-0.391 0.943s-0.589 0.391-0.943 0.391h-13.333c-0.354 0-0.693-0.141-0.943-0.391s-0.391-0.589-0.391-0.943v-16c0-0.354 0.14-0.693 0.391-0.943s0.589-0.391 0.943-0.391h1.333v1.333c0 0.354 0.14 0.693 0.391 0.943s0.589 0.391 0.943 0.391h8c0.354 0 0.693-0.14 0.943-0.391s0.391-0.589 0.391-0.943v-1.333h1.333c0.354 0 0.693 0.14 0.943 0.391s0.391 0.589 0.391 0.943v16zM20 13.333h-8c-0.354 0-0.693 0.141-0.943 0.391s-0.391 0.589-0.391 0.943c0 0.354 0.14 0.693 0.391 0.943s0.589 0.391 0.943 0.391h8c0.354 0 0.693-0.141 0.943-0.391s0.391-0.589 0.391-0.943c0-0.354-0.141-0.693-0.391-0.943s-0.589-0.391-0.943-0.391z"></path>
</svg>
