<!-- Generated by IcoMoon.io -->
<svg version="1.1" xmlns="http://www.w3.org/2000/svg" width="32" height="32" viewBox="0 0 32 32">
<path d="M10.667 4v0.667c0 1.105 0.895 2 2 2h6.667c1.105 0 2-0.895 2-2v-0.667h2.667c1.473 0 2.667 1.194 2.667 2.667v21.333c0 1.473-1.194 2.667-2.667 2.667h-16c-1.473 0-2.667-1.194-2.667-2.667v-21.333c0-1.473 1.194-2.667 2.667-2.667h2.667zM14.5 21c-0.319 0-0.639-0.128-0.894-0.383l-2.556-2.556c-0.511-0.511-0.511-1.278 0-1.789s1.342-0.511 1.789 0l1.661 1.661 4.217-4.217c0.511-0.511 1.278-0.511 1.789 0s0.511 1.278 0 1.789l-5.111 5.111c-0.256 0.256-0.575 0.383-0.894 0.383zM14.667 2.667c0-0.736 0.597-1.333 1.333-1.333s1.333 0.597 1.333 1.333h2c0.368 0 0.667 0.298 0.667 0.667v1.333c0 0.368-0.298 0.667-0.667 0.667h-6.667c-0.368 0-0.667-0.298-0.667-0.667v-1.333c0-0.368 0.298-0.667 0.667-0.667h2z"></path>
</svg>
