<!-- Generated by IcoMoon.io -->
<svg version="1.1" xmlns="http://www.w3.org/2000/svg" width="32" height="32" viewBox="0 0 32 32">
<path d="M16 29.333c-6.627 0-12-5.373-12-12s5.373-12 12-12c6.627 0 12 5.373 12 12s-5.373 12-12 12zM15.951 10h0.113c0.343 0 0.629 0.26 0.663 0.6l0.607 6.066 4.331 2.475c0.208 0.119 0.336 0.34 0.336 0.579v0.28c0 0.281-0.228 0.509-0.509 0.509-0.045 0-0.090-0.006-0.134-0.018l-6.159-1.68c-0.309-0.084-0.514-0.375-0.489-0.694l0.577-7.502c0.027-0.347 0.316-0.616 0.665-0.616z"></path>
</svg>
