<!-- Generated by IcoMoon.io -->
<svg version="1.1" xmlns="http://www.w3.org/2000/svg" width="32" height="32" viewBox="0 0 32 32">
<path d="M16 8c-0.175-0-0.349 0.034-0.51 0.101s-0.309 0.165-0.433 0.289c-0.124 0.124-0.222 0.271-0.289 0.433s-0.101 0.335-0.101 0.51v5.333h-2.667c-0.354 0-0.693 0.141-0.943 0.391s-0.391 0.589-0.391 0.943c0 0.354 0.14 0.693 0.391 0.943s0.589 0.391 0.943 0.391h4c0.175 0 0.349-0.034 0.51-0.101s0.309-0.165 0.433-0.289c0.124-0.124 0.222-0.271 0.289-0.433s0.101-0.335 0.101-0.51v-6.667c0-0.175-0.034-0.348-0.101-0.51s-0.165-0.309-0.289-0.433-0.271-0.222-0.433-0.289c-0.162-0.067-0.335-0.101-0.51-0.101zM16 2.667c-2.637 0-5.215 0.782-7.408 2.247s-3.902 3.547-4.911 5.984c-1.009 2.436-1.273 5.117-0.759 7.704s1.784 4.962 3.649 6.827c1.865 1.865 4.24 3.135 6.827 3.649s5.267 0.25 7.704-0.759c2.436-1.009 4.519-2.718 5.984-4.911s2.247-4.771 2.247-7.408c-0.004-3.535-1.41-6.924-3.91-9.424s-5.889-3.906-9.424-3.91zM16 26.667c-2.11 0-4.172-0.626-5.926-1.798s-3.121-2.838-3.929-4.787-1.019-4.094-0.607-6.163c0.412-2.069 1.427-3.97 2.919-5.462s3.392-2.508 5.462-2.919c2.069-0.412 4.214-0.2 6.163 0.607s3.615 2.175 4.787 3.929c1.172 1.754 1.798 3.816 1.798 5.926-0.003 2.828-1.128 5.539-3.128 7.539s-4.711 3.125-7.539 3.128z"></path>
</svg>
