<!-- Generated by IcoMoon.io -->
<svg version="1.1" xmlns="http://www.w3.org/2000/svg" width="32" height="32" viewBox="0 0 32 32">
<path d="M7.663 17.39c-2.204-1.425-3.663-3.904-3.663-6.723 0-4.418 3.582-8 8-8 3.728 0 6.86 2.55 7.748 6h3.252c2.761 0 5 2.239 5 5s-2.239 5-5 5h-12c-1.282 0-2.452-0.483-3.337-1.277zM12.043 25.99h2.609v2.677c0 0.368 0.298 0.667 0.667 0.667h1.364c0.368 0 0.667-0.298 0.667-0.667v-2.677h2.609c0.368 0 0.667-0.298 0.667-0.667 0-0.158-0.056-0.31-0.158-0.431l-3.957-4.674c-0.238-0.281-0.659-0.316-0.94-0.078-0.028 0.024-0.054 0.050-0.078 0.078l-3.957 4.674c-0.238 0.281-0.203 0.702 0.078 0.94 0.12 0.102 0.273 0.158 0.431 0.158z"></path>
</svg>
