<!-- Generated by IcoMoon.io -->
<svg version="1.1" xmlns="http://www.w3.org/2000/svg" width="32" height="32" viewBox="0 0 32 32">
<path d="M12 20h-2c-1.105 0-2 0.895-2 2s0.895 2 2 2c1.105 0 2-0.895 2-2v-2zM12 20v-8h8v8h-8zM20 22c0 1.105 0.895 2 2 2s2-0.895 2-2c0-1.105-0.895-2-2-2h-2v2zM22 12c1.105 0 2-0.895 2-2s-0.895-2-2-2c-1.105 0-2 0.895-2 2v2h2zM12 10c0-1.105-0.895-2-2-2s-2 0.895-2 2c0 1.105 0.895 2 2 2h2v-2zM14.667 17.333h2.667v-2.667h-2.667v2.667zM17.333 14.667v-4.667c0-2.577 2.089-4.667 4.667-4.667s4.667 2.089 4.667 4.667c0 2.577-2.089 4.667-4.667 4.667h-4.667zM22 17.333c2.577 0 4.667 2.089 4.667 4.667s-2.089 4.667-4.667 4.667c-2.577 0-4.667-2.089-4.667-4.667v-4.667h4.667zM14.667 22c0 2.577-2.089 4.667-4.667 4.667s-4.667-2.089-4.667-4.667c0-2.577 2.089-4.667 4.667-4.667h4.667v4.667zM10 14.667c-2.577 0-4.667-2.089-4.667-4.667s2.089-4.667 4.667-4.667c2.577 0 4.667 2.089 4.667 4.667v4.667h-4.667z"></path>
</svg>
