<!-- Generated by IcoMoon.io -->
<svg version="1.1" xmlns="http://www.w3.org/2000/svg" width="32" height="32" viewBox="0 0 32 32">
<path d="M20.362 11.581c-0.505-0.536-0.479-1.38 0.057-1.885s1.38-0.479 1.885 0.057l5.333 5.667c0.483 0.513 0.483 1.314 0 1.828l-5.333 5.667c-0.505 0.536-1.349 0.562-1.885 0.057s-0.562-1.349-0.057-1.885l4.473-4.753-4.473-4.753zM11.638 11.581l-4.473 4.753 4.473 4.753c0.505 0.536 0.479 1.38-0.057 1.885s-1.38 0.479-1.885-0.057l-5.333-5.667c-0.483-0.513-0.483-1.314 0-1.828l5.333-5.667c0.505-0.536 1.349-0.562 1.885-0.057s0.562 1.349 0.057 1.885z"></path>
</svg>
