<!-- Generated by IcoMoon.io -->
<svg version="1.1" xmlns="http://www.w3.org/2000/svg" width="32" height="32" viewBox="0 0 32 32">
<path d="M11.201 22.667h-4.535c-2.209 0-4-2.458-4-4.667s1.791-4.667 4-4.667h1.333v-2.667h20v4.667c0 5.523-4.477 10-10 10-2.625 0-5.015-1.012-6.799-2.667zM9.153 20c-0.639-1.208-1.037-2.563-1.132-4h-1.355c-0.736 0-1.333 1.264-1.333 2s0.597 2 1.333 2h2.487zM9.333 28h17.333c0.736 0 1.333 0.597 1.333 1.333s-0.597 1.333-1.333 1.333h-17.333c-0.736 0-1.333-0.597-1.333-1.333s0.597-1.333 1.333-1.333zM10.821 0l1.543 1.537c-1.141 1.145-1.137 2.998 0.009 4.139 0.098 0.098 0.203 0.188 0.314 0.271l0.647 0.483-1.303 1.745-0.647-0.483c-0.193-0.144-0.376-0.302-0.547-0.473-1.998-1.989-2.004-5.222-0.015-7.219zM17.488 1.333l1.543 1.537c-1.141 1.145-1.137 2.998 0.009 4.139 0.098 0.098 0.203 0.188 0.314 0.271l0.647 0.483-1.303 1.745-0.647-0.483c-0.193-0.144-0.376-0.302-0.547-0.473-1.998-1.989-2.004-5.222-0.015-7.219zM24.154 0l1.543 1.537c-1.141 1.145-1.137 2.998 0.009 4.139 0.098 0.098 0.203 0.188 0.314 0.271l0.647 0.483-1.303 1.745-0.647-0.483c-0.193-0.144-0.376-0.302-0.547-0.473-1.998-1.989-2.004-5.222-0.015-7.219z"></path>
</svg>
