<!-- Generated by IcoMoon.io -->
<svg version="1.1" xmlns="http://www.w3.org/2000/svg" width="32" height="32" viewBox="0 0 32 32">
<path d="M10.667 5.333h17.333c0.736 0 1.333 0.597 1.333 1.333v14.667c0 2.946-2.388 5.333-5.333 5.333h-9.333c-2.946 0-5.333-2.388-5.333-5.333v-14.667c0-0.736 0.597-1.333 1.333-1.333zM9.333 9.333v2.667h-2.667c-0.736 0-1.333 0.597-1.333 1.333v2.667c0 0.736 0.597 1.333 1.333 1.333h2.667v2.667h-2.667c-2.209 0-4-1.791-4-4v-2.667c0-2.209 1.791-4 4-4h2.667zM25.333 9.333c0.736 0 1.333 0.597 1.333 1.333v8c0 0.736-0.597 1.333-1.333 1.333s-1.333-0.597-1.333-1.333v-8c0-0.736 0.597-1.333 1.333-1.333z"></path>
</svg>
