<!-- Generated by IcoMoon.io -->
<svg version="1.1" xmlns="http://www.w3.org/2000/svg" width="32" height="32" viewBox="0 0 32 32">
<path d="M27.48 25.587c0.836-1.12 1.409-2.414 1.678-3.785s0.226-2.785-0.124-4.138c-0.351-1.353-1.001-2.609-1.902-3.677s-2.031-1.92-3.305-2.493c-0.278-1.597-0.916-3.11-1.866-4.424s-2.187-2.394-3.617-3.158c-1.43-0.764-3.015-1.192-4.635-1.252s-3.232 0.251-4.714 0.908-2.795 1.643-3.839 2.883c-1.044 1.24-1.791 2.702-2.185 4.275s-0.425 3.214-0.089 4.8c0.335 1.586 1.028 3.075 2.025 4.353l-1.853 1.84c-0.185 0.187-0.31 0.426-0.36 0.684s-0.022 0.526 0.080 0.769c0.1 0.243 0.27 0.452 0.488 0.599s0.475 0.226 0.738 0.228h7.587c0.756 1.593 1.947 2.939 3.436 3.883s3.215 1.447 4.978 1.451h8c0.263-0.001 0.52-0.081 0.739-0.228s0.388-0.355 0.488-0.599c0.102-0.243 0.13-0.511 0.080-0.769s-0.175-0.497-0.36-0.684l-1.467-1.467zM10.667 20c0.002 0.446 0.037 0.892 0.107 1.333h-3.56l0.467-0.453c0.125-0.124 0.224-0.271 0.292-0.434s0.103-0.337 0.103-0.513c0-0.176-0.035-0.35-0.103-0.513s-0.167-0.31-0.292-0.434c-0.747-0.739-1.34-1.62-1.743-2.59s-0.608-2.012-0.604-3.063c0-2.122 0.843-4.157 2.343-5.657s3.535-2.343 5.657-2.343c1.656-0.010 3.273 0.499 4.624 1.456s2.369 2.313 2.909 3.877c-0.293 0-0.573 0-0.867 0-2.475 0-4.849 0.983-6.6 2.734s-2.734 4.124-2.734 6.6zM24.72 26.667l0.067 0.067h-4.787c-1.542-0.003-3.036-0.54-4.226-1.521s-2.004-2.343-2.303-3.856-0.063-3.083 0.666-4.442c0.729-1.359 1.907-2.423 3.333-3.011s3.011-0.664 4.486-0.214c1.475 0.45 2.749 1.397 3.604 2.681s1.239 2.824 1.085 4.358c-0.153 1.535-0.834 2.969-1.926 4.058-0.251 0.246-0.395 0.582-0.4 0.933 0.001 0.176 0.036 0.351 0.105 0.513s0.169 0.31 0.295 0.433z"></path>
</svg>
