<!-- Generated by IcoMoon.io -->
<svg version="1.1" xmlns="http://www.w3.org/2000/svg" width="32" height="32" viewBox="0 0 32 32">
<path d="M27.333 14.667h2.667c1.105 0 2 0.895 2 2s-0.895 2-2 2h-2.667c-1.105 0-2-0.895-2-2s0.895-2 2-2zM2 14.667h2.667c1.105 0 2 0.895 2 2s-0.895 2-2 2h-2.667c-1.105 0-2-0.895-2-2s0.895-2 2-2zM16 21.333c2.209 0 4-1.791 4-4s-1.791-4-4-4c-2.209 0-4 1.791-4 4s1.791 4 4 4zM16 24c-3.682 0-6.667-2.985-6.667-6.667s2.985-6.667 6.667-6.667c3.682 0 6.667 2.985 6.667 6.667s-2.985 6.667-6.667 6.667z"></path>
</svg>
