<!-- Generated by IcoMoon.io -->
<svg version="1.1" xmlns="http://www.w3.org/2000/svg" width="32" height="32" viewBox="0 0 32 32">
<path d="M16 2.667c-1.751 0-3.485 0.345-5.102 1.015s-3.088 1.652-4.326 2.89c-2.5 2.501-3.905 5.892-3.905 9.428-0.012 3.079 1.054 6.065 3.013 8.44l-2.667 2.667c-0.185 0.187-0.31 0.426-0.36 0.684s-0.022 0.526 0.080 0.769c0.111 0.24 0.29 0.441 0.516 0.579s0.487 0.205 0.751 0.194h12c3.536 0 6.928-1.405 9.428-3.905s3.905-5.892 3.905-9.428-1.405-6.928-3.905-9.428c-2.501-2.5-5.892-3.905-9.428-3.905zM16 26.667h-8.787l1.24-1.24c0.248-0.25 0.388-0.588 0.388-0.94s-0.139-0.69-0.388-0.94c-1.746-1.744-2.833-4.039-3.076-6.495s0.372-4.92 1.742-6.972 3.409-3.567 5.77-4.285c2.361-0.718 4.898-0.595 7.178 0.348s4.163 2.647 5.328 4.823c1.165 2.175 1.539 4.687 1.060 7.108s-1.784 4.6-3.69 6.167c-1.906 1.567-4.297 2.424-6.765 2.426z"></path>
</svg>
