<!-- Generated by IcoMoon.io -->
<svg version="1.1" xmlns="http://www.w3.org/2000/svg" width="32" height="32" viewBox="0 0 32 32">
<path d="M25.333 18.667c-0.17-0.044-0.347-0.054-0.521-0.030s-0.341 0.083-0.492 0.172c-0.151 0.089-0.283 0.207-0.388 0.348s-0.182 0.3-0.226 0.47c-0.51 2.011-1.675 3.795-3.313 5.070s-3.652 1.968-5.727 1.97h-7.453l0.853-0.84c0.248-0.25 0.388-0.588 0.388-0.94s-0.139-0.69-0.388-0.94c-1.31-1.305-2.203-2.969-2.566-4.782s-0.179-3.693 0.528-5.401c0.707-1.708 1.905-3.168 3.443-4.194s3.346-1.573 5.195-1.57c0.354 0 0.693-0.14 0.943-0.391s0.391-0.589 0.391-0.943-0.14-0.693-0.391-0.943c-0.25-0.25-0.589-0.391-0.943-0.391-2.257 0.007-4.466 0.651-6.373 1.857s-3.436 2.925-4.411 4.961c-0.975 2.035-1.355 4.304-1.099 6.547s1.14 4.366 2.549 6.129l-2.28 2.227c-0.185 0.187-0.31 0.426-0.36 0.684s-0.022 0.526 0.080 0.769c0.1 0.243 0.27 0.452 0.488 0.599s0.475 0.226 0.738 0.228h10.667c2.662 0.002 5.248-0.882 7.353-2.511s3.608-3.912 4.273-6.489c0.050-0.173 0.065-0.353 0.043-0.532s-0.079-0.351-0.168-0.506c-0.090-0.156-0.21-0.292-0.353-0.4s-0.307-0.186-0.482-0.229zM28.947 7.013l-4-4c-0.127-0.121-0.276-0.217-0.44-0.28-0.325-0.133-0.689-0.133-1.013 0-0.164 0.063-0.313 0.159-0.44 0.28l-4 4c-0.251 0.251-0.392 0.592-0.392 0.947s0.141 0.696 0.392 0.947c0.251 0.251 0.592 0.392 0.947 0.392s0.696-0.141 0.947-0.392l1.72-1.693v7.453c0 0.354 0.141 0.693 0.391 0.943s0.589 0.391 0.943 0.391c0.354 0 0.693-0.141 0.943-0.391s0.391-0.589 0.391-0.943v-7.453l1.72 1.733c0.124 0.125 0.271 0.224 0.434 0.292s0.337 0.103 0.513 0.103 0.35-0.035 0.513-0.103c0.163-0.068 0.31-0.167 0.434-0.292 0.125-0.124 0.224-0.271 0.292-0.434s0.103-0.337 0.103-0.513c0-0.176-0.035-0.35-0.103-0.513s-0.167-0.31-0.292-0.434v-0.040z"></path>
</svg>
