<!-- Generated by IcoMoon.io -->
<svg version="1.1" xmlns="http://www.w3.org/2000/svg" width="32" height="32" viewBox="0 0 32 32">
<path d="M14 7.333c-0.354 0-0.693 0.14-0.943 0.391s-0.391 0.589-0.391 0.943v2.12l-7.72-7.733c-0.124-0.124-0.272-0.223-0.434-0.29s-0.337-0.102-0.512-0.102c-0.176 0-0.35 0.035-0.512 0.102s-0.31 0.166-0.434 0.29c-0.251 0.251-0.392 0.592-0.392 0.947s0.141 0.696 0.392 0.947l7.733 7.72h-2.12c-0.354 0-0.693 0.14-0.943 0.391s-0.391 0.589-0.391 0.943c0 0.354 0.14 0.693 0.391 0.943s0.589 0.391 0.943 0.391h5.333c0.174-0.002 0.346-0.038 0.507-0.107 0.326-0.135 0.585-0.394 0.72-0.72 0.068-0.16 0.105-0.332 0.107-0.507v-5.333c0-0.354-0.14-0.693-0.391-0.943s-0.589-0.391-0.943-0.391zM28.947 27.053l-7.733-7.72h2.12c0.354 0 0.693-0.14 0.943-0.391s0.391-0.589 0.391-0.943c0-0.354-0.14-0.693-0.391-0.943s-0.589-0.391-0.943-0.391h-5.333c-0.174 0.002-0.346 0.038-0.507 0.107-0.326 0.135-0.585 0.394-0.72 0.72-0.068 0.16-0.105 0.333-0.107 0.507v5.333c0 0.354 0.141 0.693 0.391 0.943s0.589 0.391 0.943 0.391c0.354 0 0.693-0.14 0.943-0.391s0.391-0.589 0.391-0.943v-2.12l7.72 7.733c0.124 0.125 0.271 0.224 0.434 0.292s0.337 0.103 0.513 0.103c0.176 0 0.35-0.035 0.513-0.103s0.31-0.167 0.434-0.292c0.125-0.124 0.224-0.271 0.292-0.434s0.103-0.337 0.103-0.513c0-0.176-0.035-0.35-0.103-0.513s-0.167-0.31-0.292-0.434z"></path>
</svg>
