<!-- Generated by IcoMoon.io -->
<svg version="1.1" xmlns="http://www.w3.org/2000/svg" width="32" height="32" viewBox="0 0 32 32">
<path d="M16 28c-6.627 0-12-5.373-12-12s5.373-12 12-12c6.627 0 12 5.373 12 12s-5.373 12-12 12zM18.887 9.806l-6.073 4.010c-0.175 0.116-0.286 0.307-0.298 0.516l-0.436 7.265c-0.022 0.368 0.258 0.683 0.626 0.705 0.144 0.009 0.287-0.030 0.407-0.109l6.073-4.010c0.175-0.116 0.286-0.307 0.298-0.516l0.436-7.265c0.022-0.368-0.258-0.683-0.626-0.705-0.144-0.009-0.287 0.030-0.407 0.109z"></path>
</svg>
