<!-- Generated by IcoMoon.io -->
<svg version="1.1" xmlns="http://www.w3.org/2000/svg" width="32" height="32" viewBox="0 0 32 32">
<path d="M9.437 16.405c0.863 1.023 1.951 1.851 3.188 2.405l-5.957 11.856-0.667-6.667 3.437-7.595zM19.449 19.013c1.261-0.477 2.385-1.231 3.3-2.187l3.251 7.174-0.667 6.667-5.885-11.654zM16 0c1.105 0 2 0.895 2 2v3.333h-4v-3.333c0-1.105 0.895-2 2-2zM16 13.333c1.473 0 2.667-1.194 2.667-2.667s-1.194-2.667-2.667-2.667c-1.473 0-2.667 1.194-2.667 2.667s1.194 2.667 2.667 2.667zM16 17.333c-3.682 0-6.667-2.985-6.667-6.667s2.985-6.667 6.667-6.667c3.682 0 6.667 2.985 6.667 6.667s-2.985 6.667-6.667 6.667z"></path>
</svg>
