<!-- Generated by IcoMoon.io -->
<svg version="1.1" xmlns="http://www.w3.org/2000/svg" width="32" height="32" viewBox="0 0 32 32">
<path d="M28.947 3.053c-0.124-0.125-0.271-0.224-0.434-0.292s-0.337-0.103-0.513-0.103c-0.176 0-0.35 0.035-0.513 0.103s-0.31 0.167-0.434 0.292l-7.72 7.733v-2.12c0-0.354-0.14-0.693-0.391-0.943s-0.589-0.391-0.943-0.391c-0.354 0-0.693 0.14-0.943 0.391s-0.391 0.589-0.391 0.943v5.333c0.002 0.174 0.038 0.346 0.107 0.507 0.135 0.326 0.394 0.585 0.72 0.72 0.16 0.068 0.333 0.105 0.507 0.107h5.333c0.354 0 0.693-0.14 0.943-0.391s0.391-0.589 0.391-0.943c0-0.354-0.14-0.693-0.391-0.943s-0.589-0.391-0.943-0.391h-2.12l7.733-7.72c0.125-0.124 0.224-0.271 0.292-0.434s0.103-0.337 0.103-0.513-0.035-0.35-0.103-0.513c-0.068-0.162-0.167-0.31-0.292-0.434zM14.507 16.773c-0.16-0.068-0.332-0.105-0.507-0.107h-5.333c-0.354 0-0.693 0.141-0.943 0.391s-0.391 0.589-0.391 0.943c0 0.354 0.14 0.693 0.391 0.943s0.589 0.391 0.943 0.391h2.12l-7.733 7.72c-0.125 0.124-0.224 0.271-0.292 0.434s-0.103 0.337-0.103 0.513c0 0.176 0.035 0.35 0.103 0.513s0.167 0.31 0.292 0.434c0.124 0.125 0.271 0.224 0.434 0.292s0.337 0.103 0.513 0.103 0.35-0.035 0.513-0.103c0.162-0.068 0.31-0.167 0.434-0.292l7.72-7.733v2.12c0 0.354 0.14 0.693 0.391 0.943s0.589 0.391 0.943 0.391c0.354 0 0.693-0.14 0.943-0.391s0.391-0.589 0.391-0.943v-5.333c-0.002-0.174-0.038-0.346-0.107-0.507-0.135-0.326-0.394-0.585-0.72-0.72z"></path>
</svg>
