<!-- Generated by IcoMoon.io -->
<svg version="1.1" xmlns="http://www.w3.org/2000/svg" width="32" height="32" viewBox="0 0 32 32">
<path d="M29.333 16c0 7.364-5.97 13.333-13.333 13.333s-13.333-5.97-13.333-13.333c0-7.364 5.97-13.333 13.333-13.333s13.333 5.97 13.333 13.333zM16 14.667c-1.473 0-2.667-1.194-2.667-2.667s1.194-2.667 2.667-2.667c1.473 0 2.667 1.194 2.667 2.667s-1.194 2.667-2.667 2.667zM9.334 21.999c0.287-3.977 3.156-5.999 6.654-5.999 3.547 0 6.46 1.911 6.677 6 0.009 0.163 0 0.667-0.556 0.667h-12.236c-0.186 0-0.554-0.451-0.538-0.667z"></path>
</svg>
