<svg width="8" height="8" viewBox="0 0 8 8" fill="none" xmlns="http://www.w3.org/2000/svg">
<g clip-path="url(#clip0_201_17461)">
<path d="M5.67816 6.22724H2.62379V2.33985H5.67816V6.22724ZM5.67816 1.78451H2.62379C2.4765 1.78451 2.33525 1.84302 2.2311 1.94717C2.12696 2.05131 2.06845 2.19257 2.06845 2.33985V6.22724C2.06845 6.37453 2.12696 6.51578 2.2311 6.61993C2.33525 6.72407 2.4765 6.78258 2.62379 6.78258H5.67816C5.82545 6.78258 5.9667 6.72407 6.07085 6.61993C6.175 6.51578 6.23351 6.37453 6.23351 6.22724V2.33985C6.23351 2.19257 6.175 2.05131 6.07085 1.94717C5.9667 1.84302 5.82545 1.78451 5.67816 1.78451ZM4.84515 0.673828H1.5131C1.36582 0.673828 1.22457 0.732337 1.12042 0.836484C1.01627 0.940631 0.957764 1.08188 0.957764 1.22917V5.11656H1.5131V1.22917H4.84515V0.673828Z" fill="black"/>
</g>
<defs>
<clipPath id="clip0_201_17461">
<rect width="6.6641" height="6.6641" fill="white" transform="translate(0.402344 0.395508)"/>
</clipPath>
</defs>
</svg>
