<!-- Generated by IcoMoon.io -->
<svg version="1.1" xmlns="http://www.w3.org/2000/svg" width="32" height="32" viewBox="0 0 32 32">
<path d="M8 26.667h-2.667c0-3.682 2.985-5.333 6.667-5.333h8c3.682 0 6.667 1.651 6.667 5.333h-2.667c0-2.209-1.791-2.667-4-2.667h-8c-2.209 0-4 0.458-4 2.667zM30.667 10.667h-2.435c-1.473 0-2.667 1.194-2.667 2.667v2.667c0 0.736-0.597 1.333-1.333 1.333h-16.406c-0.736 0-1.333-0.597-1.333-1.333v-2.667c0-1.473-1.194-2.667-2.667-2.667h-2.493c0-2.209 1.791-4 4-4h21.333c2.209 0 4 1.791 4 4zM30.667 13.333v6.667c0 2.209-1.791 4-4 4h-21.333c-2.209 0-4-1.791-4-4v-6.667h2.493v2.667c0 2.209 1.791 4 4 4h16.406c2.209 0 4-1.791 4-4v-2.667h2.435z"></path>
</svg>
