<?xml version="1.0" ?>
<!-- Uploaded to: SVG Repo, www.svgrepo.com, Generator: SVG Repo Mixer Tools -->
<svg fill="#000000" width="800px" height="800px" viewBox="0 0 24 24" xmlns="http://www.w3.org/2000/svg">
<title/>
<g data-name="Layer 2" id="Layer_2">
<path d="M19,2H5V5H2V9a4,4,0,0,0,3.41,3.94,5,5,0,0,0,3.43,2.92L8.15,20H6v2H18V20H15.85l-.69-4.14a5,5,0,0,0,3.43-2.92A4,4,0,0,0,22,9V5H19ZM4,9V7H5v3.73A2,2,0,0,1,4,9Zm10,5H12.82l1,6H10.18l1-6H10a3,3,0,0,1-3-3V4H17v7A3,3,0,0,1,14,14Zm6-7V9a2,2,0,0,1-1,1.73V7Z"/>
<path d="M12,6a3,3,0,1,0,3,3A3,3,0,0,0,12,6Zm0,4a1,1,0,1,1,1-1A1,1,0,0,1,12,10Z"/>
</g>
</svg>