<!-- Generated by IcoMoon.io -->
<svg version="1.1" xmlns="http://www.w3.org/2000/svg" width="32" height="32" viewBox="0 0 32 32">
<path d="M29.309 10.919c-0.068 0.356-0.28 0.685-0.623 0.891l-6.667 4c-0.207 0.124-0.444 0.19-0.686 0.19h-10.667c-0.242 0-0.479-0.066-0.686-0.19l-6.667-4c-0.343-0.206-0.555-0.536-0.623-0.891l-1.331-6.657c-0.144-0.722 0.324-1.425 1.046-1.569s1.425 0.324 1.569 1.046l0.845 4.224 3.572-3.572c0.521-0.521 1.365-0.521 1.886 0s0.521 1.365 0 1.886l-4.126 4.126 4.886 2.931h9.928l4.886-2.931-4.126-4.126c-0.521-0.521-0.521-1.365 0-1.886s1.365-0.521 1.886 0l3.572 3.572 0.845-4.224c0.144-0.722 0.847-1.19 1.569-1.046s1.19 0.847 1.046 1.569l-1.331 6.657zM20.070 11.859c-0.659-0.329-0.926-1.13-0.596-1.789s1.13-0.926 1.789-0.596l4 2c0.941 0.471 0.992 1.795 0.090 2.336l-3.333 2c-0.207 0.124-0.444 0.19-0.686 0.19h-10.667c-0.242 0-0.479-0.066-0.686-0.19l-3.333-2c-0.863-0.518-0.863-1.769 0-2.287l3.333-2c0.631-0.379 1.45-0.174 1.829 0.457s0.174 1.45-0.457 1.829l-1.428 0.857 1.111 0.667h9.928l0.934-0.56-1.828-0.914zM13.141 13.333h5.719c1.473 0 2.667 1.194 2.667 2.667 0 0.311-0.054 0.619-0.161 0.911l-3.577 9.836c-0.274 0.752-0.988 1.253-1.789 1.253v0c-0.8 0-1.515-0.501-1.789-1.253l-3.577-9.836c-0.503-1.384 0.211-2.914 1.595-3.417 0.292-0.106 0.601-0.161 0.911-0.161z"></path>
</svg>
