<!-- Generated by IcoMoon.io -->
<svg version="1.1" xmlns="http://www.w3.org/2000/svg" width="32" height="32" viewBox="0 0 32 32">
<path d="M20 13.333v12l-1.537 0.512c-1.631 0.544-3.34 0.821-5.060 0.821h-4.791c-1.907 0-3.548-1.346-3.922-3.216l-0.999-4.995c-0.433-2.166 0.972-4.274 3.138-4.707 0.346-0.069 0.699-0.092 1.051-0.069l4.787 0.319-0.486-5.342c-0.091-1.005 0.649-1.893 1.654-1.984 0.055-0.005 0.11-0.008 0.165-0.008v0c1.241 0 2.391 0.651 3.029 1.715l2.971 4.952zM28 12h-4c-0.736 0-1.333 0.597-1.333 1.333v12c0 0.736 0.597 1.333 1.333 1.333h4c0.736 0 1.333-0.597 1.333-1.333v-12c0-0.736-0.597-1.333-1.333-1.333z"></path>
</svg>
