<!-- Generated by IcoMoon.io -->
<svg version="1.1" xmlns="http://www.w3.org/2000/svg" width="32" height="32" viewBox="0 0 32 32">
<path d="M9.333 6.526v21.474h-2.667v-24h8v2.526zM13.571 2.997l10.667 1.933c0.634 0.115 1.096 0.667 1.096 1.312v19.517c0 0.645-0.461 1.197-1.096 1.312l-10.667 1.933c-0.725 0.131-1.418-0.35-1.55-1.074-0.014-0.078-0.021-0.158-0.021-0.238v-23.383c0-0.736 0.597-1.333 1.333-1.333 0.080 0 0.159 0.007 0.238 0.021zM15.889 17.208c0.92 0 1.667-0.811 1.667-1.812s-0.746-1.812-1.667-1.812c-0.92 0-1.667 0.811-1.667 1.812s0.746 1.812 1.667 1.812z"></path>
</svg>
