<!-- Generated by IcoMoon.io -->
<svg version="1.1" xmlns="http://www.w3.org/2000/svg" width="32" height="32" viewBox="0 0 32 32">
<path d="M22.128 22.795c-0.521 0.521-1.365 0.521-1.886 0l-11.314-11.314c-0.521-0.521-0.521-1.365 0-1.886s1.365-0.521 1.886 0l11.314 11.314c0.521 0.521 0.521 1.365 0 1.886zM20.795 11.481c0-0.736 0.597-1.333 1.333-1.333s1.333 0.597 1.333 1.333v11.314c0 0.714-0.562 1.301-1.275 1.332l-10.842 0.471c-0.736 0.032-1.358-0.538-1.39-1.274s0.538-1.358 1.274-1.39l9.567-0.416v-10.037z"></path>
</svg>
