<!-- Generated by IcoMoon.io -->
<svg version="1.1" xmlns="http://www.w3.org/2000/svg" width="32" height="32" viewBox="0 0 32 32">
<path d="M9.872 22.795c-0.521-0.521-0.521-1.365 0-1.886l11.314-11.314c0.521-0.521 1.365-0.521 1.886 0s0.521 1.365 0 1.886l-11.314 11.314c-0.521 0.521-1.365 0.521-1.886 0zM21.185 21.462c0.736 0 1.333 0.597 1.333 1.333s-0.597 1.333-1.333 1.333h-11.314c-0.714 0-1.301-0.562-1.332-1.275l-0.471-10.842c-0.032-0.736 0.538-1.358 1.274-1.39s1.358 0.538 1.39 1.274l0.416 9.567h10.037z"></path>
</svg>
