<!-- Generated by IcoMoon.io -->
<svg version="1.1" xmlns="http://www.w3.org/2000/svg" width="32" height="32" viewBox="0 0 32 32">
<path d="M28 16c0 6.627-5.373 12-12 12s-12-5.373-12-12c0-6.627 5.373-12 12-12s12 5.373 12 12zM15.648 27.995c-6.464-0.186-11.648-5.485-11.648-11.995 0-0.111 0.002-0.221 0.005-0.332 0.879 0.084 2.471 0.275 2.546 0.892 0.104 0.854 0 1.922 0.727 2.242s0.935-1.281 1.558-0.854c0.623 0.427 2.286 0.838 2.286 1.593s-0.312 1.93 0 2.143 1.557 1.708 1.558 1.922c0 0.214 0.439 1.299 0.308 1.714-0.108 0.344-0.656 1.413-1.186 1.899 1.203 0.463 2.497 0.735 3.847 0.775v0zM11.044 5.068c1.511-0.686 3.189-1.068 4.956-1.068 4.682 0 8.738 2.681 10.715 6.592 0.044 1.040 0.037 1.93 0.266 2.252 1.169 1.636-2.849 2.762-2.238 5.237 0.269 1.092-2.673 0.746-3.391 1.768s-2.475 0.335-2.883 0.139-1.967 0.458-1.831-0.655c0.136-1.113 1.084-1.179 2.102-1.637s2.484-1.98 1.764-2.179c-3.395-0.936-4.553-4.213-4.553-4.213-0.204-0.039-0.153-2.317-1.034-2.382s-1.357 0.262-2.645 0c-1.289-0.262-1.017-1.113-1.221-2.946-0.046-0.411-0.043-0.701-0.008-0.909zM27.999 15.836c0.001 0.055 0.001 0.109 0.001 0.164 0 6.588-5.308 11.935-11.881 11.999 6.508-0.066 11.792-5.482 11.88-12.163z"></path>
</svg>
