<!-- Generated by IcoMoon.io -->
<svg version="1.1" xmlns="http://www.w3.org/2000/svg" width="32" height="32" viewBox="0 0 32 32">
<path d="M16 9.333c0.527 0 1.043-0.156 1.481-0.449s0.78-0.71 0.982-1.197c0.202-0.487 0.255-1.023 0.152-1.541s-0.357-0.992-0.73-1.365-0.848-0.627-1.365-0.73c-0.517-0.103-1.053-0.050-1.541 0.152s-0.904 0.544-1.197 0.982c-0.293 0.439-0.449 0.954-0.449 1.482 0 0.707 0.281 1.386 0.781 1.886s1.178 0.781 1.886 0.781zM16 22.667c-0.527 0-1.043 0.156-1.481 0.449s-0.78 0.709-0.982 1.197c-0.202 0.487-0.255 1.023-0.152 1.541s0.357 0.992 0.73 1.365 0.848 0.627 1.365 0.73c0.517 0.103 1.053 0.050 1.541-0.152s0.904-0.544 1.197-0.982c0.293-0.439 0.449-0.954 0.449-1.481 0-0.707-0.281-1.385-0.781-1.886s-1.178-0.781-1.886-0.781zM16 13.333c-0.527 0-1.043 0.156-1.481 0.449s-0.78 0.709-0.982 1.197c-0.202 0.487-0.255 1.023-0.152 1.541s0.357 0.992 0.73 1.365 0.848 0.627 1.365 0.73c0.517 0.103 1.053 0.050 1.541-0.152s0.904-0.544 1.197-0.982c0.293-0.439 0.449-0.954 0.449-1.481 0-0.707-0.281-1.385-0.781-1.886s-1.178-0.781-1.886-0.781z"></path>
</svg>
