<!-- Generated by IcoMoon.io -->
<svg version="1.1" xmlns="http://www.w3.org/2000/svg" width="32" height="32" viewBox="0 0 32 32">
<path d="M19.333 5.333c1.105 0 2 0.895 2 2v17.333c0 1.105-0.895 2-2 2s-2-0.895-2-2v-17.333c0-1.105 0.895-2 2-2zM12.667 12c1.105 0 2 0.895 2 2v10.667c0 1.105-0.895 2-2 2s-2-0.895-2-2v-10.667c0-1.105 0.895-2 2-2zM26 14.667c1.105 0 2 0.895 2 2v8c0 1.105-0.895 2-2 2s-2-0.895-2-2v-8c0-1.105 0.895-2 2-2zM6 17.333c1.105 0 2 0.895 2 2v5.333c0 1.105-0.895 2-2 2s-2-0.895-2-2v-5.333c0-1.105 0.895-2 2-2z"></path>
</svg>
