<!-- Generated by IcoMoon.io -->
<svg version="1.1" xmlns="http://www.w3.org/2000/svg" width="32" height="32" viewBox="0 0 32 32">
<path d="M5.816 13.702l0.667-1.333c0.113-0.226 0.344-0.369 0.596-0.369h13.176c0.368 0 0.667 0.298 0.667 0.667 0 0.104-0.024 0.206-0.070 0.298l-0.667 1.333c-0.113 0.226-0.344 0.369-0.596 0.369h-13.176c-0.368 0-0.667-0.298-0.667-0.667 0-0.104 0.024-0.206 0.070-0.298zM19.518 18.298l-0.667 1.333c-0.113 0.226-0.344 0.369-0.596 0.369h-11.843c-0.368 0-0.667-0.298-0.667-0.667 0-0.104 0.024-0.206 0.070-0.298l0.667-1.333c0.113-0.226 0.344-0.369 0.596-0.369h11.843c0.368 0 0.667 0.298 0.667 0.667 0 0.104-0.024 0.206-0.070 0.298zM23.159 10.157c-0.523-0.709-1.204-1.227-2.044-1.554s-1.661-0.49-2.464-0.49c-1.027 0-1.96 0.187-2.8 0.56s-1.563 0.887-2.17 1.54c-0.607 0.653-1.073 1.419-1.4 2.296s-0.49 1.829-0.49 2.856c0 1.083 0.159 2.072 0.476 2.968s0.77 1.666 1.358 2.31c0.588 0.644 1.293 1.143 2.114 1.498s1.745 0.532 2.772 0.532c1.064 0 2.007-0.21 2.828-0.63s1.484-0.975 1.988-1.666l2.828 1.988c-0.877 1.101-1.951 1.955-3.22 2.562s-2.753 0.91-4.452 0.91c-1.549 0-2.973-0.257-4.27-0.77s-2.413-1.232-3.346-2.156c-0.933-0.924-1.661-2.025-2.184-3.304s-0.784-2.693-0.784-4.242c0-1.587 0.275-3.019 0.826-4.298s1.307-2.366 2.268-3.262c0.961-0.896 2.095-1.587 3.402-2.072s2.725-0.728 4.256-0.728c0.635 0 1.297 0.061 1.988 0.182s1.353 0.308 1.988 0.56c0.635 0.252 1.232 0.565 1.792 0.938s1.036 0.821 1.428 1.344l-2.688 2.128z"></path>
</svg>
