<!-- Generated by IcoMoon.io -->
<svg version="1.1" xmlns="http://www.w3.org/2000/svg" width="32" height="32" viewBox="0 0 32 32">
<path d="M26 8.4h-6c-0.221 0-0.4-0.179-0.4-0.4v0-6c0-0.221 0.179-0.4 0.4-0.4s0.4 0.179 0.4 0.4v0 5.6h5.6c0.221 0 0.4 0.179 0.4 0.4s-0.179 0.4-0.4 0.4v0zM26 12.386c-0.221 0-0.4-0.179-0.4-0.4v0-3.821l-5.766-5.766h-11.834c-0.884 0-1.6 0.716-1.6 1.6v0 7.854c0 0.221-0.179 0.4-0.4 0.4s-0.4-0.179-0.4-0.4v0-7.854c0-1.325 1.075-2.4 2.4-2.4v0h12c0 0 0 0 0.001 0 0.11 0 0.21 0.045 0.282 0.117v0l6 6c0.072 0.072 0.117 0.172 0.117 0.282 0 0 0 0 0 0.001v-0 3.986c0 0.221-0.179 0.4-0.4 0.4v0zM24 30.4h-16c-1.325 0-2.4-1.075-2.4-2.4v0-6c0-0.221 0.179-0.4 0.4-0.4s0.4 0.179 0.4 0.4v0 6c0 0.884 0.716 1.6 1.6 1.6v0h16c0.884 0 1.6-0.716 1.6-1.6v0-6c0-0.221 0.179-0.4 0.4-0.4s0.4 0.179 0.4 0.4v0 6c0 1.325-1.075 2.4-2.4 2.4v0zM22 22.4h-12c-0.221 0-0.4-0.179-0.4-0.4s0.179-0.4 0.4-0.4v0h12c0.221 0 0.4 0.179 0.4 0.4s-0.179 0.4-0.4 0.4v0zM16 26.4h-6c-0.221 0-0.4-0.179-0.4-0.4s0.179-0.4 0.4-0.4v0h6c0.221 0 0.4 0.179 0.4 0.4s-0.179 0.4-0.4 0.4v0zM26 22.4h-20c-1.325 0-2.4-1.075-2.4-2.4v0-6.146c0-1.325 1.075-2.4 2.4-2.4v0h0.016l20 0.133c1.317 0.013 2.381 1.081 2.385 2.4v6.014c0 1.325-1.075 2.4-2.4 2.4-0 0-0.001 0-0.001 0h0zM6 12.254c-0.884 0-1.6 0.716-1.6 1.6v0 6.146c0 0.884 0.716 1.6 1.6 1.6v0h20c0.884 0 1.6-0.716 1.6-1.6v0-6.014c-0.003-0.879-0.712-1.592-1.59-1.6l-20.001-0.133zM12.195 18.88h-2.772v-4.266h2.744v0.634h-1.975v1.156h1.587v0.618h-1.587v1.194h2zM15.214 18.88h-0.814l-0.669-1.15-0.73 1.15h-0.613l1.051-1.625-0.91-1.531h0.816l0.518 0.928 0.59-0.928h0.597l-0.892 1.369zM17.392 17.721l0.613 0.062q-0.119 0.594-0.459 0.88c-0.213 0.176-0.488 0.283-0.788 0.283-0.013 0-0.026-0-0.039-0.001l0.002 0q-0.654 0-1.005-0.48c-0.22-0.307-0.352-0.691-0.352-1.106 0-0.022 0-0.043 0.001-0.065l-0 0.003q0-0.713 0.384-1.178c0.233-0.286 0.585-0.466 0.979-0.466 0.016 0 0.032 0 0.048 0.001l-0.002-0q1.031 0 1.228 1.087l-0.613 0.084q-0.080-0.587-0.578-0.587c-0.008-0-0.016-0.001-0.025-0.001-0.221 0-0.412 0.13-0.5 0.317l-0.001 0.003c-0.104 0.21-0.165 0.458-0.165 0.719 0 0.017 0 0.034 0.001 0.050l-0-0.002q0 0.48 0.17 0.738c0.096 0.157 0.267 0.26 0.461 0.26 0.007 0 0.013-0 0.020-0l-0.001 0q0.47-0.002 0.622-0.602zM20.56 17.874l0.64 0.087c-0.085 0.29-0.256 0.532-0.484 0.704l-0.003 0.002c-0.237 0.175-0.534 0.279-0.856 0.279-0.019 0-0.038-0-0.056-0.001l0.003 0q-0.656 0-1.056-0.441t-0.4-1.194q0-0.715 0.4-1.184t1.094-0.469q0.675 0 1.040 0.462t0.369 1.187v0.080h-2.161c-0 0.016-0.001 0.034-0.001 0.053 0 0.165 0.023 0.324 0.065 0.475l-0.003-0.012c0.046 0.138 0.129 0.253 0.238 0.336l0.002 0.001c0.117 0.090 0.266 0.144 0.428 0.144 0.009 0 0.017-0 0.026-0l-0.001 0q0.531 0.001 0.718-0.512zM20.516 16.93c0-0.008 0-0.018 0-0.027 0-0.205-0.078-0.392-0.206-0.533l0.001 0.001c-0.126-0.133-0.304-0.216-0.501-0.216-0.19 0-0.363 0.077-0.487 0.201l0-0c-0.136 0.151-0.222 0.35-0.231 0.569l-0 0.002zM22.617 18.88h-0.713v-4.266h0.713z"></path>
</svg>
