<!-- Generated by IcoMoon.io -->
<svg version="1.1" xmlns="http://www.w3.org/2000/svg" width="32" height="32" viewBox="0 0 32 32">
<path d="M9.333 8c0-0.736 0.597-1.333 1.333-1.333h13.333c0.736 0 1.333 0.597 1.333 1.333s-0.597 1.333-1.333 1.333h-13.333c-0.736 0-1.333-0.597-1.333-1.333zM12.943 11.057c0.521 0.521 0.521 1.365 0 1.886s-1.365 0.521-1.886 0l-4-4c-0.521-0.521-0.521-1.365 0-1.886l4-4c0.521-0.521 1.365-0.521 1.886 0s0.521 1.365 0 1.886l-3.057 3.057 3.057 3.057zM22.667 24c0-0.736-0.597-1.333-1.333-1.333h-13.333c-0.736 0-1.333 0.597-1.333 1.333s0.597 1.333 1.333 1.333h13.333c0.736 0 1.333-0.597 1.333-1.333zM19.057 27.057c-0.521 0.521-0.521 1.365 0 1.886s1.365 0.521 1.886 0l4-4c0.521-0.521 0.521-1.365 0-1.886l-4-4c-0.521-0.521-1.365-0.521-1.886 0s-0.521 1.365 0 1.886l3.057 3.057-3.057 3.057z"></path>
</svg>
