<!-- Generated by IcoMoon.io -->
<svg version="1.1" xmlns="http://www.w3.org/2000/svg" width="32" height="32" viewBox="0 0 32 32">
<path d="M16 9.333c-0.354 0-0.693 0.14-0.943 0.391s-0.391 0.589-0.391 0.943v5.333c0 0.354 0.141 0.693 0.391 0.943s0.589 0.391 0.943 0.391c0.354 0 0.693-0.141 0.943-0.391s0.391-0.589 0.391-0.943v-5.333c0-0.354-0.141-0.693-0.391-0.943s-0.589-0.391-0.943-0.391zM16 20c-0.264 0-0.521 0.078-0.741 0.225s-0.39 0.355-0.491 0.598-0.127 0.512-0.076 0.77c0.051 0.259 0.178 0.496 0.365 0.683s0.424 0.313 0.683 0.365 0.527 0.025 0.77-0.076c0.244-0.101 0.452-0.272 0.598-0.491s0.225-0.477 0.225-0.741c0-0.354-0.141-0.693-0.391-0.943s-0.589-0.391-0.943-0.391zM28.947 10.080l-7.027-7.027c-0.255-0.244-0.594-0.382-0.947-0.387h-9.947c-0.353 0.005-0.691 0.143-0.947 0.387l-7.027 7.027c-0.244 0.255-0.382 0.594-0.387 0.947v9.947c0.005 0.353 0.143 0.691 0.387 0.947l7.027 7.027c0.255 0.244 0.594 0.382 0.947 0.387h9.947c0.353-0.005 0.691-0.143 0.947-0.387l7.027-7.027c0.244-0.255 0.382-0.594 0.387-0.947v-9.947c-0.005-0.353-0.143-0.691-0.387-0.947zM26.667 20.413l-6.253 6.253h-8.827l-6.253-6.253v-8.827l6.253-6.253h8.827l6.253 6.253v8.827z"></path>
</svg>
