<!-- Generated by IcoMoon.io -->
<svg version="1.1" xmlns="http://www.w3.org/2000/svg" width="32" height="32" viewBox="0 0 32 32">
<path d="M16 18.667c-0.33 0-0.652 0.098-0.926 0.281s-0.488 0.443-0.614 0.748c-0.126 0.305-0.159 0.64-0.095 0.963s0.223 0.62 0.456 0.853 0.53 0.392 0.853 0.456c0.323 0.064 0.659 0.031 0.963-0.095s0.565-0.34 0.748-0.614c0.183-0.274 0.281-0.596 0.281-0.926 0-0.442-0.176-0.866-0.488-1.179s-0.737-0.488-1.179-0.488zM16 16.667c0.354 0 0.693-0.141 0.943-0.391s0.391-0.589 0.391-0.943v-4c0-0.354-0.141-0.693-0.391-0.943s-0.589-0.391-0.943-0.391c-0.354 0-0.693 0.14-0.943 0.391s-0.391 0.589-0.391 0.943v4c0 0.354 0.141 0.693 0.391 0.943s0.589 0.391 0.943 0.391zM16 2.667c-2.637 0-5.215 0.782-7.408 2.247s-3.902 3.547-4.911 5.984c-1.009 2.436-1.273 5.117-0.759 7.704s1.784 4.962 3.649 6.827c1.865 1.865 4.24 3.135 6.827 3.649s5.267 0.25 7.704-0.759c2.436-1.009 4.519-2.718 5.984-4.911s2.247-4.771 2.247-7.408c-0.004-3.535-1.41-6.924-3.91-9.424s-5.889-3.906-9.424-3.91zM16 26.667c-2.11 0-4.172-0.626-5.926-1.798s-3.121-2.838-3.929-4.787-1.019-4.094-0.607-6.163c0.412-2.069 1.427-3.97 2.919-5.462s3.392-2.508 5.462-2.919c2.069-0.412 4.214-0.2 6.163 0.607s3.615 2.175 4.787 3.929c1.172 1.754 1.798 3.816 1.798 5.926-0.003 2.828-1.128 5.539-3.128 7.539s-4.711 3.125-7.539 3.128z"></path>
</svg>
