<!-- Generated by IcoMoon.io -->
<svg version="1.1" xmlns="http://www.w3.org/2000/svg" width="32" height="32" viewBox="0 0 32 32">
<path d="M14.587 8.107c0.468-0.072 0.94-0.107 1.413-0.107 4.24 0 8.227 3.053 10.547 8-0.355 0.753-0.755 1.483-1.2 2.187-0.141 0.218-0.215 0.473-0.213 0.733 0.003 0.291 0.101 0.573 0.279 0.803s0.427 0.395 0.708 0.471c0.281 0.076 0.579 0.057 0.849-0.053s0.496-0.305 0.644-0.555c0.621-0.976 1.161-2.002 1.613-3.067 0.072-0.166 0.109-0.346 0.109-0.527s-0.037-0.36-0.109-0.527c-2.693-6.253-7.76-10.133-13.227-10.133-0.626-0.003-1.251 0.050-1.867 0.16-0.175 0.030-0.343 0.094-0.493 0.188s-0.281 0.218-0.383 0.363c-0.103 0.145-0.176 0.309-0.216 0.482s-0.045 0.352-0.015 0.527c0.030 0.175 0.094 0.343 0.188 0.493s0.218 0.281 0.363 0.383c0.145 0.103 0.309 0.176 0.482 0.215s0.352 0.045 0.527 0.015v-0.053zM4.947 3.053c-0.124-0.124-0.272-0.223-0.434-0.29s-0.337-0.102-0.512-0.102c-0.176 0-0.35 0.035-0.512 0.102s-0.31 0.166-0.434 0.29c-0.251 0.251-0.392 0.592-0.392 0.947s0.141 0.696 0.392 0.947l4.133 4.12c-1.886 1.815-3.387 3.992-4.413 6.4-0.073 0.168-0.111 0.35-0.111 0.533s0.038 0.365 0.111 0.533c2.693 6.253 7.76 10.133 13.227 10.133 2.396-0.017 4.736-0.73 6.733-2.053l4.32 4.333c0.124 0.125 0.271 0.224 0.434 0.292s0.337 0.103 0.513 0.103c0.176 0 0.35-0.035 0.513-0.103s0.31-0.167 0.434-0.292c0.125-0.124 0.224-0.271 0.292-0.434s0.103-0.337 0.103-0.513-0.035-0.35-0.103-0.513c-0.068-0.162-0.167-0.31-0.292-0.434l-24-24zM13.427 15.307l3.267 3.267c-0.225 0.065-0.459 0.096-0.693 0.093-0.707 0-1.385-0.281-1.886-0.781s-0.781-1.178-0.781-1.886c-0.003-0.234 0.029-0.468 0.093-0.693zM16 24c-4.24 0-8.227-3.053-10.533-8 0.861-1.902 2.084-3.618 3.6-5.053l2.36 2.387c-0.554 1.012-0.766 2.176-0.602 3.318s0.693 2.2 1.508 3.016 1.874 1.345 3.016 1.508c1.142 0.163 2.306-0.048 3.318-0.602l2.12 2.093c-1.452 0.855-3.102 1.314-4.787 1.333z"></path>
</svg>
