<!-- Generated by IcoMoon.io -->
<svg version="1.1" xmlns="http://www.w3.org/2000/svg" width="32" height="32" viewBox="0 0 32 32">
<path d="M29.227 15.467c-2.693-6.253-7.76-10.133-13.227-10.133s-10.533 3.88-13.227 10.133c-0.073 0.168-0.111 0.35-0.111 0.533s0.038 0.365 0.111 0.533c2.693 6.253 7.76 10.133 13.227 10.133s10.533-3.88 13.227-10.133c0.073-0.168 0.111-0.35 0.111-0.533s-0.038-0.365-0.111-0.533zM16 24c-4.227 0-8.227-3.053-10.533-8 2.307-4.947 6.307-8 10.533-8s8.227 3.053 10.533 8c-2.307 4.947-6.307 8-10.533 8zM16 10.667c-1.055 0-2.086 0.313-2.963 0.899s-1.561 1.419-1.964 2.394c-0.404 0.975-0.509 2.047-0.303 3.081s0.714 1.985 1.46 2.731 1.696 1.254 2.731 1.46c1.035 0.206 2.107 0.1 3.081-0.303s1.807-1.087 2.393-1.964 0.899-1.908 0.899-2.963c0-1.415-0.562-2.771-1.562-3.771s-2.357-1.562-3.771-1.562zM16 18.667c-0.527 0-1.043-0.156-1.481-0.449s-0.78-0.709-0.982-1.197c-0.202-0.487-0.255-1.023-0.152-1.541s0.357-0.992 0.73-1.365 0.848-0.627 1.365-0.73c0.517-0.103 1.053-0.050 1.541 0.152s0.904 0.544 1.197 0.982c0.293 0.439 0.449 0.954 0.449 1.481 0 0.707-0.281 1.385-0.781 1.886s-1.178 0.781-1.886 0.781z"></path>
</svg>
