<!-- Generated by IcoMoon.io -->
<svg version="1.1" xmlns="http://www.w3.org/2000/svg" width="32" height="32" viewBox="0 0 32 32">
<path d="M22.667 26.667v-10.667c0-3.682-2.985-6.667-6.667-6.667s-6.667 2.985-6.667 6.667v10.667h-2.667c-1.473 0-2.667-1.194-2.667-2.667v-16c0-1.473 1.194-2.667 2.667-2.667h18.667c1.473 0 2.667 1.194 2.667 2.667v16c0 1.473-1.194 2.667-2.667 2.667h-2.667zM17.296 15.601c-0.216 2.159-0.864 3.315-1.944 3.466 0 0 0.972-3.79-0.324-5.734 0 0-0.137 2.082-1.526 4.581-0.651 1.171-1.39 1.961-1.39 3.517 0 2.221 2.275 3.369 3.891 3.369s3.883-0.777 3.883-3.498c0-1.119-0.864-3.019-2.591-5.701z"></path>
</svg>
