<!-- Generated by IcoMoon.io -->
<svg version="1.1" xmlns="http://www.w3.org/2000/svg" width="32" height="32" viewBox="0 0 32 32">
<path d="M8 13.333v-5.333h16v5.333c-2.667 2.026-4 3.804-4 5.333v8c0 1.473-1.194 2.667-2.667 2.667h-2.667c-1.473 0-2.667-1.194-2.667-2.667v-8c0-2.222-1.333-4-4-5.333zM16 14.667c-1.473 0-2.667 1.194-2.667 2.667v2.667c0 1.473 1.194 2.667 2.667 2.667s2.667-1.194 2.667-2.667v-2.667c0-1.473-1.194-2.667-2.667-2.667zM16 18.667c-0.736 0-1.333-0.597-1.333-1.333s0.597-1.333 1.333-1.333c0.736 0 1.333 0.597 1.333 1.333s-0.597 1.333-1.333 1.333zM9.333 2.667h13.333c0.736 0 1.333 0.597 1.333 1.333v1.333h-16v-1.333c0-0.736 0.597-1.333 1.333-1.333z"></path>
</svg>
