<!-- Generated by IcoMoon.io -->
<svg version="1.1" xmlns="http://www.w3.org/2000/svg" width="32" height="32" viewBox="0 0 32 32">
<path d="M6.845 2.715c9.26 5.168 12.593 10.942 10 17.32-6.628-1.055-9.962-6.828-10-17.32zM24.989 2.715c-9.26 5.168-12.593 10.942-10 17.32 6.628-1.055 9.962-6.828 10-17.32zM16 1.333c-5.435 9.106-5.435 15.772 0 20 5.213-4.228 5.213-10.894 0-20zM8.459 17.333h15.083c0.736 0 1.333 0.597 1.333 1.333 0 0.13-0.019 0.259-0.056 0.383l-2.915 9.716c-0.338 1.128-1.377 1.9-2.554 1.9h-6.698c-1.178 0-2.216-0.772-2.554-1.9l-2.915-9.716c-0.212-0.705 0.189-1.449 0.894-1.66 0.124-0.037 0.253-0.056 0.383-0.056z"></path>
</svg>
