<!-- Generated by IcoMoon.io -->
<svg version="1.1" xmlns="http://www.w3.org/2000/svg" width="32" height="32" viewBox="0 0 32 32">
<path d="M4.667 28h22.667c1.105 0 2-0.895 2-2v-14.667c0-1.105-0.895-2-2-2h-14l-3.414-3.414c-0.375-0.375-0.884-0.586-1.414-0.586h-3.838c-1.105 0-2 0.895-2 2v18.667c0 1.105 0.895 2 2 2zM16.894 25.051l4.399-6.598c0.306-0.46 0.182-1.080-0.277-1.387-0.164-0.11-0.357-0.168-0.555-0.168h-3.582v-3.965c0-0.552-0.448-1-1-1-0.334 0-0.647 0.167-0.832 0.445l-4.399 6.598c-0.306 0.46-0.182 1.080 0.277 1.387 0.164 0.11 0.357 0.168 0.555 0.168h3.582v3.965c0 0.552 0.448 1 1 1 0.334 0 0.647-0.167 0.832-0.445z"></path>
</svg>
