<!-- Generated by IcoMoon.io -->
<svg version="1.1" xmlns="http://www.w3.org/2000/svg" width="32" height="32" viewBox="0 0 32 32">
<path d="M2.667 17.533v-10.2c0-1.105 0.895-2 2-2h3.838c0.53 0 1.039 0.211 1.414 0.586l3.414 3.414h14c1.105 0 2 0.895 2 2v14.667c0 1.105-0.895 2-2 2h-12.689c0.014-0.22 0.022-0.443 0.022-0.667 0-5.523-4.477-10-10-10-0.685 0-1.354 0.069-2 0.2zM6 21.333c0.736 0 1.333 0.597 1.333 1.333v2.667c0 0.736-0.597 1.333-1.333 1.333s-1.333-0.597-1.333-1.333v-2.667c0-0.736 0.597-1.333 1.333-1.333zM6 30.667c-0.736 0-1.333-0.597-1.333-1.333s0.597-1.333 1.333-1.333c0.736 0 1.333 0.597 1.333 1.333s-0.597 1.333-1.333 1.333z"></path>
</svg>
