<!-- Generated by IcoMoon.io -->
<svg version="1.1" xmlns="http://www.w3.org/2000/svg" width="32" height="32" viewBox="0 0 32 32">
<path d="M4.667 28h22.667c1.105 0 2-0.895 2-2v-14.667c0-1.105-0.895-2-2-2h-14l-3.414-3.414c-0.375-0.375-0.884-0.586-1.414-0.586h-3.838c-1.105 0-2 0.895-2 2v18.667c0 1.105 0.895 2 2 2zM14.667 17.333v-2.667c0-0.736 0.597-1.333 1.333-1.333s1.333 0.597 1.333 1.333v2.667h2.667c0.736 0 1.333 0.597 1.333 1.333s-0.597 1.333-1.333 1.333h-2.667v2.667c0 0.736-0.597 1.333-1.333 1.333s-1.333-0.597-1.333-1.333v-2.667h-2.667c-0.736 0-1.333-0.597-1.333-1.333s0.597-1.333 1.333-1.333h2.667z"></path>
</svg>
