<!-- Generated by IcoMoon.io -->
<svg version="1.1" xmlns="http://www.w3.org/2000/svg" width="32" height="32" viewBox="0 0 32 32">
<path d="M4.667 28h22.667c1.105 0 2-0.895 2-2v-14.667c0-1.105-0.895-2-2-2h-14l-3.414-3.414c-0.375-0.375-0.884-0.586-1.414-0.586h-3.838c-1.105 0-2 0.895-2 2v18.667c0 1.105 0.895 2 2 2zM16 22.97l-2.931 1.61c-0.351 0.193-0.785 0.052-0.969-0.315-0.073-0.146-0.099-0.313-0.072-0.476l0.56-3.41-2.371-2.415c-0.284-0.289-0.29-0.764-0.013-1.060 0.11-0.118 0.254-0.195 0.411-0.219l3.277-0.498 1.465-3.103c0.175-0.371 0.606-0.524 0.961-0.341 0.142 0.073 0.256 0.193 0.326 0.341l1.465 3.103 3.277 0.498c0.392 0.060 0.664 0.44 0.607 0.85-0.023 0.163-0.096 0.314-0.209 0.429l-2.371 2.415 0.56 3.41c0.067 0.408-0.195 0.796-0.586 0.866-0.156 0.028-0.316 0.001-0.455-0.075l-2.931-1.61z"></path>
</svg>
