<!-- Generated by IcoMoon.io -->
<svg version="1.1" xmlns="http://www.w3.org/2000/svg" width="32" height="32" viewBox="0 0 32 32">
<path d="M0.24 25.333l9.227-19.147 9.227 19.147h-2.613l-2.347-4.96h-8.533l-2.347 4.96h-2.613zM9.467 11.36l-3.2 6.773h6.4l-3.2-6.773zM28.453 25.333v-1.333c-1.12 1.013-2.613 1.547-4.24 1.547-3.92 0-6.8-3.013-6.8-6.88s2.88-6.88 6.8-6.88c1.627 0 3.12 0.533 4.24 1.547v-1.333h2.293v13.333h-2.293zM24.267 23.387c1.92 0 3.413-0.907 4.187-2.16v-5.12c-0.773-1.253-2.267-2.16-4.187-2.16-2.613 0-4.48 2.080-4.48 4.72s1.867 4.72 4.48 4.72z"></path>
</svg>
