<!-- Generated by IcoMoon.io -->
<svg version="1.1" xmlns="http://www.w3.org/2000/svg" width="32" height="32" viewBox="0 0 32 32">
<path d="M17.333 13.333v-5.773c0-0.552 0.448-1 1-1 0.245 0 0.481 0.090 0.664 0.253l9.543 8.483c0.413 0.367 0.45 0.999 0.083 1.412-0.013 0.015-0.026 0.029-0.040 0.043l-9.543 9.543c-0.391 0.391-1.024 0.391-1.414 0-0.188-0.188-0.293-0.442-0.293-0.707v-5.586c-1.796-0.108-5.57-0.112-11.322-0.012v-0c-0.368 0.006-0.672-0.287-0.678-0.655-0-0.004-0-0.008-0-0.012l-0-5.315c0-0.368 0.298-0.667 0.667-0.667 0.002 0 0.004 0 0.006 0 6.841 0.066 10.617 0.064 11.327-0.007z"></path>
</svg>
