<!-- Generated by IcoMoon.io -->
<svg version="1.1" xmlns="http://www.w3.org/2000/svg" width="32" height="32" viewBox="0 0 32 32">
<path d="M14.927 8.256c0.132 0.098 0.284 0.173 0.452 0.219l4.358 1.168c0.711 0.191 1.442-0.232 1.633-0.943s-0.232-1.442-0.943-1.633l-2.791-0.748c4.357-2.77 8.347-3.629 10.148-1.828 2.604 2.604-0.351 9.779-6.6 16.028s-13.424 9.203-16.028 6.6c-1.657-1.657-1.062-5.166 1.2-9.11 0.029 0.010 0.058 0.019 0.088 0.027l3.864 1.035c0.711 0.191 1.442-0.232 1.633-0.943s-0.232-1.442-0.943-1.633l-3.128-0.838c0.629-0.883 1.331-1.773 2.101-2.656 0.024 0.008 0.048 0.015 0.072 0.021l4.979 1.334c0.711 0.191 1.442-0.232 1.633-0.943s-0.232-1.442-0.943-1.633l-3.662-0.981c0.946-0.926 1.911-1.776 2.876-2.543z"></path>
</svg>
