<!-- Generated by IcoMoon.io -->
<svg version="1.1" xmlns="http://www.w3.org/2000/svg" width="32" height="32" viewBox="0 0 32 32">
<path d="M5.333 8h21.333c0.736 0 1.333 0.597 1.333 1.333v1.333c0 0.736-0.597 1.333-1.333 1.333h-21.333c-0.736 0-1.333-0.597-1.333-1.333v-1.333c0-0.736 0.597-1.333 1.333-1.333zM6.667 14.667h6.667c0.736 0 1.333 0.597 1.333 1.333v9.333c0 0.736-0.597 1.333-1.333 1.333h-6.667c-0.736 0-1.333-0.597-1.333-1.333v-9.333c0-0.736 0.597-1.333 1.333-1.333zM18.667 14.667h6.667c0.736 0 1.333 0.597 1.333 1.333v9.333c0 0.736-0.597 1.333-1.333 1.333h-6.667c-0.736 0-1.333-0.597-1.333-1.333v-9.333c0-0.736 0.597-1.333 1.333-1.333zM19.26 2.891c0.613-0.408 1.441-0.243 1.849 0.37s0.243 1.441-0.37 1.849l-4.74 3.16-4.74-3.16c-0.613-0.408-0.778-1.236-0.37-1.849s1.236-0.778 1.849-0.37l3.26 2.174 3.26-2.174z"></path>
</svg>
