<!-- Generated by IcoMoon.io -->
<svg version="1.1" xmlns="http://www.w3.org/2000/svg" width="32" height="32" viewBox="0 0 32 32">
<path d="M22.057 23.276l-7.391-7.391v-10.552c0-0.736 0.597-1.333 1.333-1.333s1.333 0.597 1.333 1.333v9.448l6.609 6.609 2.919-2.919c0.26-0.26 0.682-0.26 0.943 0 0.125 0.125 0.195 0.295 0.195 0.471v7.057c0 0.368-0.298 0.667-0.667 0.667h-7.057c-0.368 0-0.667-0.298-0.667-0.667 0-0.177 0.070-0.346 0.195-0.471l2.252-2.252zM9.66 22.86l2.669 2.669c0.125 0.125 0.195 0.295 0.195 0.471 0 0.368-0.298 0.667-0.667 0.667h-7.152c-0.368 0-0.667-0.298-0.667-0.667v-7.152c0-0.177 0.070-0.346 0.195-0.471 0.26-0.26 0.682-0.26 0.943 0l2.591 2.591 4.038-3.417 1.723 2.036-3.868 3.273z"></path>
</svg>
