<!-- Generated by IcoMoon.io -->
<svg version="1.1" xmlns="http://www.w3.org/2000/svg" width="32" height="32" viewBox="0 0 32 32">
<path d="M17.333 25.867l4.914 1.966c0.253 0.101 0.419 0.346 0.419 0.619v0.215c0 0.368-0.298 0.667-0.667 0.667h-12c-0.368 0-0.667-0.298-0.667-0.667v-0.215c0-0.273 0.166-0.518 0.419-0.619l4.914-1.966v-7.867h2.667v7.867zM17.666 18.615c-1.15 0.92-2.828 0.734-3.748-0.416l-8.759-10.949c-0.284-0.355-0.438-0.795-0.438-1.249 0-1.105 0.895-2 2-2h18.559c0.454 0 0.895 0.155 1.249 0.438 0.863 0.69 1.002 1.949 0.312 2.811l-8.759 10.949c-0.123 0.154-0.263 0.293-0.416 0.416zM8.107 6.667l3.226 4.016h9.333l3.226-4.016h-15.785z"></path>
</svg>
