<!-- Generated by IcoMoon.io -->
<svg version="1.1" xmlns="http://www.w3.org/2000/svg" width="32" height="32" viewBox="0 0 32 32">
<path d="M24 18.667c-2.209 0-4-1.791-4-4s1.791-4 4-4c2.209 0 4 1.791 4 4s-1.791 4-4 4zM12 14.667c-2.946 0-5.333-2.388-5.333-5.333s2.388-5.333 5.333-5.333c2.946 0 5.333 2.388 5.333 5.333s-2.388 5.333-5.333 5.333zM23.468 20.001c4.542 0.050 8.251 2.346 8.53 7.199 0.011 0.195 0 0.8-0.723 0.8h-5.141c0-3.001-0.992-5.771-2.665-7.999zM0.001 26.932c0.517-6.364 5.682-9.599 11.977-9.599 6.384 0 11.629 3.058 12.019 9.6 0.016 0.261 0 1.067-1.002 1.067-4.941 0-12.283 0-22.026 0-0.334 0-0.997-0.721-0.969-1.068z"></path>
</svg>
