<!-- Generated by IcoMoon.io -->
<svg version="1.1" xmlns="http://www.w3.org/2000/svg" width="32" height="32" viewBox="0 0 32 32">
<path d="M21.333 20.842v-4.842c0-2.209-1.791-4-4-4h-9.118v-4.632c0-1.86 1.508-3.368 3.368-3.368h15.719c1.86 0 3.368 1.508 3.368 3.368v10.105l0.022 6.242c0.001 0.368-0.296 0.668-0.664 0.669-0.178 0.001-0.348-0.070-0.474-0.195l-3.347-3.347h-4.875zM2.647 24v-6.667c0-1.473 1.194-2.667 2.667-2.667h10.667c1.473 0 2.667 1.194 2.667 2.667v6.667c0 1.473-1.194 2.667-2.667 2.667h-10.512l-1.658 1.587c-0.266 0.255-0.688 0.245-0.943-0.021-0.119-0.124-0.185-0.289-0.185-0.461v-3.34c-0.023-0.141-0.035-0.285-0.035-0.432zM8.667 18.667c-0.368 0-0.667 0.298-0.667 0.667s0.298 0.667 0.667 0.667h6.667c0.368 0 0.667-0.298 0.667-0.667s-0.298-0.667-0.667-0.667h-6.667zM12.667 21.333c-0.368 0-0.667 0.298-0.667 0.667s0.298 0.667 0.667 0.667h2.667c0.368 0 0.667-0.298 0.667-0.667s-0.298-0.667-0.667-0.667h-2.667z"></path>
</svg>
