<!-- Generated by IcoMoon.io -->
<svg version="1.1" xmlns="http://www.w3.org/2000/svg" width="32" height="32" viewBox="0 0 32 32">
<path d="M2.179 25.333v-17.987h2.305v7.676h9.931v-7.676h2.305v17.987h-2.305v-8.081h-9.931v8.081zM19.532 25.333l6.967-7.575c-0.304 0.051-0.532 0.076-0.836 0.076-3.065-0.076-5.219-2.432-5.219-5.295 0-3.040 2.381-5.396 5.447-5.396s5.472 2.356 5.472 5.396c0 2.128-0.937 3.8-3.116 6.156l-4.155 4.611h7.271v2.027h-11.831zM25.891 15.935c1.925 0 3.319-1.444 3.319-3.395 0-1.925-1.393-3.395-3.319-3.395-1.951 0-3.293 1.469-3.293 3.395 0 1.951 1.343 3.395 3.293 3.395z"></path>
</svg>
