<!-- Generated by IcoMoon.io -->
<svg version="1.1" xmlns="http://www.w3.org/2000/svg" width="32" height="32" viewBox="0 0 32 32">
<path d="M16 5.679c0.198-0 0.4 0.044 0.59 0.138 0.263 0.13 0.476 0.343 0.606 0.606l2.723 5.517 6.089 0.885c0.729 0.106 1.234 0.782 1.128 1.511-0.042 0.29-0.179 0.558-0.389 0.763l-4.406 4.295 1.040 6.064c0.124 0.726-0.363 1.415-1.089 1.54-0.289 0.050-0.586 0.002-0.846-0.134l-5.446-2.863v-18.321zM16 5.679v18.321l-5.446 2.863c-0.652 0.343-1.458 0.092-1.801-0.56-0.136-0.26-0.184-0.557-0.134-0.846l1.040-6.064-4.406-4.295c-0.527-0.514-0.538-1.358-0.024-1.885 0.205-0.21 0.473-0.347 0.763-0.389l6.089-0.885 2.723-5.517c0.232-0.47 0.704-0.743 1.196-0.744z"></path>
</svg>
