<!-- Generated by IcoMoon.io -->
<svg version="1.1" xmlns="http://www.w3.org/2000/svg" width="32" height="32" viewBox="0 0 32 32">
<path d="M5.276 11.22l10.029-6.129c0.427-0.261 0.964-0.261 1.391 0l10.029 6.129c0.793 0.484 1.276 1.346 1.276 2.275v11.838c0 1.473-1.194 2.667-2.667 2.667h-18.667c-1.473 0-2.667-1.194-2.667-2.667l0-11.838c0-0.929 0.483-1.791 1.276-2.275zM13.333 17.333c-0.736 0-1.333 0.597-1.333 1.333v4c0 0.736 0.597 1.333 1.333 1.333h5.333c0.736 0 1.333-0.597 1.333-1.333v-4c0-0.736-0.597-1.333-1.333-1.333h-5.333z"></path>
</svg>
