<!-- Generated by IcoMoon.io -->
<svg version="1.1" xmlns="http://www.w3.org/2000/svg" width="32" height="32" viewBox="0 0 32 32">
<path d="M5.276 11.22l10.029-6.129c0.427-0.261 0.964-0.261 1.391 0l10.029 6.129c0.793 0.484 1.276 1.346 1.276 2.275v11.838c0 1.473-1.194 2.667-2.667 2.667h-18.667c-1.473 0-2.667-1.194-2.667-2.667 0 0 0 0 0 0l0-11.838c0-0.929 0.483-1.791 1.276-2.275zM18.4 16c-0.858 0-1.862 0.973-2.4 1.6-0.538-0.627-1.542-1.6-2.4-1.6-1.519 0-2.4 1.185-2.4 2.694 0 1.671 1.6 3.44 4.8 5.306 3.2-1.867 4.8-3.6 4.8-5.2 0-1.508-0.881-2.8-2.4-2.8z"></path>
</svg>
