<!-- Generated by IcoMoon.io -->
<svg version="1.1" xmlns="http://www.w3.org/2000/svg" width="32" height="32" viewBox="0 0 32 32">
<path d="M28.795 16.947c0.033 3.033 0.077 6.065 0.093 9.098 0.006 1.072-0.078 2.144-0.085 3.216-0.010 1.54-1.207 2.472-2.602 2.501-2.849 0.060-5.698 0.127-8.547 0.113-3.345-0.017-6.691-0.104-10.035-0.191-0.783-0.039-1.564-0.123-2.338-0.25-0.945-0.132-1.878-1.211-1.913-2.239-0.087-2.598-0.185-5.195-0.214-7.793-0.063-5.716-0.078-11.433-0.135-17.15-0.008-0.812-0.007-1.605 0.302-2.37 0.272-0.676 0.652-1.25 1.402-1.458 0.239-0.063 0.483-0.099 0.73-0.107 1.073-0.042 2.149-0.039 3.219-0.109 3.924-0.26 7.847-0.058 11.77-0.026 0.378-0.008 0.753 0.060 1.104 0.201s0.669 0.352 0.935 0.62c1.272 1.207 2.635 2.317 3.952 3.477 0.542 0.477 1.055 0.987 1.588 1.474 0.149 0.128 0.27 0.286 0.354 0.463s0.132 0.37 0.138 0.567c0.043 1.092 0.118 2.184 0.128 3.276 0.020 2.229 0.006 4.457 0.006 6.686l0.147-0.001zM20.097 1.724c-0.361-0.029-0.665-0.070-0.971-0.075-2.601-0.044-5.202-0.084-7.804-0.12-1.176-0.016-2.352-0.023-3.528-0.030-0.598-0.004-1.196-0.022-1.792 0.008-0.834 0.043-1.092 0.281-1.241 1.095-0.15 0.77-0.186 1.559-0.105 2.339 0.048 0.43 0.073 0.863 0.073 1.296 0.013 7.303 0.023 14.606 0.030 21.908-0.005 0.165 0.002 0.33 0.023 0.494 0.152 0.942 0.648 1.508 1.676 1.549 3.984 0.161 7.968 0.16 11.954 0.092 2.023-0.034 4.047-0.050 6.070-0.072 0.495-0.006 0.991 0.014 1.485-0.013 0.811-0.044 1.238-0.49 1.229-1.309-0.010-0.886-0.077-1.771-0.092-2.657-0.018-1.072 0.018-2.146-0.012-3.218-0.074-2.639-0.202-5.277-0.253-7.916-0.041-2.103 0-4.208 0.003-6.313 0-0.179 0-0.358 0-0.54-0.077-0.019-0.155-0.032-0.234-0.039-1.259 0.025-2.518 0.063-3.777 0.072-0.371 0.003-0.742-0.037-1.104-0.119-0.838-0.192-1.092-0.499-1.176-1.359-0.068-0.698-0.116-1.397-0.179-2.095-0.086-0.963-0.177-1.926-0.274-2.98zM21.833 2.749l-0.118 0.043c0.201 1.316 0.401 2.633 0.611 4.006 1.207-0.13 2.384-0.124 3.691-0.25l-4.184-3.8zM17.651 20.134c0.957-0.698 1.871-1.371 2.791-2.034 0.721-0.519 1.174-0.501 1.796 0.145 0.471 0.491 0.906 1.014 1.302 1.567 0.504 0.702 0.923 1.466 1.43 2.166 0.566 0.783 0.86 1.667 1.124 2.575 0.168 0.579-0.111 1.076-0.728 1.193-0.326 0.051-0.657 0.074-0.987 0.069-0.619 0.009-1.239-0.004-1.858-0.001-4.316 0.025-8.632 0.053-12.948 0.082-0.64 0.005-1.28 0.069-1.919 0.087-0.289 0.013-0.578-0.004-0.863-0.052-0.714-0.136-0.975-0.839-0.522-1.402 0.789-0.98 1.593-1.947 2.388-2.924 0.547-0.672 1.065-1.37 1.635-2.022 0.72-0.823 1.46-1.629 2.228-2.407 0.549-0.555 1.197-0.64 1.858-0.174 0.716 0.521 1.393 1.092 2.028 1.71 0.448 0.421 0.817 0.926 1.245 1.422zM7.726 24.617c3.796-0.178 7.525-0.139 11.358-0.103-0.179-0.232-0.285-0.377-0.397-0.515-0.809-0.991-1.605-1.992-2.431-2.966-0.6-0.707-1.228-1.391-1.87-2.060-0.25-0.26-0.572-0.452-0.876-0.685-0.771 0.622-1.482 1.314-2.124 2.068-0.695 0.818-1.411 1.617-2.112 2.43-0.521 0.606-1.032 1.22-1.548 1.83zM21.083 19.411l-2.71 1.766 2.617 3.171 3.46-0.106c-0.666-1.267-2.837-4.387-3.367-4.831v-0zM18.35 15.961c-0.674 0.010-1.273-0.541-1.271-1.167 0.002-0.629 0.684-1.238 1.38-1.233 0.576 0.004 1.126 0.579 1.126 1.176-0 0.631-0.588 1.214-1.235 1.224z"></path>
</svg>
