<!-- Generated by IcoMoon.io -->
<svg version="1.1" xmlns="http://www.w3.org/2000/svg" width="32" height="32" viewBox="0 0 32 32">
<path d="M6.667 12h18.667c1.473 0 2.667 1.194 2.667 2.667v12c0 1.473-1.194 2.667-2.667 2.667h-18.667c-1.473 0-2.667-1.194-2.667-2.667v-12c0-1.473 1.194-2.667 2.667-2.667zM24.193 14.453l-8.193 4.411-8.193-4.411c-0.486-0.262-1.093-0.080-1.355 0.406s-0.080 1.093 0.406 1.355l8.667 4.667c0.296 0.159 0.652 0.159 0.948 0l8.667-4.667c0.486-0.262 0.668-0.868 0.406-1.355s-0.868-0.668-1.355-0.406zM19.85 3.774h-2.609v-2.677c0-0.368-0.298-0.667-0.667-0.667h-1.364c-0.368 0-0.667 0.298-0.667 0.667v2.677h-2.609c-0.368 0-0.667 0.298-0.667 0.667 0 0.158 0.056 0.31 0.158 0.431l3.957 4.674c0.238 0.281 0.659 0.316 0.94 0.078 0.028-0.024 0.054-0.050 0.078-0.078l3.957-4.674c0.238-0.281 0.203-0.702-0.078-0.94-0.12-0.102-0.273-0.158-0.431-0.158z"></path>
</svg>
