<!-- Generated by IcoMoon.io -->
<svg version="1.1" xmlns="http://www.w3.org/2000/svg" width="32" height="32" viewBox="0 0 32 32">
<path d="M13.147 8.015c0.107-0.107 0.247-0.174 0.398-0.191 0.366-0.041 0.696 0.223 0.736 0.589l0.698 6.278c0.005 0.049 0.005 0.098 0 0.147-0.041 0.366-0.37 0.63-0.736 0.589l-6.278-0.698c-0.15-0.017-0.291-0.084-0.398-0.191-0.26-0.26-0.26-0.682 0-0.943l1.848-1.848-2.002-2.002c-0.26-0.26-0.26-0.682 0-0.943l0.943-0.943c0.26-0.26 0.682-0.26 0.943 0l2.002 2.002 1.848-1.848zM16.107 19.712l2.939-2.939c0.812-0.812 1.013-2.052 0.5-3.078l-0.166-0.333c-0.513-1.027-0.312-2.267 0.5-3.078l3.644-3.644c0.26-0.26 0.682-0.26 0.943 0 0.051 0.051 0.093 0.109 0.125 0.173l1.472 2.944c1.126 2.252 0.685 4.972-1.096 6.753l-7.998 7.998c-1.938 1.938-4.805 2.615-7.405 1.748l-3.219-1.073c-0.349-0.116-0.538-0.494-0.422-0.843 0.033-0.098 0.088-0.187 0.161-0.261l3.535-3.535c0.812-0.812 2.052-1.013 3.078-0.5l0.333 0.166c1.027 0.513 2.267 0.312 3.078-0.5z"></path>
</svg>
