<!-- Generated by IcoMoon.io -->
<svg version="1.1" xmlns="http://www.w3.org/2000/svg" width="32" height="32" viewBox="0 0 32 32">
<path d="M9.333 6.667h13.333c0.736 0 1.333 0.597 1.333 1.333s-0.597 1.333-1.333 1.333h-13.333c-0.736 0-1.333-0.597-1.333-1.333s0.597-1.333 1.333-1.333zM9.333 12h13.333c0.736 0 1.333 0.597 1.333 1.333s-0.597 1.333-1.333 1.333h-13.333c-0.736 0-1.333-0.597-1.333-1.333s0.597-1.333 1.333-1.333zM9.333 17.333h13.333c0.736 0 1.333 0.597 1.333 1.333s-0.597 1.333-1.333 1.333h-13.333c-0.736 0-1.333-0.597-1.333-1.333s0.597-1.333 1.333-1.333zM9.333 22.667h13.333c0.736 0 1.333 0.597 1.333 1.333s-0.597 1.333-1.333 1.333h-13.333c-0.736 0-1.333-0.597-1.333-1.333s0.597-1.333 1.333-1.333zM7.333 2.667c1.105 0 2 0.895 2 2v22.667c0 1.105-0.895 2-2 2s-2-0.895-2-2v-22.667c0-1.105 0.895-2 2-2zM24.667 2.667c1.105 0 2 0.895 2 2v22.667c0 1.105-0.895 2-2 2s-2-0.895-2-2v-22.667c0-1.105 0.895-2 2-2z"></path>
</svg>
