<!-- Generated by IcoMoon.io -->
<svg version="1.1" xmlns="http://www.w3.org/2000/svg" width="32" height="32" viewBox="0 0 32 32">
<path d="M13.333 25.333h5.333c1.473 0 2.667 1.194 2.667 2.667h-10.667c0-1.473 1.194-2.667 2.667-2.667zM16 16c0.736 0 1.333 0.597 1.333 1.333v5.333c0 0.736-0.597 1.333-1.333 1.333s-1.333-0.597-1.333-1.333v-5.333c0-0.736 0.597-1.333 1.333-1.333zM21.288 8.345c0.711-0.191 1.442 0.232 1.633 0.943l1.035 3.864c0.191 0.711-0.232 1.442-0.943 1.633s-1.442-0.232-1.633-0.943l-1.035-3.864c-0.191-0.711 0.232-1.442 0.943-1.633zM9.922 5.333h12.156c1.148 0 2.167 0.734 2.53 1.823l3.392 10.177h-24l3.392-10.177c0.363-1.089 1.382-1.823 2.53-1.823z"></path>
</svg>
