<!-- Generated by IcoMoon.io -->
<svg version="1.1" xmlns="http://www.w3.org/2000/svg" width="32" height="32" viewBox="0 0 32 32">
<path d="M2 6.667h4c1.105 0 2 0.895 2 2v14.667c0 1.105-0.895 2-2 2h-4c-1.105 0-2-0.895-2-2v-14.667c0-1.105 0.895-2 2-2zM24.667 6.667h5.333c1.105 0 2 0.895 2 2v14.667c0 1.105-0.895 2-2 2h-5.333c-1.105 0-2-0.895-2-2v-14.667c0-1.105 0.895-2 2-2zM12.667 6.667h5.333c1.105 0 2 0.895 2 2v14.667c0 1.105-0.895 2-2 2h-5.333c-1.105 0-2-0.895-2-2v-14.667c0-1.105 0.895-2 2-2z"></path>
</svg>
