<!-- Generated by IcoMoon.io -->
<svg version="1.1" xmlns="http://www.w3.org/2000/svg" width="32" height="32" viewBox="0 0 32 32">
<path d="M7.333 5.333h5.333c1.105 0 2 0.895 2 2v5.333c0 1.105-0.895 2-2 2h-5.333c-1.105 0-2-0.895-2-2v-5.333c0-1.105 0.895-2 2-2zM7.333 17.333h5.333c1.105 0 2 0.895 2 2v5.333c0 1.105-0.895 2-2 2h-5.333c-1.105 0-2-0.895-2-2v-5.333c0-1.105 0.895-2 2-2zM19.333 5.333h5.333c1.105 0 2 0.895 2 2v5.333c0 1.105-0.895 2-2 2h-5.333c-1.105 0-2-0.895-2-2v-5.333c0-1.105 0.895-2 2-2zM19.333 17.333h5.333c1.105 0 2 0.895 2 2v5.333c0 1.105-0.895 2-2 2h-5.333c-1.105 0-2-0.895-2-2v-5.333c0-1.105 0.895-2 2-2z"></path>
</svg>
