<!-- Generated by IcoMoon.io -->
<svg version="1.1" xmlns="http://www.w3.org/2000/svg" width="32" height="32" viewBox="0 0 32 32">
<path d="M18.276 19.057c0.521 0.521 0.521 1.365 0 1.886s-1.365 0.521-1.886 0l-8-8c-0.505-0.505-0.522-1.318-0.040-1.844l7.333-8c0.498-0.543 1.341-0.579 1.884-0.082s0.579 1.341 0.082 1.884l-6.471 7.059 7.097 7.097zM15.333 10.667c-0.736 0-1.333 0.597-1.333 1.333s0.597 1.333 1.333 1.333h8.667c0.736 0 1.333 0.597 1.333 1.333v13.389c0 0.736 0.597 1.333 1.333 1.333s1.333-0.597 1.333-1.333v-13.389c0-2.209-1.791-4-4-4h-8.667z"></path>
</svg>
