<!-- Generated by IcoMoon.io -->
<svg version="1.1" xmlns="http://www.w3.org/2000/svg" width="32" height="32" viewBox="0 0 32 32">
<path d="M6.667 4h1.333c0.736 0 1.333 0.597 1.333 1.333v21.333c0 0.736-0.597 1.333-1.333 1.333h-1.333c-0.736 0-1.333-0.597-1.333-1.333v-21.333c0-0.736 0.597-1.333 1.333-1.333zM13.333 4h1.333c0.736 0 1.333 0.597 1.333 1.333v21.333c0 0.736-0.597 1.333-1.333 1.333h-1.333c-0.736 0-1.333-0.597-1.333-1.333v-21.333c0-0.736 0.597-1.333 1.333-1.333zM19.23 4.798l1.261-0.434c0.696-0.24 1.455 0.13 1.695 0.827l6.945 20.171c0.24 0.696-0.13 1.455-0.827 1.695l-1.261 0.434c-0.696 0.24-1.455-0.13-1.695-0.827l-6.945-20.171c-0.24-0.696 0.13-1.455 0.827-1.695z"></path>
</svg>
