<!-- Generated by IcoMoon.io -->
<svg version="1.1" xmlns="http://www.w3.org/2000/svg" width="32" height="32" viewBox="0 0 32 32">
<path d="M10.667 5.333c0.736 0 1.333 0.597 1.333 1.333v16h12c0.736 0 1.333 0.597 1.333 1.333s-0.597 1.333-1.333 1.333h-12c-0.736 0-1.333-0.597-1.333-1.333-0.736 0-1.333-0.597-1.333-1.333v-14.667h-2.667c-0.736 0-1.333-0.597-1.333-1.333s0.597-1.333 1.333-1.333h4zM20 9.333c2.946 0 5.333 2.388 5.333 5.333s-2.388 5.333-5.333 5.333c-2.946 0-5.333-2.388-5.333-5.333s2.388-5.333 5.333-5.333zM14.667 24c0 2.209-1.791 4-4 4s-4-1.791-4-4c0-2.209 1.791-4 4-4s4 1.791 4 4z"></path>
</svg>
