<!-- Generated by IcoMoon.io -->
<svg version="1.1" xmlns="http://www.w3.org/2000/svg" width="32" height="32" viewBox="0 0 32 32">
<path d="M9.853 3.78c1.683-0.717 3.535-1.113 5.48-1.113 7.732 0 14 6.268 14 14s-6.268 14-14 14c-7.732 0-14-6.268-14-14 0-1.313 0.181-2.584 0.519-3.789l2.568 0.72c-0.277 0.989-0.42 2.018-0.42 3.069 0 6.259 5.074 11.333 11.333 11.333s11.333-5.074 11.333-11.333c0-6.259-5.074-11.333-11.333-11.333-1.268 0-2.504 0.208-3.668 0.606l1.588 1.892c0.092 0.11 0.147 0.247 0.155 0.391 0.021 0.368-0.26 0.682-0.628 0.703l-6.489 0.368c-0.065 0.004-0.129-0.002-0.192-0.017-0.358-0.085-0.579-0.445-0.494-0.803l1.505-6.308c0.033-0.139 0.11-0.264 0.22-0.356 0.282-0.237 0.703-0.2 0.939 0.082l1.585 1.889zM19.333 14.667c0.736 0 1.333 0.597 1.333 1.333v4c0 0.736-0.597 1.333-1.333 1.333h-6.667c-0.736 0-1.333-0.597-1.333-1.333v-4c0-0.736 0.597-1.333 1.333-1.333v-0.667c0-1.841 1.492-3.333 3.333-3.333s3.333 1.492 3.333 3.333v0.667zM16 12c-1.105 0-2 0.895-2 2v0.667h4v-0.667c0-1.105-0.895-2-2-2z"></path>
</svg>
