<!-- Generated by IcoMoon.io -->
<svg version="1.1" xmlns="http://www.w3.org/2000/svg" width="32" height="32" viewBox="0 0 32 32">
<path d="M15.433 28.267c-7.2 0-11.633-5.067-11.633-11.5 0-7.6 6.033-12.7 12.9-12.7 6.567 0 11.467 4.033 11.467 10.4 0 5.8-3.067 8.1-6.133 8.1-1.5 0-2.733-0.7-3.267-1.7-1.033 1-2.6 1.633-4.1 1.633-3.667 0-5.533-2.6-5.533-5.733 0-4.033 2.933-7.3 7.233-7.3 1.233 0 2.233 0.333 3 0.9l0.133-0.567h3.167l-1.567 7.333c-0.3 1.467 0.033 2.633 1.467 2.633 1.767 0 2.8-1.467 2.8-5.367 0-5.2-4.1-7.633-8.7-7.633-5.167 0-9.933 3.567-9.933 10 0 5.267 3.367 8.7 8.7 8.7 2 0 4.067-0.433 5.867-1.367l1.1 2.7c-2.067 0.933-4.8 1.467-6.967 1.467zM15.2 19.367c0.867 0 1.733-0.233 2.433-0.933l1.067-4.933c-0.6-0.633-1.467-0.933-2.3-0.933-2.2 0-3.8 1.7-3.8 3.933 0 1.733 0.833 2.867 2.6 2.867z"></path>
</svg>
