<!-- Generated by IcoMoon.io -->
<svg version="1.1" xmlns="http://www.w3.org/2000/svg" width="32" height="32" viewBox="0 0 32 32">
<path d="M19.81 17.333c0.124-0.37 0.19-0.765 0.19-1.175v-6.984c0-2.121-1.791-3.841-4-3.841h-0.364c-2.008 0-3.636 1.563-3.636 3.492h1.455c0-1.157 0.977-2.095 2.182-2.095h0.364c1.406 0 2.545 1.094 2.545 2.444v6.984c0 0.426-0.113 0.826-0.313 1.175h-4.466c-0.199-0.349-0.313-0.749-0.313-1.175v-3.492c0-0.579 0.488-1.048 1.091-1.048s1.091 0.469 1.091 1.048v2.444h1.455v-2.444c0-1.35-1.14-2.444-2.545-2.444s-2.545 1.094-2.545 2.444v3.492c0 0.41 0.067 0.804 0.19 1.175h-4.19c-0.736 0-1.333-0.597-1.333-1.333v-12c0-0.736 0.597-1.333 1.333-1.333h16c0.736 0 1.333 0.597 1.333 1.333v12c0 0.736-0.597 1.333-1.333 1.333h-4.19zM12 13.778v2.381c0 2.121 1.791 3.841 4 3.841s4-1.72 4-3.841v-2.381l6.943-5.014c0.298-0.216 0.715-0.148 0.931 0.15 0.082 0.114 0.126 0.25 0.126 0.39v13.363c0 1.473-1.194 2.667-2.667 2.667h-18.667c-1.473 0-2.667-1.194-2.667-2.667v-13.363c0-0.368 0.298-0.667 0.667-0.667 0.14 0 0.277 0.044 0.39 0.126l6.943 5.014zM13.455 14.828l2.545 1.838 2.545-1.838v1.33c0 1.35-1.14 2.444-2.545 2.444s-2.545-1.094-2.545-2.444v-1.33z"></path>
</svg>
