<!-- Generated by IcoMoon.io -->
<svg version="1.1" xmlns="http://www.w3.org/2000/svg" width="32" height="32" viewBox="0 0 32 32">
<path d="M29.333 20v5.333c0 1.473-1.194 2.667-2.667 2.667h-21.333c-1.473 0-2.667-1.194-2.667-2.667v-5.333h5.706l0.726 2.177c0.363 1.089 1.382 1.823 2.53 1.823h8.882c1.010 0 1.933-0.571 2.385-1.474l1.263-2.526h5.176zM3.417 17.333l4.485-7.974c0.472-0.84 1.361-1.359 2.324-1.359h11.547c0.963 0 1.852 0.52 2.324 1.359l4.485 7.974h-4.426c-1.010 0-1.933 0.571-2.385 1.474l-1.263 2.526h-8.882l-0.726-2.177c-0.363-1.089-1.382-1.823-2.53-1.823h-4.956z"></path>
</svg>
