<!-- Generated by IcoMoon.io -->
<svg version="1.1" xmlns="http://www.w3.org/2000/svg" width="32" height="32" viewBox="0 0 32 32">
<path d="M28 16.111c-0.434-0.073-0.879-0.111-1.333-0.111-4.418 0-8 3.582-8 8 0 0.454 0.038 0.9 0.111 1.333h-12.111c-1.473 0-2.667-1.194-2.667-2.667v-12c0-1.473 1.194-2.667 2.667-2.667h18.667c1.473 0 2.667 1.194 2.667 2.667v5.444zM24.193 10.453l-8.193 4.411-8.193-4.411c-0.486-0.262-1.093-0.080-1.355 0.406s-0.080 1.093 0.406 1.355l8.667 4.667c0.296 0.159 0.652 0.159 0.948 0l8.667-4.667c0.486-0.262 0.668-0.868 0.406-1.355s-0.868-0.668-1.355-0.406zM29.333 23.333c0 1.841-1.492 3.333-3.333 3.333s-3.333-1.492-3.333-3.333c0-1.841 1.492-3.333 3.333-3.333s3.333 1.492 3.333 3.333z"></path>
</svg>
