<!-- Generated by IcoMoon.io -->
<svg version="1.1" xmlns="http://www.w3.org/2000/svg" width="32" height="32" viewBox="0 0 32 32">
<path d="M17.311 24c-0.343-5.212-4.679-9.333-9.978-9.333-0.685 0-1.354 0.069-2 0.2v-5.533c0-1.473 1.194-2.667 2.667-2.667h18.667c1.473 0 2.667 1.194 2.667 2.667v12c0 1.473-1.194 2.667-2.667 2.667h-9.355zM25.526 9.12l-8.193 4.411-8.193-4.411c-0.486-0.262-1.093-0.080-1.355 0.406s-0.080 1.093 0.406 1.355l8.667 4.667c0.296 0.159 0.652 0.159 0.948 0l8.667-4.667c0.486-0.262 0.668-0.868 0.406-1.355s-0.868-0.668-1.355-0.406zM10.667 22.667c0.736 0 1.333 0.597 1.333 1.333v4c0 0.736-0.597 1.333-1.333 1.333h-6.667c-0.736 0-1.333-0.597-1.333-1.333v-4c0-0.736 0.597-1.333 1.333-1.333v-0.667c0-1.841 1.492-3.333 3.333-3.333s3.333 1.492 3.333 3.333v0.667zM7.333 20c-1.105 0-2 0.895-2 2v0.667h4v-0.667c0-1.105-0.895-2-2-2z"></path>
</svg>
