<!-- Generated by IcoMoon.io -->
<svg version="1.1" xmlns="http://www.w3.org/2000/svg" width="32" height="32" viewBox="0 0 32 32">
<path d="M6.667 8h18.667c1.473 0 2.667 1.194 2.667 2.667v12c0 1.473-1.194 2.667-2.667 2.667h-18.667c-1.473 0-2.667-1.194-2.667-2.667v-12c0-1.473 1.194-2.667 2.667-2.667zM24.193 10.453l-8.193 4.411-8.193-4.411c-0.486-0.262-1.093-0.080-1.355 0.406s-0.080 1.093 0.406 1.355l8.667 4.667c0.296 0.159 0.652 0.159 0.948 0l8.667-4.667c0.486-0.262 0.668-0.868 0.406-1.355s-0.868-0.668-1.355-0.406z"></path>
</svg>
