<!-- Generated by IcoMoon.io -->
<svg version="1.1" xmlns="http://www.w3.org/2000/svg" width="32" height="32" viewBox="0 0 32 32">
<path d="M8 2.667h16c0.736 0 1.333 0.597 1.333 1.333v13.333c0 0.736-0.597 1.333-1.333 1.333h-16c-0.736 0-1.333-0.597-1.333-1.333v-13.333c0-0.736 0.597-1.333 1.333-1.333zM18.4 5.333c-0.858 0-1.862 0.973-2.4 1.6-0.538-0.627-1.542-1.6-2.4-1.6-1.519 0-2.4 1.185-2.4 2.694 0 1.671 1.6 3.44 4.8 5.306 3.2-1.867 4.8-3.6 4.8-5.2 0-1.508-0.881-2.8-2.4-2.8zM5.057 8.763l10.943 7.903 10.943-7.903c0.298-0.216 0.715-0.148 0.931 0.15 0.082 0.114 0.126 0.25 0.126 0.39v13.363c0 1.473-1.194 2.667-2.667 2.667h-18.667c-1.473 0-2.667-1.194-2.667-2.667v-13.363c0-0.368 0.298-0.667 0.667-0.667 0.14 0 0.277 0.044 0.39 0.126z"></path>
</svg>
