<!-- Generated by IcoMoon.io -->
<svg version="1.1" xmlns="http://www.w3.org/2000/svg" width="32" height="32" viewBox="0 0 32 32">
<path d="M8.626 23.374c-0.391-0.391-0.391-1.024 0-1.414l2.96-2.96h-1.586c-0.552 0-1-0.448-1-1s0.448-1 1-1h4c0.552 0 1 0.448 1 1v4c0 0.552-0.448 1-1 1s-1-0.448-1-1v-1.586l-2.96 2.959c-0.391 0.391-1.024 0.391-1.414 0zM22 15c0.552 0 1-0.448 1-1s-0.448-1-1-1h-1.586l2.959-2.96c0.391-0.391 0.391-1.024 0-1.414s-1.024-0.391-1.414 0l-2.96 2.96v-1.586c0-0.552-0.448-1-1-1s-1 0.448-1 1v4c0 0.552 0.448 1 1 1h4zM15.923 1.667h0.153c3.078 0 5.49-0 7.372 0.253 1.926 0.259 3.446 0.799 4.639 1.993s1.733 2.713 1.993 4.639c0.253 1.882 0.253 4.294 0.253 7.372v0.153c0 3.078 0 5.49-0.253 7.372-0.259 1.926-0.799 3.446-1.993 4.639s-2.713 1.733-4.639 1.993c-1.882 0.253-4.294 0.253-7.372 0.253h-0.153c-3.078 0-5.49 0-7.372-0.253-1.926-0.259-3.446-0.799-4.639-1.993s-1.734-2.713-1.993-4.639c-0.253-1.882-0.253-4.294-0.253-7.372v-0.153c0-3.078-0-5.49 0.253-7.372 0.259-1.926 0.799-3.446 1.993-4.639s2.713-1.734 4.639-1.993c1.882-0.253 4.294-0.253 7.372-0.253zM8.818 3.902c-1.705 0.229-2.732 0.665-3.492 1.425s-1.195 1.787-1.425 3.492c-0.233 1.733-0.235 4.011-0.235 7.182s0.002 5.449 0.235 7.182c0.229 1.705 0.665 2.732 1.425 3.492s1.787 1.195 3.492 1.425c1.733 0.233 4.011 0.235 7.182 0.235s5.449-0.002 7.182-0.235c1.705-0.229 2.732-0.665 3.492-1.425s1.195-1.787 1.425-3.492c0.233-1.733 0.235-4.011 0.235-7.182s-0.002-5.449-0.235-7.182c-0.229-1.705-0.665-2.732-1.425-3.492s-1.787-1.195-3.492-1.425c-1.733-0.233-4.011-0.235-7.182-0.235s-5.449 0.002-7.182 0.235z"></path>
</svg>
