<!-- Generated by IcoMoon.io -->
<svg version="1.1" xmlns="http://www.w3.org/2000/svg" width="32" height="32" viewBox="0 0 32 32">
<path d="M17.333 22.731v1.269h1.333c1.473 0 2.667 1.194 2.667 2.667h-10.667c0-1.473 1.194-2.667 2.667-2.667h1.333v-1.269c-5.469-0.608-9.884-4.905-10.566-10.437-0.090-0.731 0.429-1.396 1.16-1.486s1.396 0.429 1.486 1.16c0.572 4.643 4.533 8.17 9.254 8.17 4.769 0 8.757-3.599 9.269-8.301 0.080-0.732 0.738-1.261 1.47-1.181s1.261 0.738 1.181 1.47c-0.611 5.608-5.058 9.992-10.588 10.605zM16 18.667c-4.418 0-8-3.582-8-8s3.582-8 8-8c4.418 0 8 3.582 8 8s-3.582 8-8 8zM11.755 10.401c-0.034-0.482-0.452-0.846-0.934-0.812s-0.846 0.452-0.812 0.934c0.155 2.214 1.187 3.962 3.051 5.166 0.406 0.262 0.948 0.146 1.21-0.26s0.146-0.948-0.26-1.21c-1.402-0.906-2.139-2.154-2.255-3.819z"></path>
</svg>
