<!-- Generated by IcoMoon.io -->
<svg version="1.1" xmlns="http://www.w3.org/2000/svg" width="32" height="32" viewBox="0 0 32 32">
<path d="M2.667 18.667h26.667c0 6.627-5.373 12-12 12h-2.667c-6.627 0-12-5.373-12-12zM22.298 1.89c0.615 0.355 0.826 1.141 0.471 1.756-0.008 0.013-0.016 0.027-0.024 0.040l-8.694 13.87c-0.198 0.315-0.609 0.418-0.931 0.232s-0.439-0.594-0.265-0.922l7.665-14.464c0.332-0.627 1.111-0.867 1.738-0.534 0.014 0.007 0.027 0.015 0.041 0.023zM29.169 5.622c0.475 0.528 0.433 1.341-0.095 1.816-0.012 0.010-0.023 0.021-0.035 0.031l-12.554 10.505c-0.285 0.239-0.708 0.209-0.957-0.068s-0.234-0.7 0.033-0.959l11.759-11.388c0.51-0.494 1.324-0.481 1.818 0.029 0.011 0.011 0.021 0.023 0.032 0.034z"></path>
</svg>
