<!-- Generated by IcoMoon.io -->
<svg version="1.1" xmlns="http://www.w3.org/2000/svg" width="32" height="32" viewBox="0 0 32 32">
<path d="M5.169 4.994l24.47 6.557c0.711 0.191 1.133 0.922 0.943 1.633l-3.451 12.879c-0.191 0.711-0.922 1.133-1.633 0.943l-24.47-6.557c-0.711-0.191-1.133-0.922-0.943-1.633l3.451-12.879c0.191-0.711 0.922-1.133 1.633-0.943zM13.953 21.152c2.845 0.762 5.77-0.926 6.532-3.771s-0.926-5.77-3.771-6.532c-2.845-0.762-5.77 0.926-6.532 3.771s0.926 5.77 3.771 6.532zM2.667 8h25.333c0.736 0 1.333 0.597 1.333 1.333v13.333c0 0.736-0.597 1.333-1.333 1.333h-25.333c-0.736 0-1.333-0.597-1.333-1.333v-13.333c0-0.736 0.597-1.333 1.333-1.333zM15.333 21.333c2.946 0 5.333-2.388 5.333-5.333s-2.388-5.333-5.333-5.333c-2.946 0-5.333 2.388-5.333 5.333s2.388 5.333 5.333 5.333zM15.333 18.667c1.473 0 2.667-1.194 2.667-2.667s-1.194-2.667-2.667-2.667c-1.473 0-2.667 1.194-2.667 2.667s1.194 2.667 2.667 2.667z"></path>
</svg>
