<!-- Generated by IcoMoon.io -->
<svg version="1.1" xmlns="http://www.w3.org/2000/svg" width="32" height="32" viewBox="0 0 32 32">
<path d="M10.667 22.72v-12.053c0-0.583 0.379-1.099 0.936-1.273l12-3.333c0.859-0.268 1.731 0.373 1.731 1.273v15.333c0 0 0 0 0 0.001-0.001 1.472-1.493 2.666-3.333 2.666s-3.333-1.194-3.333-2.667 1.492-2.667 3.333-2.667c0.228 0 0.451 0.018 0.667 0.053v-9.387l-9.333 2.5v12.167c0 0 0 0 0 0.001-0.001 1.472-1.493 2.666-3.333 2.666s-3.333-1.194-3.333-2.667 1.492-2.667 3.333-2.667c0.228 0 0.451 0.018 0.667 0.053z"></path>
</svg>
