<!-- Generated by IcoMoon.io -->
<svg version="1.1" xmlns="http://www.w3.org/2000/svg" width="32" height="32" viewBox="0 0 32 32">
<path d="M23.448 16l-1.886-1.886c-0.521-0.521-0.521-1.365 0-1.886s1.365-0.521 1.886 0l1.886 1.886 1.886-1.886c0.521-0.521 1.365-0.521 1.886 0s0.521 1.365 0 1.886l-1.886 1.886 1.886 1.886c0.521 0.521 0.521 1.365 0 1.886s-1.365 0.521-1.886 0l-1.886-1.886-1.886 1.886c-0.521 0.521-1.365 0.521-1.886 0s-0.521-1.365 0-1.886l1.886-1.886zM9.333 21.333l-4.523-0.905c-1.246-0.249-2.144-1.344-2.144-2.615v-3.628c0-1.271 0.897-2.366 2.144-2.615l4.523-0.905 4.391-4.391c0.521-0.521 1.365-0.521 1.886 0 0.25 0.25 0.391 0.589 0.391 0.943v17.562c0 0.736-0.597 1.333-1.333 1.333-0.354 0-0.693-0.14-0.943-0.391l-4.391-4.391z"></path>
</svg>
