<svg width="7" height="7" viewBox="0 0 7 7" fill="none" xmlns="http://www.w3.org/2000/svg">
<g clip-path="url(#clip0_201_22317)">
<path d="M5.55349 3.05437H1.11076V2.22136H5.55349V3.05437ZM5.55349 4.16506H3.6098V3.60971H5.55349V4.16506ZM5.55349 5.27574H3.6098V4.7204H5.55349V5.27574ZM3.05446 5.27574H1.11076V3.60971H3.05446V5.27574ZM5.64512 1.29672L5.18419 0.833008L4.72048 1.29672L4.25677 0.833008L3.79584 1.29672L3.33213 0.833008L2.86842 1.29672L2.40748 0.833008L1.94377 1.29672L1.48006 0.833008L1.01913 1.29672L0.55542 0.833008V5.27574C0.55542 5.42302 0.613929 5.56428 0.718076 5.66842C0.822222 5.77257 0.963476 5.83108 1.11076 5.83108H5.55349C5.70078 5.83108 5.84203 5.77257 5.94618 5.66842C6.05032 5.56428 6.10883 5.42302 6.10883 5.27574V0.833008L5.64512 1.29672Z" fill="black"/>
</g>
<defs>
<clipPath id="clip0_201_22317">
<rect width="6.6641" height="6.6641" fill="white"/>
</clipPath>
</defs>
</svg>
