<!-- Generated by IcoMoon.io -->
<svg version="1.1" xmlns="http://www.w3.org/2000/svg" width="32" height="32" viewBox="0 0 32 32">
<path d="M7.333 5.333h17.333c1.105 0 2 0.895 2 2v5.333c0 1.105-0.895 2-2 2h-17.333c-1.105 0-2-0.895-2-2v-5.333c0-1.105 0.895-2 2-2zM14.667 8c-0.736 0-1.333 0.597-1.333 1.333s0.597 1.333 1.333 1.333h2.667c0.736 0 1.333-0.597 1.333-1.333s-0.597-1.333-1.333-1.333h-2.667zM7.333 17.333h17.333c1.105 0 2 0.895 2 2v5.333c0 1.105-0.895 2-2 2h-17.333c-1.105 0-2-0.895-2-2v-5.333c0-1.105 0.895-2 2-2zM14.667 20c-0.736 0-1.333 0.597-1.333 1.333s0.597 1.333 1.333 1.333h2.667c0.736 0 1.333-0.597 1.333-1.333s-0.597-1.333-1.333-1.333h-2.667z"></path>
</svg>
