<!-- Generated by IcoMoon.io -->
<svg version="1.1" xmlns="http://www.w3.org/2000/svg" width="32" height="32" viewBox="0 0 32 32">
<path d="M16 25.333c5.155 0 9.333-4.179 9.333-9.333s-4.179-9.333-9.333-9.333c-5.155 0-9.333 4.179-9.333 9.333s4.179 9.333 9.333 9.333zM16 28c-6.627 0-12-5.373-12-12s5.373-12 12-12c6.627 0 12 5.373 12 12s-5.373 12-12 12zM16 12.889c-0.889-1.362-1.333-2.381-1.333-3.056 0-1.013 0.597-1.833 1.333-1.833s1.333 0.821 1.333 1.833c0 0.675-0.444 1.694-1.333 3.056zM16 18.667c0.889 1.362 1.333 2.381 1.333 3.056 0 1.013-0.597 1.833-1.333 1.833s-1.333-0.821-1.333-1.833c0-0.675 0.444-1.694 1.333-3.056zM19.111 16c1.362-0.889 2.381-1.333 3.056-1.333 1.013 0 1.833 0.597 1.833 1.333s-0.821 1.333-1.833 1.333c-0.675 0-1.694-0.444-3.056-1.333zM13.333 16c-1.362 0.889-2.381 1.333-3.056 1.333-1.013 0-1.833-0.597-1.833-1.333s0.821-1.333 1.833-1.333c0.675 0 1.694 0.444 3.056 1.333zM18.2 13.8c0.335-1.592 0.741-2.626 1.218-3.103 0.716-0.716 1.718-0.874 2.239-0.354s0.362 1.523-0.354 2.239c-0.477 0.477-1.512 0.883-3.103 1.218zM14.114 17.886c-0.335 1.592-0.741 2.626-1.218 3.103-0.716 0.716-1.718 0.874-2.239 0.354s-0.362-1.523 0.354-2.239c0.477-0.477 1.512-0.883 3.103-1.218zM18.2 18.2c1.592 0.335 2.626 0.741 3.103 1.218 0.716 0.716 0.874 1.718 0.354 2.239s-1.523 0.362-2.239-0.354c-0.477-0.477-0.883-1.512-1.218-3.103zM14.114 14.114c-1.592-0.335-2.626-0.741-3.103-1.218-0.716-0.716-0.874-1.718-0.354-2.239s1.523-0.362 2.239 0.354c0.477 0.477 0.883 1.512 1.218 3.103z"></path>
</svg>
