<!-- Generated by IcoMoon.io -->
<svg version="1.1" xmlns="http://www.w3.org/2000/svg" width="32" height="32" viewBox="0 0 32 32">
<path d="M29.333 20v5.333c0 1.473-1.194 2.667-2.667 2.667h-16c-2.946 0-5.333-2.388-5.333-5.333s2.388-5.333 5.333-5.333h16c1.473 0 2.667 1.194 2.667 2.667zM9.333 25.333c1.473 0 2.667-1.194 2.667-2.667s-1.194-2.667-2.667-2.667c-1.473 0-2.667 1.194-2.667 2.667s1.194 2.667 2.667 2.667zM20.723 7.6l3.771 3.771c1.041 1.041 1.041 2.73 0 3.771l-11.314 11.314c-2.083 2.083-5.46 2.083-7.542 0s-2.083-5.46 0-7.542l11.314-11.314c1.041-1.041 2.73-1.041 3.771 0zM9.333 25.333c1.473 0 2.667-1.194 2.667-2.667s-1.194-2.667-2.667-2.667c-1.473 0-2.667 1.194-2.667 2.667s1.194 2.667 2.667 2.667zM6.667 4h5.333c1.473 0 2.667 1.194 2.667 2.667v16c0 2.946-2.388 5.333-5.333 5.333s-5.333-2.388-5.333-5.333v-16c0-1.473 1.194-2.667 2.667-2.667zM9.333 25.333c1.473 0 2.667-1.194 2.667-2.667s-1.194-2.667-2.667-2.667c-1.473 0-2.667 1.194-2.667 2.667s1.194 2.667 2.667 2.667z"></path>
</svg>
