<!-- Generated by IcoMoon.io -->
<svg version="1.1" xmlns="http://www.w3.org/2000/svg" width="32" height="32" viewBox="0 0 32 32">
<path d="M26 8.4h-6c-0.221 0-0.4-0.179-0.4-0.4v0-6c0-0.221 0.179-0.4 0.4-0.4s0.4 0.179 0.4 0.4v0 5.6h5.6c0.221 0 0.4 0.179 0.4 0.4s-0.179 0.4-0.4 0.4v0zM26 12.386c-0.221 0-0.4-0.179-0.4-0.4v0-3.821l-5.766-5.766h-11.834c-0.884 0-1.6 0.716-1.6 1.6v0 7.854c0 0.221-0.179 0.4-0.4 0.4s-0.4-0.179-0.4-0.4v0-7.854c0-1.325 1.075-2.4 2.4-2.4v0h12c0 0 0 0 0.001 0 0.11 0 0.21 0.045 0.282 0.117v0l6 6c0.072 0.072 0.117 0.172 0.117 0.282 0 0 0 0 0 0.001v-0 3.986c0 0.221-0.179 0.4-0.4 0.4v0zM24 30.4h-16c-1.325 0-2.4-1.075-2.4-2.4v0-6c0-0.221 0.179-0.4 0.4-0.4s0.4 0.179 0.4 0.4v0 6c0 0.884 0.716 1.6 1.6 1.6v0h16c0.884 0 1.6-0.716 1.6-1.6v0-6c0-0.221 0.179-0.4 0.4-0.4s0.4 0.179 0.4 0.4v0 6c0 1.325-1.075 2.4-2.4 2.4v0zM22 22.4h-12c-0.221 0-0.4-0.179-0.4-0.4s0.179-0.4 0.4-0.4v0h12c0.221 0 0.4 0.179 0.4 0.4s-0.179 0.4-0.4 0.4v0zM16 26.4h-6c-0.221 0-0.4-0.179-0.4-0.4s0.179-0.4 0.4-0.4v0h6c0.221 0 0.4 0.179 0.4 0.4s-0.179 0.4-0.4 0.4v0zM26 22.4h-20c-1.325 0-2.4-1.075-2.4-2.4v0-6.146c0-1.325 1.075-2.4 2.4-2.4v0h0.016l20 0.133c1.317 0.013 2.381 1.081 2.385 2.4v6.014c0 1.325-1.075 2.4-2.4 2.4-0 0-0.001 0-0.001 0h0zM6 12.254c-0.884 0-1.6 0.716-1.6 1.6v0 6.146c0 0.884 0.716 1.6 1.6 1.6v0h20c0.884 0 1.6-0.716 1.6-1.6v0-6.014c-0.003-0.879-0.712-1.592-1.59-1.6l-20.001-0.133zM11.6 18.88h-0.769v-4.266h1.747q0.747 0 1.108 0.377c0.224 0.234 0.361 0.553 0.361 0.903 0 0.365-0.149 0.695-0.39 0.933l-0 0c-0.247 0.225-0.578 0.363-0.941 0.363-0.018 0-0.035-0-0.052-0.001l0.002 0h-1.066zM11.6 16.53h0.91q0.356 0 0.544-0.175c0.116-0.111 0.188-0.266 0.188-0.439 0-0.009-0-0.019-0.001-0.028l0 0.001c0-0.003 0-0.007 0-0.011 0-0.17-0.066-0.324-0.174-0.439l0 0q-0.174-0.187-0.626-0.187h-0.841zM14.64 18.88v-4.266h1.576q0.872 0 1.4 0.617t0.528 1.52q0 0.906-0.544 1.516t-1.556 0.613zM15.43 18.252h0.64c0.004 0 0.010 0 0.015 0 0.342 0 0.649-0.149 0.859-0.386l0.001-0.001q0.359-0.387 0.359-1.153c0.001-0.016 0.001-0.035 0.001-0.055 0-0.375-0.118-0.723-0.319-1.008l0.004 0.006c-0.178-0.263-0.475-0.433-0.812-0.433-0.006 0-0.012 0-0.019 0h-0.73zM19.647 18.88h-0.791v-4.266h2.697v0.659h-1.906v1.166h1.5v0.64h-1.5z"></path>
</svg>
