<!-- Generated by IcoMoon.io -->
<svg version="1.1" xmlns="http://www.w3.org/2000/svg" width="32" height="32" viewBox="0 0 32 32">
<path d="M15.333 6.667h9.333c1.105 0 2 0.895 2 2s-0.895 2-2 2h-9.333c-1.105 0-2-0.895-2-2s0.895-2 2-2zM7.333 22.667h17.333c1.105 0 2 0.895 2 2s-0.895 2-2 2h-17.333c-1.105 0-2-0.895-2-2s0.895-2 2-2zM7.333 14.667h17.333c1.105 0 2 0.895 2 2s-0.895 2-2 2h-17.333c-1.105 0-2-0.895-2-2s0.895-2 2-2zM6.438 12.543l3.833-3.343c0.277-0.242 0.306-0.663 0.064-0.941-0.019-0.022-0.040-0.043-0.063-0.063l-3.833-3.364c-0.277-0.243-0.698-0.215-0.941 0.061-0.107 0.122-0.166 0.278-0.166 0.44v6.708c0 0.368 0.298 0.667 0.667 0.667 0.161 0 0.317-0.058 0.438-0.164z"></path>
</svg>
