<!-- Generated by IcoMoon.io -->
<svg version="1.1" xmlns="http://www.w3.org/2000/svg" width="32" height="32" viewBox="0 0 32 32">
<path d="M11.971 25.068c-0.238 1.652-1.925 2.932-3.971 2.932-2.209 0-4-1.492-4-3.333s1.791-3.333 4-3.333c0.467 0 0.916 0.067 1.333 0.19v-13.614c0-0.684 0.426-1.288 1.053-1.492l7.667-2.345c0.966-0.315 1.947 0.437 1.947 1.492 0 1.042 0 1.824 0 2.345 0 0.782-0.732 1.281-1.333 1.424-0.866 0.207-3.088 0.651-6.667 1.333v14.068c0 0.12-0.010 0.231-0.029 0.333zM21.333 12h5.333c0.736 0 1.333 0.597 1.333 1.333s-0.597 1.333-1.333 1.333h-5.333c-0.736 0-1.333-0.597-1.333-1.333s0.597-1.333 1.333-1.333zM18.667 17.333h8c0.736 0 1.333 0.597 1.333 1.333s-0.597 1.333-1.333 1.333h-8c-0.736 0-1.333-0.597-1.333-1.333s0.597-1.333 1.333-1.333zM18.667 22.667h8c0.736 0 1.333 0.597 1.333 1.333s-0.597 1.333-1.333 1.333h-8c-0.736 0-1.333-0.597-1.333-1.333s0.597-1.333 1.333-1.333z"></path>
</svg>
