<!-- Generated by IcoMoon.io -->
<svg version="1.1" xmlns="http://www.w3.org/2000/svg" width="32" height="32" viewBox="0 0 32 32">
<path d="M10.433 13.633c-0.833-1-1.3-2.433-1.3-3.8 0-3.767 3.067-7.1 7.333-7.1 4.133 0 7.267 3.2 7.367 7.167h-3.733c0-2.1-1.467-3.767-3.633-3.767-2.133 0-3.667 1.567-3.667 3.7 0 1.188 0.555 2.249 1.424 2.945 0.061 0.049 0.075 3.533 0.043 10.455h9.126c0.368 0 0.667 0.298 0.667 0.667 0 0.083-0.015 0.164-0.045 0.241l-0.816 2.1c-0.1 0.256-0.346 0.425-0.621 0.425h-14.177c-0.368 0-0.667-0.298-0.667-0.667v-2.1c0-0.368 0.298-0.667 0.667-0.667h2.167v-6.6l-0.133-3zM5.816 15.035l0.667-1.333c0.113-0.226 0.344-0.369 0.596-0.369h13.176c0.368 0 0.667 0.298 0.667 0.667 0 0.104-0.024 0.206-0.070 0.298l-0.667 1.333c-0.113 0.226-0.344 0.369-0.596 0.369h-13.176c-0.368 0-0.667-0.298-0.667-0.667 0-0.104 0.024-0.206 0.070-0.298z"></path>
</svg>
