<!-- Generated by IcoMoon.io -->
<svg version="1.1" xmlns="http://www.w3.org/2000/svg" width="32" height="32" viewBox="0 0 32 32">
<path d="M4.697 18.705c-0.929-0.935-0.929-2.445 0-3.379l10.787-10.605c0.448-0.441 1.052-0.688 1.68-0.688h8.606c1.324 0 2.397 1.073 2.397 2.397v8.581c0 0.643-0.259 1.259-0.717 1.71l-10.769 10.576c-0.45 0.45-1.060 0.703-1.696 0.703s-1.246-0.253-1.696-0.703l-8.592-8.592zM22.574 12.022c1.324 0 2.397-1.073 2.397-2.397s-1.073-2.397-2.397-2.397c-1.324 0-2.397 1.073-2.397 2.397s1.073 2.397 2.397 2.397z"></path>
</svg>
