<!-- Generated by IcoMoon.io -->
<svg version="1.1" xmlns="http://www.w3.org/2000/svg" width="32" height="32" viewBox="0 0 32 32">
<path d="M14.505 6.572l2.828 2.828c0.053 0.053 0.11 0.101 0.169 0.143-0.721 1.49-0.463 3.334 0.773 4.571 1.562 1.562 4.095 1.562 5.657 0s1.562-4.095 0-5.657c-1.236-1.236-3.081-1.494-4.571-0.773-0.042-0.059-0.090-0.116-0.143-0.169l-2.75-2.75c3.124-2.227 7.49-1.938 10.293 0.865 3.124 3.124 3.124 8.189 0 11.314l-12.257 12.257c-1.041 1.041-2.73 1.041-3.771 0l-7.542-7.542c-1.041-1.041-1.041-2.73 0-3.771l11.314-11.314zM11.676 15.057l5.657 5.657c0.521 0.521 0.521 1.365 0 1.886s-1.365 0.521-1.886 0l-5.657-5.657c-0.521-0.521-0.521-1.365 0-1.886s1.365-0.521 1.886 0zM8.848 19.771l3.771 3.771c0.521 0.521 0.521 1.365 0 1.886s-1.365 0.521-1.886 0l-3.771-3.771c-0.521-0.521-0.521-1.365 0-1.886s1.365-0.521 1.886 0z"></path>
</svg>
