<!-- Generated by IcoMoon.io -->
<svg version="1.1" xmlns="http://www.w3.org/2000/svg" width="32" height="32" viewBox="0 0 32 32">
<path d="M6.5 27.667c-0.319 0-0.639-0.128-0.894-0.383l-2.556-2.556c-0.511-0.511-0.511-1.278 0-1.789s1.342-0.511 1.789 0l1.661 1.661 4.217-4.217c0.511-0.511 1.278-0.511 1.789 0s0.511 1.278 0 1.789l-5.111 5.111c-0.256 0.256-0.575 0.383-0.894 0.383zM17.311 24c-0.343-5.212-4.679-9.333-9.978-9.333-0.685 0-1.354 0.069-2 0.2v-5.533c0-1.473 1.194-2.667 2.667-2.667h18.667c1.473 0 2.667 1.194 2.667 2.667v12c0 1.473-1.194 2.667-2.667 2.667h-9.355zM25.526 9.12l-8.193 4.411-8.193-4.411c-0.486-0.262-1.093-0.080-1.355 0.406s-0.080 1.093 0.406 1.355l8.667 4.667c0.296 0.159 0.652 0.159 0.948 0l8.667-4.667c0.486-0.262 0.668-0.868 0.406-1.355s-0.868-0.668-1.355-0.406z"></path>
</svg>
