<!-- Generated by IcoMoon.io -->
<svg version="1.1" xmlns="http://www.w3.org/2000/svg" width="32" height="32" viewBox="0 0 32 32">
<path d="M29.329 16.258c-0.136 4.299-3.664 7.742-7.996 7.742h-5.256v1.31c0 0.368-0.298 0.667-0.667 0.667-0.143 0-0.282-0.046-0.397-0.131l-3.809-2.827c-0.296-0.219-0.357-0.637-0.138-0.933 0.039-0.052 0.085-0.098 0.136-0.137l3.809-2.845c0.295-0.22 0.713-0.16 0.933 0.135 0.086 0.115 0.133 0.255 0.133 0.399v1.696h5.256c2.169 0 4.035-1.294 4.869-3.153 1.18-0.414 2.243-1.076 3.127-1.923zM16.133 8c0.618-3.043 3.308-5.333 6.533-5.333 3.682 0 6.667 2.985 6.667 6.667s-2.985 6.667-6.667 6.667c-3.225 0-5.916-2.29-6.533-5.333h-5.467c-2.946 0-5.333 2.388-5.333 5.333v1.333c0 2.209 1.791 4 4 4v2.667c-3.682 0-6.667-2.985-6.667-6.667v-1.333c0-4.418 3.582-8 8-8h5.467zM22.307 7.557v5.109h1.28v-6.667h-1.163l-2.357 1.899 0.747 0.885 1.493-1.227z"></path>
</svg>
