<!-- Generated by IcoMoon.io -->
<svg version="1.1" xmlns="http://www.w3.org/2000/svg" width="32" height="32" viewBox="0 0 32 32">
<path d="M16 10.667h-5.333c-2.946 0-5.333 2.388-5.333 5.333v1.333c0 2.209 1.791 4 4 4v2.667c-3.682 0-6.667-2.985-6.667-6.667v-1.333c0-4.418 3.582-8 8-8h5.333v-1.696c0-0.144 0.047-0.284 0.133-0.399 0.22-0.295 0.638-0.356 0.933-0.135l3.809 2.845c0.052 0.039 0.098 0.085 0.136 0.137 0.219 0.296 0.158 0.713-0.138 0.933l-3.809 2.827c-0.115 0.085-0.254 0.131-0.397 0.131-0.368 0-0.667-0.298-0.667-0.667v-1.31zM16.078 21.333h5.256c2.946 0 5.333-2.388 5.333-5.333v-1.333c0-2.209-1.791-4-4-4v-2.667c3.682 0 6.667 2.985 6.667 6.667v1.333c0 4.418-3.582 8-8 8h-5.256v1.31c0 0.368-0.298 0.667-0.667 0.667-0.143 0-0.282-0.046-0.397-0.131l-3.809-2.827c-0.296-0.219-0.357-0.637-0.138-0.933 0.039-0.052 0.085-0.098 0.136-0.137l3.809-2.845c0.295-0.22 0.713-0.16 0.933 0.135 0.086 0.115 0.133 0.255 0.133 0.399v1.696z"></path>
</svg>
