<!-- Generated by IcoMoon.io -->
<svg version="1.1" xmlns="http://www.w3.org/2000/svg" width="32" height="32" viewBox="0 0 32 32">
<path d="M5.333 2.667h17.333c0.736 0 1.333 0.597 1.333 1.333v4c0 0.736-0.597 1.333-1.333 1.333h-17.333c-0.736 0-1.333-0.597-1.333-1.333v-4c0-0.736 0.597-1.333 1.333-1.333zM13.333 16h2.667c0.736 0 1.333 0.597 1.333 1.333v10.667c0 0.736-0.597 1.333-1.333 1.333h-2.667c-0.736 0-1.333-0.597-1.333-1.333v-10.667c0-0.736 0.597-1.333 1.333-1.333zM16 16h-2.667v-1.333c0-1.473 1.194-2.667 2.667-2.667h9.333v-4.667h-1.333v-2.667h1.333c1.473 0 2.667 1.194 2.667 2.667v4.667c0 1.473-1.194 2.667-2.667 2.667h-9.333v1.333z"></path>
</svg>
