<!-- Generated by IcoMoon.io -->
<svg version="1.1" xmlns="http://www.w3.org/2000/svg" width="32" height="32" viewBox="0 0 32 32">
<path d="M7.149 21.702l0.667-1.333c0.113-0.226 0.344-0.369 0.596-0.369h13.176c0.368 0 0.667 0.298 0.667 0.667 0 0.104-0.024 0.206-0.070 0.298l-0.667 1.333c-0.113 0.226-0.344 0.369-0.596 0.369h-13.176c-0.368 0-0.667-0.298-0.667-0.667 0-0.104 0.024-0.206 0.070-0.298zM10.667 4.955h6.809c1.247 0 2.372 0.112 3.373 0.337s1.86 0.593 2.576 1.104c0.716 0.511 1.268 1.165 1.656 1.963s0.583 1.758 0.583 2.883c0 1.206-0.225 2.218-0.675 3.036s-1.058 1.477-1.825 1.978c-0.767 0.501-1.661 0.864-2.683 1.089s-2.106 0.337-3.251 0.337h-2.975v8.985h-3.589v-21.712zM16.955 14.431c0.634 0 1.237-0.046 1.809-0.138s1.084-0.256 1.533-0.491c0.45-0.235 0.808-0.557 1.073-0.966s0.399-0.94 0.399-1.595c0-0.634-0.133-1.15-0.399-1.549s-0.618-0.71-1.058-0.935c-0.44-0.225-0.94-0.373-1.503-0.445s-1.14-0.107-1.733-0.107h-2.821v6.225h2.699z"></path>
</svg>
