<!-- Generated by IcoMoon.io -->
<svg version="1.1" xmlns="http://www.w3.org/2000/svg" width="32" height="32" viewBox="0 0 32 32">
<path d="M10.667 9.333c-0.736 0-1.333-0.597-1.333-1.333s0.597-1.333 1.333-1.333h10.667c2.946 0 5.333 2.388 5.333 5.333s-2.388 5.333-5.333 5.333h-10.667c-1.473 0-2.667 1.194-2.667 2.667s1.194 2.667 2.667 2.667h12c0.736 0 1.333 0.597 1.333 1.333s-0.597 1.333-1.333 1.333h-12c-2.946 0-5.333-2.388-5.333-5.333s2.388-5.333 5.333-5.333h10.667c1.473 0 2.667-1.194 2.667-2.667s-1.194-2.667-2.667-2.667h-10.667zM12.943 11.057c0.521 0.521 0.521 1.365 0 1.886s-1.365 0.521-1.886 0l-4-4c-0.521-0.521-0.521-1.365 0-1.886l4-4c0.521-0.521 1.365-0.521 1.886 0s0.521 1.365 0 1.886l-3.057 3.057 3.057 3.057zM19.057 27.057c-0.521 0.521-0.521 1.365 0 1.886s1.365 0.521 1.886 0l4-4c0.521-0.521 0.521-1.365 0-1.886l-4-4c-0.521-0.521-1.365-0.521-1.886 0s-0.521 1.365 0 1.886l3.057 3.057-3.057 3.057z"></path>
</svg>
