<!-- Generated by IcoMoon.io -->
<svg version="1.1" xmlns="http://www.w3.org/2000/svg" width="32" height="32" viewBox="0 0 32 32">
<path d="M14.114 8.458l0.943 0.943c0.521 0.521 1.365 0.521 1.886 0s0.521-1.365 0-1.886l-0.943-0.943 1.886-1.886 2.828 2.828c0.521 0.521 1.365 0.521 1.886 0s0.521-1.365 0-1.886l-2.828-2.828c1.041-1.041 2.73-1.041 3.771 0l5.657 5.657c1.041 1.041 1.041 2.73 0 3.771l-16.971 16.971c-1.041 1.041-2.73 1.041-3.771 0l-5.657-5.657c-1.041-1.041-1.041-2.73 0-3.771l2.828 2.828c0.521 0.521 1.365 0.521 1.886 0s0.521-1.365 0-1.886l-2.828-2.828 1.886-1.886 0.943 0.943c0.521 0.521 1.365 0.521 1.886 0s0.521-1.365 0-1.886l-0.943-0.943 1.886-1.886 2.828 2.828c0.521 0.521 1.365 0.521 1.886 0s0.521-1.365 0-1.886l-2.828-2.828 1.886-1.886z"></path>
</svg>
