<!-- Generated by IcoMoon.io -->
<svg version="1.1" xmlns="http://www.w3.org/2000/svg" width="32" height="32" viewBox="0 0 32 32">
<path d="M10.667 22.667c0.736 0 1.333 0.597 1.333 1.333v4c0 0.736-0.597 1.333-1.333 1.333h-6.667c-0.736 0-1.333-0.597-1.333-1.333v-4c0-0.736 0.597-1.333 1.333-1.333v-0.667c0-1.841 1.492-3.333 3.333-3.333s3.333 1.492 3.333 3.333v0.667zM7.333 20c-1.105 0-2 0.895-2 2v0.667h4v-0.667c0-1.105-0.895-2-2-2zM2.667 15.82v-7.82c0-2.209 1.791-4 4-4h18.667c2.209 0 4 1.791 4 4v12c0 0.004 0 0.009-0 0.013l0.033-0.013v6.114c0 0.736-0.597 1.333-1.333 1.333-0.354 0-0.693-0.14-0.943-0.391l-3.057-3.057h-6.722c-0.343-5.212-4.679-9.333-9.978-9.333-1.685 0-3.274 0.417-4.667 1.153zM8 9.333c-0.736 0-1.333 0.597-1.333 1.333s0.597 1.333 1.333 1.333h12c0.736 0 1.333-0.597 1.333-1.333s-0.597-1.333-1.333-1.333h-12z"></path>
</svg>
