<!-- Generated by IcoMoon.io -->
<svg version="1.1" xmlns="http://www.w3.org/2000/svg" width="32" height="32" viewBox="0 0 32 32">
<path d="M8.667 21.333h1.333c1.105 0 2 0.895 2 2v2.667c0 1.105-0.895 2-2 2h-1.333c-1.105 0-2-0.895-2-2v-2.667c0-1.105 0.895-2 2-2zM22 21.333h1.333c1.105 0 2 0.895 2 2v2.667c0 1.105-0.895 2-2 2h-1.333c-1.105 0-2-0.895-2-2v-2.667c0-1.105 0.895-2 2-2zM6.667 5.333h18.667c1.473 0 2.667 1.194 2.667 2.667v14.667c0 1.473-1.194 2.667-2.667 2.667h-18.667c-1.473 0-2.667-1.194-2.667-2.667v-14.667c0-1.473 1.194-2.667 2.667-2.667zM20.667 20c2.577 0 4.667-2.089 4.667-4.667s-2.089-4.667-4.667-4.667c-2.577 0-4.667 2.089-4.667 4.667s2.089 4.667 4.667 4.667zM20.667 17.333c1.105 0 2-0.895 2-2s-0.895-2-2-2c-1.105 0-2 0.895-2 2s0.895 2 2 2zM9.333 10.667v0c0.736 0 1.333 0.597 1.333 1.333v2.667c0 0.736-0.597 1.333-1.333 1.333v0c-0.736 0-1.333-0.597-1.333-1.333v-2.667c0-0.736 0.597-1.333 1.333-1.333z"></path>
</svg>
