<!-- Generated by IcoMoon.io -->
<svg version="1.1" xmlns="http://www.w3.org/2000/svg" width="32" height="32" viewBox="0 0 32 32">
<path d="M21.376 7.583l-13.699 13.678c-0.849 0.847-0.85 2.222-0.002 3.071 0 0 0.001 0.001 0.001 0.001v0c0.848 0.848 2.223 0.848 3.071 0 0-0 0.001-0.001 0.001-0.001l13.678-13.699c0.841-0.842 0.841-2.207-0.001-3.049v0c-0.842-0.842-2.206-0.842-3.049-0.001zM13.143 9.238c0 2.158-1.747 3.905-3.903 3.905s-3.907-1.746-3.907-3.905c0-2.158 1.751-3.905 3.907-3.905s3.903 1.746 3.903 3.905zM26.667 22.762c0 2.158-1.747 3.905-3.903 3.905s-3.907-1.746-3.907-3.905c0-2.162 1.751-3.905 3.907-3.905s3.903 1.742 3.903 3.905z"></path>
</svg>
