<!-- Generated by IcoMoon.io -->
<svg version="1.1" xmlns="http://www.w3.org/2000/svg" width="32" height="32" viewBox="0 0 32 32">
<path d="M16 26.696l-4.702 2.276-2.139-4.766-5.065-1.279 1.425-5.026-3.058-4.235 4.322-2.934 0.38-5.21 5.197 0.53 3.64-3.747 3.64 3.747 5.197-0.53 0.38 5.21 4.322 2.934-3.058 4.235 1.425 5.026-5.065 1.279-2.139 4.766zM18.785 11.47l-7.638 8.132 1.797 1.797 7.638-8.132zM14.472 12.234c0 1.267-1.025 2.291-2.291 2.291-1.264 0-2.291-1.025-2.291-2.291s1.027-2.291 2.291-2.291c1.266 0 2.291 1.025 2.291 2.291zM19.819 22.163c-1.264 0-2.291-1.025-2.291-2.291 0-1.269 1.027-2.291 2.291-2.291 1.266 0 2.291 1.023 2.291 2.291 0 1.267-1.025 2.291-2.291 2.291z"></path>
</svg>
