<!-- Generated by IcoMoon.io -->
<svg version="1.1" xmlns="http://www.w3.org/2000/svg" width="32" height="32" viewBox="0 0 32 32">
<path d="M22.667 5.333h-14.667c-1.612 0-2.667 0.933-2.667 2.667v16c0 1.733 1.055 2.667 2.667 2.667h16c1.6 0 2.667-0.933 2.667-2.667v-14.391c0-0.177-0.070-0.346-0.195-0.471l-3.805-3.805zM22.667 14.667h-13.333v-9.333h13.333v9.333zM16.667 5.333h2.667c0.368 0 0.667 0.298 0.667 0.667v5.333c0 0.368-0.298 0.667-0.667 0.667h-2.667c-0.368 0-0.667-0.298-0.667-0.667v-5.333c0-0.368 0.298-0.667 0.667-0.667z"></path>
</svg>
