<!-- Generated by IcoMoon.io -->
<svg version="1.1" xmlns="http://www.w3.org/2000/svg" width="32" height="32" viewBox="0 0 32 32">
<path d="M13.333 18.667h-6.667c-0.889-0.152-1.333-0.597-1.333-1.333s0.444-1.181 1.333-1.333h9.333v9.333c0 0.889-0.444 1.333-1.333 1.333s-1.333-0.444-1.333-1.333v-6.667zM20 12h6.667c0.889 0.152 1.333 0.597 1.333 1.333s-0.444 1.181-1.333 1.333h-9.333v-9.333c0-0.889 0.444-1.333 1.333-1.333s1.333 0.444 1.333 1.333v6.667zM5.172 24.943l3.771-3.771c0.521-0.521 1.365-0.521 1.886 0s0.521 1.365 0 1.886l-3.771 3.771c-0.521 0.521-1.365 0.521-1.886 0s-0.521-1.365 0-1.886zM22.505 7.609l3.771-3.771c0.521-0.521 1.365-0.521 1.886 0s0.521 1.365 0 1.886l-3.771 3.771c-0.521 0.521-1.365 0.521-1.886 0s-0.521-1.365 0-1.886z"></path>
</svg>
