<!-- Generated by IcoMoon.io -->
<svg version="1.1" xmlns="http://www.w3.org/2000/svg" width="32" height="32" viewBox="0 0 32 32">
<path d="M10.276 15.529l-4.734-2.525c-0.26-0.139-0.358-0.462-0.22-0.722 0.122-0.229 0.392-0.337 0.639-0.255l6.802 2.258-2.487 1.243zM16.976 19.102l4.848-1.808 3.015 1.003c1.838 0.627 3.16 2.368 3.16 4.418 0 2.577-2.089 4.667-4.667 4.667s-4.667-2.089-4.667-4.667c0-0.864 0.235-1.673 0.644-2.367l-2.335-1.245zM23.333 20.715c-1.105 0-2 0.895-2 2s0.895 2 2 2c1.105 0 2-0.895 2-2s-0.895-2-2-2zM23.333 12c1.105 0 2-0.895 2-2s-0.895-2-2-2c-1.105 0-2 0.895-2 2s0.895 2 2 2zM19.311 12.367c-0.409-0.694-0.644-1.503-0.644-2.367 0-2.577 2.089-4.667 4.667-4.667s4.667 2.089 4.667 4.667c0 2.050-1.322 3.791-3.16 4.418l0.002 0.001-18.881 6.268c-0.247 0.082-0.516-0.026-0.639-0.255-0.139-0.26-0.040-0.583 0.22-0.722l13.769-7.343z"></path>
</svg>
