<!-- Generated by IcoMoon.io -->
<svg version="1.1" xmlns="http://www.w3.org/2000/svg" width="32" height="32" viewBox="0 0 32 32">
<path d="M11.286 15.057l-1.414-1.414c-0.26-0.26-0.26-0.682 0-0.943l0.943-0.943c0.26-0.26 0.682-0.26 0.943 0l8.485 8.485c0.26 0.26 0.26 0.682 0 0.943l-0.943 0.943c-0.26 0.26-0.682 0.26-0.943 0l-1.414-1.414-7.542 7.542c-1.041 1.041-2.73 1.041-3.771 0l-1.886-1.886c-1.041-1.041-1.041-2.73 0-3.771l7.542-7.542zM6.101 24.014c-0.26 0.26-0.26 0.682 0 0.943s0.682 0.26 0.943 0l5.657-5.657c0.26-0.26 0.26-0.682 0-0.943s-0.682-0.26-0.943 0l-5.657 5.657zM22.6 7.515l-0.228-0.228c-0.26-0.26-0.26-0.682 0-0.943 0.064-0.064 0.14-0.114 0.224-0.148l3.367-1.347c0.248-0.099 0.53-0.041 0.719 0.148l0.321 0.321c0.189 0.189 0.247 0.471 0.148 0.719l-1.347 3.367c-0.137 0.342-0.525 0.508-0.867 0.371-0.084-0.034-0.16-0.084-0.224-0.148l-0.228-0.228-7.542 7.542-1.886-1.886 7.542-7.542z"></path>
</svg>
