<!-- Generated by IcoMoon.io -->
<svg version="1.1" xmlns="http://www.w3.org/2000/svg" width="32" height="32" viewBox="0 0 32 32">
<path d="M19.057 22.276c-0.521-0.521-0.521-1.365 0-1.886s1.365-0.521 1.886 0l5.333 5.333c0.521 0.521 0.521 1.365 0 1.886s-1.365 0.521-1.886 0l-5.333-5.333zM14.667 21.333c3.682 0 6.667-2.985 6.667-6.667s-2.985-6.667-6.667-6.667c-3.682 0-6.667 2.985-6.667 6.667s2.985 6.667 6.667 6.667zM14.667 24c-5.155 0-9.333-4.179-9.333-9.333s4.179-9.333 9.333-9.333c5.155 0 9.333 4.179 9.333 9.333s-4.179 9.333-9.333 9.333z"></path>
</svg>
