<!-- Generated by IcoMoon.io -->
<svg version="1.1" xmlns="http://www.w3.org/2000/svg" width="32" height="32" viewBox="0 0 32 32">
<path d="M6.476 1.333h9.172c0.473 0 0.931 0.168 1.292 0.473l6.351 5.372c0.449 0.38 0.708 0.939 0.708 1.527v16.739c0 2.387-0.027 2.556-2.476 2.556h-15.048c-2.449 0-2.476-0.168-2.476-2.556v-21.556c0-2.387 0.027-2.556 2.476-2.556zM10.667 16c-0.736 0-1.333 0.597-1.333 1.333s0.597 1.333 1.333 1.333h9.333c0.736 0 1.333-0.597 1.333-1.333s-0.597-1.333-1.333-1.333h-9.333zM10.667 21.333c-0.736 0-1.333 0.597-1.333 1.333s0.597 1.333 1.333 1.333h4c0.736 0 1.333-0.597 1.333-1.333s-0.597-1.333-1.333-1.333h-4zM9.143 4h10.506c0.473 0 0.931 0.168 1.292 0.473l6.351 5.372c0.449 0.38 0.708 0.939 0.708 1.527v16.739c0 2.387-0.027 2.556-2.476 2.556h-16.381c-2.449 0-2.476-0.168-2.476-2.556v-21.556c0-2.387 0.027-2.556 2.476-2.556zM10.667 16c-0.736 0-1.333 0.597-1.333 1.333s0.597 1.333 1.333 1.333h9.333c0.736 0 1.333-0.597 1.333-1.333s-0.597-1.333-1.333-1.333h-9.333zM10.667 21.333c-0.736 0-1.333 0.597-1.333 1.333s0.597 1.333 1.333 1.333h4c0.736 0 1.333-0.597 1.333-1.333s-0.597-1.333-1.333-1.333h-4z"></path>
</svg>
