<!-- Generated by IcoMoon.io -->
<svg version="1.1" xmlns="http://www.w3.org/2000/svg" width="32" height="32" viewBox="0 0 32 32">
<path d="M5.333 21.333h1.333c0.736 0 1.333 0.597 1.333 1.333s-0.597 1.333-1.333 1.333h-1.333c-0.736 0-1.333-0.597-1.333-1.333s0.597-1.333 1.333-1.333zM1.333 14.667h5.333c0.736 0 1.333 0.597 1.333 1.333s-0.597 1.333-1.333 1.333h-5.333c-0.736 0-1.333-0.597-1.333-1.333s0.597-1.333 1.333-1.333zM4 8h2.667c0.736 0 1.333 0.597 1.333 1.333s-0.597 1.333-1.333 1.333h-2.667c-0.736 0-1.333-0.597-1.333-1.333s0.597-1.333 1.333-1.333zM13.333 8h16c1.473 0 2.667 1.194 2.667 2.667v10.667c0 1.473-1.194 2.667-2.667 2.667h-16c-1.473 0-2.667-1.194-2.667-2.667v-10.667c0-1.473 1.194-2.667 2.667-2.667zM28.113 10.762l-6.78 3.529-6.78-3.529c-0.402-0.209-0.904-0.064-1.121 0.325s-0.066 0.874 0.336 1.084l7.172 3.733c0.245 0.128 0.54 0.128 0.785 0l7.172-3.733c0.402-0.209 0.553-0.695 0.336-1.084s-0.719-0.535-1.121-0.325z"></path>
</svg>
