<!-- Generated by IcoMoon.io -->
<svg version="1.1" xmlns="http://www.w3.org/2000/svg" width="32" height="32" viewBox="0 0 32 32">
<path d="M10.667 17.556l16.596-1.556-16.596-1.556v-6.748c0-0.094 0.020-0.188 0.059-0.274 0.151-0.336 0.546-0.485 0.882-0.334l18.454 8.304c0.149 0.067 0.267 0.186 0.334 0.334 0.151 0.336 0.001 0.73-0.334 0.882l-18.454 8.304c-0.086 0.039-0.179 0.059-0.274 0.059-0.368 0-0.667-0.298-0.667-0.667v-6.748zM5.333 21.333h1.333c0.736 0 1.333 0.597 1.333 1.333s-0.597 1.333-1.333 1.333h-1.333c-0.736 0-1.333-0.597-1.333-1.333s0.597-1.333 1.333-1.333zM1.333 14.667h5.333c0.736 0 1.333 0.597 1.333 1.333s-0.597 1.333-1.333 1.333h-5.333c-0.736 0-1.333-0.597-1.333-1.333s0.597-1.333 1.333-1.333zM5.333 8h1.333c0.736 0 1.333 0.597 1.333 1.333s-0.597 1.333-1.333 1.333h-1.333c-0.736 0-1.333-0.597-1.333-1.333s0.597-1.333 1.333-1.333z"></path>
</svg>
