<!-- Generated by IcoMoon.io -->
<svg version="1.1" xmlns="http://www.w3.org/2000/svg" width="32" height="32" viewBox="0 0 32 32">
<path d="M24.83 13h0.17c1.657 0 3 1.343 3 3s-1.343 3-3 3h-0.086c-0.259 0.001-0.493 0.156-0.595 0.394-0.112 0.253-0.060 0.537 0.118 0.719l0.060 0.060c0.563 0.563 0.88 1.326 0.88 2.122s-0.317 1.56-0.879 2.122c-0.563 0.563-1.326 0.88-2.122 0.88s-1.56-0.317-2.122-0.879l-0.052-0.052c-0.19-0.186-0.474-0.237-0.727-0.126-0.238 0.102-0.393 0.336-0.394 0.591v0.17c0 1.657-1.343 3-3 3s-3-1.343-3-3c-0.006-0.333-0.175-0.569-0.484-0.685-0.243-0.107-0.527-0.056-0.709 0.122l-0.060 0.060c-0.563 0.563-1.326 0.88-2.123 0.88s-1.56-0.317-2.122-0.879c-0.563-0.563-0.88-1.326-0.88-2.122s0.317-1.56 0.879-2.122l0.052-0.052c0.186-0.19 0.237-0.474 0.126-0.727-0.102-0.238-0.336-0.393-0.591-0.394h-0.17c-1.657 0-3-1.343-3-3s1.343-3 3-3c0.333-0.006 0.569-0.175 0.685-0.484 0.107-0.243 0.056-0.527-0.122-0.709l-0.060-0.060c-0.563-0.563-0.88-1.326-0.88-2.123s0.317-1.56 0.879-2.122c0.563-0.563 1.326-0.88 2.122-0.88s1.56 0.317 2.122 0.879l0.052 0.052c0.19 0.186 0.474 0.237 0.717 0.13l0.144-0.030c0.207-0.112 0.339-0.33 0.34-0.565v-0.17c0-1.657 1.343-3 3-3s3 1.343 3 3v0.086c0.001 0.259 0.156 0.493 0.404 0.599 0.243 0.107 0.527 0.056 0.709-0.122l0.060-0.060c0.563-0.563 1.326-0.88 2.122-0.88s1.56 0.317 2.122 0.879c0.563 0.563 0.88 1.326 0.88 2.122s-0.317 1.56-0.879 2.122l-0.052 0.052c-0.186 0.19-0.237 0.474-0.13 0.717l0.030 0.144c0.112 0.207 0.329 0.339 0.565 0.34zM16 20c2.209 0 4-1.791 4-4s-1.791-4-4-4c-2.209 0-4 1.791-4 4s1.791 4 4 4z"></path>
</svg>
