<!-- Generated by IcoMoon.io -->
<svg version="1.1" xmlns="http://www.w3.org/2000/svg" width="32" height="32" viewBox="0 0 32 32">
<path d="M20.164 25.348l-9.714-5.59c0.643-0.647 1.121-1.458 1.366-2.365l9.648 5.602c-0.617 0.65-1.072 1.456-1.3 2.352zM10.341 12.134l9.762-5.751c0.186 0.931 0.614 1.775 1.216 2.462l-9.5 5.775c-0.257-0.963-0.777-1.819-1.479-2.487zM29.333 5.333c0 2.209-1.791 4-4 4s-4-1.791-4-4c0-2.209 1.791-4 4-4s4 1.791 4 4zM29.333 26.667c0 2.209-1.791 4-4 4s-4-1.791-4-4c0-2.209 1.791-4 4-4s4 1.791 4 4zM10.667 16c0 2.209-1.791 4-4 4s-4-1.791-4-4c0-2.209 1.791-4 4-4s4 1.791 4 4z"></path>
</svg>
