<!-- Generated by IcoMoon.io -->
<svg version="1.1" xmlns="http://www.w3.org/2000/svg" width="32" height="32" viewBox="0 0 32 32">
<path d="M14.533 2.667c0.736 0 1.333 0.597 1.333 1.333s-0.597 1.333-1.333 1.333h-6.533c-1.473 0-2.667 1.194-2.667 2.667v16c0 1.473 1.194 2.667 2.667 2.667h16c1.473 0 2.667-1.194 2.667-2.667v-2.667c0-0.736 0.597-1.333 1.333-1.333s1.333 0.597 1.333 1.333v2.667c0 2.946-2.388 5.333-5.333 5.333h-16c-2.946 0-5.333-2.388-5.333-5.333v-16c0-2.946 2.388-5.333 5.333-5.333h6.533zM9.339 18.53c0-1.017-0.218-5.030 2.948-8.214 2.131-2.143 5.32-2.515 9.133-2.684v-5.181c0-0.552 0.448-1 1-1 0.248 0 0.488 0.092 0.672 0.259l8.678 7.872c0.409 0.371 0.44 1.004 0.069 1.413-0.019 0.021-0.040 0.042-0.061 0.062l-8.678 8.036c-0.405 0.375-1.038 0.351-1.413-0.054-0.171-0.185-0.266-0.428-0.266-0.679v-5.149c-2.421 0.067-4.146 0.221-5.713 0.719-2.246 0.715-3.985 2.737-5.215 6.066h-0c-0.145 0.393-0.519 0.653-0.938 0.653h-0.221c0-0.611 0.006-1.58 0.006-2.119z"></path>
</svg>
