<!-- Generated by IcoMoon.io -->
<svg version="1.1" xmlns="http://www.w3.org/2000/svg" width="32" height="32" viewBox="0 0 32 32">
<path d="M5.333 5.333l10.175-1.908c0.325-0.061 0.658-0.061 0.983 0l10.175 1.908v12.377c0 3.913-2.016 7.549-5.333 9.623l-4.627 2.892c-0.432 0.27-0.981 0.27-1.413 0l-4.627-2.892c-3.318-2.074-5.333-5.71-5.333-9.623v-12.377zM16 14.667c-1.473 0-2.667-1.194-2.667-2.667s1.194-2.667 2.667-2.667c1.473 0 2.667 1.194 2.667 2.667s-1.194 2.667-2.667 2.667zM9.334 21.999c0.287-3.977 3.156-5.999 6.654-5.999 3.547 0 6.46 1.911 6.677 6 0.009 0.163 0 0.667-0.556 0.667-2.745 0-6.824 0-12.236 0-0.186 0-0.554-0.451-0.538-0.667z"></path>
</svg>
