<!-- Generated by IcoMoon.io -->
<svg version="1.1" xmlns="http://www.w3.org/2000/svg" width="32" height="32" viewBox="0 0 32 32">
<path d="M24.892 16h-4.892v8h-8v-8h-4.899l8.888-8.895 8.902 8.895zM9.333 18.667v6.667c0 0.736 0.597 1.333 1.333 1.333h10.667c0.736 0 1.333-0.597 1.333-1.333v-6.667h6.251c0.265 0 0.52-0.105 0.707-0.293 0.39-0.391 0.39-1.024-0.001-1.414l-12.929-12.919c-0.391-0.39-1.024-0.39-1.414 0.001l-12.909 12.919c-0.187 0.188-0.293 0.442-0.293 0.707 0 0.552 0.448 1 1 1h6.254z"></path>
</svg>
