<!-- Generated by IcoMoon.io -->
<svg version="1.1" xmlns="http://www.w3.org/2000/svg" width="32" height="32" viewBox="0 0 32 32">
<path d="M8.458 6.572l9.428 9.428-1.886 1.886-9.428-9.428h-4.047c-0.177 0-0.346-0.070-0.471-0.195-0.26-0.26-0.26-0.682 0-0.943l5.266-5.266c0.125-0.125 0.295-0.195 0.471-0.195 0.368 0 0.667 0.298 0.667 0.667v4.047zM22.6 13.172l3.767 4.346c1.49 1.719 2.1 4.030 1.654 6.26l-0.533 2.664c-0.106 0.528-0.518 0.94-1.046 1.046l-2.664 0.533c-2.23 0.446-4.541-0.165-6.26-1.654l-4.346-3.767 9.428-9.428zM18.060 21.365c-1.018-0.861-2.31 0.666-1.292 1.527l3.064 2.593c1.018 0.861 2.31-0.666 1.292-1.527l-3.064-2.593z"></path>
</svg>
