<!-- Generated by IcoMoon.io -->
<svg version="1.1" xmlns="http://www.w3.org/2000/svg" width="32" height="32" viewBox="0 0 32 32">
<path d="M10.164 7.070c0.616-0.403 1.442-0.231 1.846 0.385s0.231 1.442-0.385 1.846c-2.245 1.47-3.625 3.966-3.625 6.699 0 4.418 3.582 8 8 8s8-3.582 8-8c0-2.673-1.319-5.12-3.483-6.604-0.607-0.416-0.762-1.246-0.346-1.854s1.246-0.762 1.854-0.346c2.882 1.976 4.642 5.242 4.642 8.804 0 5.891-4.776 10.667-10.667 10.667s-10.667-4.776-10.667-10.667c0-3.642 1.841-6.972 4.831-8.93zM16 4c0.736 0 1.333 0.597 1.333 1.333v10.667c0 0.736-0.597 1.333-1.333 1.333s-1.333-0.597-1.333-1.333v-10.667c0-0.736 0.597-1.333 1.333-1.333z"></path>
</svg>
