<!-- Generated by IcoMoon.io -->
<svg version="1.1" xmlns="http://www.w3.org/2000/svg" width="32" height="32" viewBox="0 0 32 32">
<path d="M18.668 9.333c0 0.736 0.597 1.333 1.333 1.333s1.333-0.597 1.333-1.333v-1.333c0-2.946-2.387-5.333-5.331-5.333h-7.995c-2.944 0-5.331 2.388-5.331 5.333v16c0 2.946 2.387 5.333 5.331 5.333h8.005c2.944 0 5.331-2.388 5.331-5.333v-1.333c0-0.736-0.597-1.333-1.333-1.333s-1.333 0.597-1.333 1.333v1.333c0 1.473-1.193 2.667-2.666 2.667h-8.005c-1.472 0-2.665-1.194-2.665-2.667v-16c0-1.473 1.193-2.667 2.665-2.667h7.995c1.472 0 2.666 1.194 2.666 2.667v1.333zM26.667 16c0 0.736-0.597 1.333-1.333 1.333h-13.333c-0.736 0-1.333-0.597-1.333-1.333s0.597-1.333 1.333-1.333h13.333c0.736 0 1.333 0.597 1.333 1.333zM23.057 12.943c-0.521-0.521-0.521-1.365 0-1.886s1.365-0.521 1.886 0l4 4c0.521 0.521 0.521 1.365 0 1.886l-4 4c-0.521 0.521-1.365 0.521-1.886 0s-0.521-1.365 0-1.886l3.057-3.057-3.057-3.057z"></path>
</svg>
