<!-- Generated by IcoMoon.io -->
<svg version="1.1" xmlns="http://www.w3.org/2000/svg" width="32" height="32" viewBox="0 0 32 32">
<path d="M24 8h-9.333c-0.889-0.152-1.333-0.597-1.333-1.333s0.444-1.181 1.333-1.333h12v12c0 0.889-0.444 1.333-1.333 1.333s-1.333-0.444-1.333-1.333v-9.333zM8 24h9.333c0.889 0.152 1.333 0.597 1.333 1.333s-0.444 1.181-1.333 1.333h-12v-12c0-0.889 0.444-1.333 1.333-1.333s1.333 0.444 1.333 1.333v9.333zM11.286 18.828l7.542-7.542c0.521-0.521 1.365-0.521 1.886 0s0.521 1.365 0 1.886l-7.542 7.542c-0.521 0.521-1.365 0.521-1.886 0s-0.521-1.365 0-1.886z"></path>
</svg>
