<!-- Generated by IcoMoon.io -->
<svg version="1.1" xmlns="http://www.w3.org/2000/svg" width="32" height="32" viewBox="0 0 32 32">
<path d="M6 4h20c1.105 0 2 0.895 2 2v20c0 1.105-0.895 2-2 2h-20c-1.105 0-2-0.895-2-2v-20c0-1.105 0.895-2 2-2zM10.667 6.667c-0.736 0-1.333 0.597-1.333 1.333s0.597 1.333 1.333 1.333h10.667c0.736 0 1.333-0.597 1.333-1.333s-0.597-1.333-1.333-1.333h-10.667zM14.114 18.667l-1.886 1.886c-0.521 0.521-0.521 1.365 0 1.886s1.365 0.521 1.886 0l1.886-1.886 1.886 1.886c0.521 0.521 1.365 0.521 1.886 0s0.521-1.365 0-1.886l-1.886-1.886 1.886-1.886c0.521-0.521 0.521-1.365 0-1.886s-1.365-0.521-1.886 0l-1.886 1.886-1.886-1.886c-0.521-0.521-1.365-0.521-1.886 0s-0.521 1.365 0 1.886l1.886 1.886z"></path>
</svg>
