<!-- Generated by IcoMoon.io -->
<svg version="1.1" xmlns="http://www.w3.org/2000/svg" width="32" height="32" viewBox="0 0 32 32">
<path d="M19.484 1.685l10.164 10.164c0.26 0.26 0.26 0.682 0 0.943-0.031 0.031-0.065 0.059-0.102 0.083l-8.906 5.937c-2.322 1.548-5.414 1.242-7.388-0.732v0c-1.974-1.974-2.28-5.066-0.732-7.388l5.937-8.906c0.204-0.306 0.618-0.389 0.924-0.185 0.037 0.024 0.071 0.052 0.102 0.083zM10.95 17.664l2.719 2.719-2.37 5.042c-0.952 2.025-3.365 2.895-5.391 1.943-0.424-0.199-0.81-0.471-1.141-0.802-1.582-1.582-1.582-4.148 0-5.73 0.331-0.331 0.717-0.602 1.141-0.802l5.042-2.37zM6.114 25.219c0.751 0.751 1.962 0.756 2.706 0.013s0.738-1.956-0.013-2.706c-0.751-0.751-1.962-0.756-2.706-0.013s-0.738 1.956 0.013 2.706z"></path>
</svg>
