<!-- Generated by IcoMoon.io -->
<svg version="1.1" xmlns="http://www.w3.org/2000/svg" width="32" height="32" viewBox="0 0 32 32">
<path d="M16 4c5.891 0 10.667 4.776 10.667 10.667v13.333c0 0.736-0.597 1.333-1.333 1.333h-18.667c-0.736 0-1.333-0.597-1.333-1.333v-13.333c0-5.891 4.776-10.667 10.667-10.667zM12 13.333c-2.209 0-4 1.791-4 4s1.791 4 4 4h8c2.209 0 4-1.791 4-4s-1.791-4-4-4h-8zM20 18.667c-0.736 0-1.333-0.597-1.333-1.333s0.597-1.333 1.333-1.333c0.736 0 1.333 0.597 1.333 1.333s-0.597 1.333-1.333 1.333zM12 18.667c-0.736 0-1.333-0.597-1.333-1.333s0.597-1.333 1.333-1.333c0.736 0 1.333 0.597 1.333 1.333s-0.597 1.333-1.333 1.333z"></path>
</svg>
