<!-- Generated by IcoMoon.io -->
<svg version="1.1" xmlns="http://www.w3.org/2000/svg" width="32" height="32" viewBox="0 0 32 32">
<path d="M16 29.333c-7.364 0-13.333-5.97-13.333-13.333s5.97-13.333 13.333-13.333c7.364 0 13.333 5.97 13.333 13.333s-5.97 13.333-13.333 13.333zM16 26.667c5.891 0 10.667-4.776 10.667-10.667s-4.776-10.667-10.667-10.667c-5.891 0-10.667 4.776-10.667 10.667s4.776 10.667 10.667 10.667zM25.428 6.572v0c0.521 0.521 0.521 1.365 0 1.886l-16.971 16.971c-0.521 0.521-1.365 0.521-1.886 0v0c-0.521-0.521-0.521-1.365 0-1.886l16.971-16.971c0.521-0.521 1.365-0.521 1.886 0z"></path>
</svg>
