<svg width="24" height="24" viewBox="0 0 24 24" fill="none" xmlns="http://www.w3.org/2000/svg">
<path d="M16.42 7.95012C18.86 10.3901 18.86 14.3501 16.42 16.7901C13.98 19.2301 10.02 19.2301 7.58 16.7901C5.14 14.3501 5.14 10.3901 7.58 7.95012C10.02 5.51012 13.98 5.51012 16.42 7.95012Z" fill="#292D32"/>
<path d="M8.24997 22.3899C8.15997 22.3899 8.05997 22.3699 7.96997 22.3399C5.71997 21.4399 3.89997 19.8499 2.67997 17.7499C1.49997 15.6999 1.02997 13.3799 1.33997 11.0199C1.38997 10.6099 1.77997 10.3199 2.17997 10.3699C2.58997 10.4199 2.87997 10.7999 2.82997 11.2099C2.56997 13.2399 2.96997 15.2399 3.97997 16.9999C5.01997 18.7999 6.58997 20.1699 8.51997 20.9399C8.89997 21.0999 9.08997 21.5299 8.93997 21.9199C8.82997 22.2099 8.53997 22.3899 8.24997 22.3899Z" fill="#292D32"/>
<path d="M5.84998 5.22986C5.62998 5.22986 5.40998 5.12986 5.25998 4.93986C4.99998 4.61986 5.05998 4.14986 5.38998 3.88986C7.28998 2.39986 9.57998 1.60986 12 1.60986C14.36 1.60986 16.61 2.36986 18.5 3.80986C18.83 4.05986 18.89 4.52986 18.64 4.85986C18.39 5.18986 17.92 5.24986 17.59 4.99986C15.96 3.75986 14.03 3.10986 12 3.10986C9.91998 3.10986 7.94998 3.78986 6.30998 5.06986C6.16998 5.17986 6.00998 5.22986 5.84998 5.22986Z" fill="#292D32"/>
<path d="M15.75 22.3901C15.45 22.3901 15.17 22.2101 15.05 21.9201C14.9 21.5401 15.08 21.1001 15.47 20.9401C17.4 20.1601 18.97 18.8001 20.01 17.0001C21.03 15.2401 21.43 13.2401 21.16 11.2201C21.11 10.8101 21.4 10.4301 21.81 10.3801C22.21 10.3301 22.6 10.6201 22.65 11.0301C22.95 13.3801 22.49 15.7101 21.31 17.7601C20.1 19.8601 18.27 21.4401 16.02 22.3501C15.94 22.3701 15.85 22.3901 15.75 22.3901Z" fill="#292D32"/>
</svg>
