<!-- Generated by IcoMoon.io -->
<svg version="1.1" xmlns="http://www.w3.org/2000/svg" width="32" height="32" viewBox="0 0 32 32">
<path d="M6.667 14.667h20c0.736 0 1.333 0.597 1.333 1.333s-0.597 1.333-1.333 1.333h-20c-0.736 0-1.333-0.597-1.333-1.333s0.597-1.333 1.333-1.333zM16.080 25.547c-2.747 0-5.040-1.333-6.16-2.933l1.84-1.6c0.907 1.173 2.453 2.213 4.293 2.213 2.187 0 3.573-1.013 3.573-2.667 0-1.733-1.067-2.64-3.093-3.52l-1.733-0.747c-2.88-1.227-4.133-2.987-4.133-5.36 0-2.88 2.72-4.747 5.52-4.747 2.213 0 4.027 0.88 5.307 2.427l-1.707 1.707c-0.987-1.173-2.027-1.813-3.68-1.813-1.6 0-3.013 0.907-3.013 2.48 0 1.387 0.8 2.32 2.8 3.2l1.733 0.747c2.56 1.12 4.453 2.693 4.453 5.36 0 3.093-2.293 5.253-6 5.253z"></path>
</svg>
