<!-- Generated by IcoMoon.io -->
<svg version="1.1" xmlns="http://www.w3.org/2000/svg" width="32" height="32" viewBox="0 0 32 32">
<path d="M9.333 22.667c3.041 0 5.333-1.375 5.333-2.667s-2.292-2.667-5.333-2.667c-3.041 0-5.333 1.375-5.333 2.667s2.292 2.667 5.333 2.667zM15.333 28.412c-1.080 1.334-3.361 2.254-6 2.254-3.682 0-6.667-1.791-6.667-4 0-3.648 0-5.87 0-6.667 0-2.209 2.985-4 6.667-4 2.639 0 4.92 0.92 6 2.254 1.080-1.334 3.361-2.254 6-2.254 3.682 0 6.667 1.791 6.667 4 0 0.448 0 2.67 0 6.667 0 2.209-2.985 4-6.667 4-2.639 0-4.92-0.92-6-2.254zM21.333 22.667c3.041 0 5.333-1.375 5.333-2.667s-2.292-2.667-5.333-2.667c-3.041 0-5.333 1.375-5.333 2.667s2.292 2.667 5.333 2.667zM26.214 2.695c0.234 0.678-0.127 1.417-0.805 1.651-0.011 0.004-0.022 0.007-0.032 0.011l-22.263 7.016c-0.354 0.111-0.732-0.079-0.853-0.43s0.060-0.734 0.407-0.864l21.863-8.177c0.672-0.251 1.42 0.090 1.671 0.761 0.004 0.011 0.008 0.021 0.012 0.032zM27.962 8.736c0.125 0.706-0.347 1.38-1.053 1.505-0.011 0.002-0.022 0.004-0.034 0.005l-23.086 3.447c-0.367 0.055-0.711-0.193-0.775-0.558s0.174-0.716 0.538-0.79l22.873-4.657c0.703-0.143 1.389 0.311 1.532 1.014 0.002 0.011 0.004 0.022 0.006 0.034zM21.333 21.333c-1.105 0-2-0.597-2-1.333s0.895-1.333 2-1.333c1.105 0 2 0.597 2 1.333s-0.895 1.333-2 1.333zM9.333 21.333c-1.105 0-2-0.597-2-1.333s0.895-1.333 2-1.333c1.105 0 2 0.597 2 1.333s-0.895 1.333-2 1.333z"></path>
</svg>
