<!-- Generated by IcoMoon.io -->
<svg version="1.1" xmlns="http://www.w3.org/2000/svg" width="32" height="32" viewBox="0 0 32 32">
<path d="M18 5.333v13.333c0 0.736-0.597 1.333-1.333 1.333h-1.333c-0.736 0-1.333-0.597-1.333-1.333v-13.333h-4.667c-0.736 0-1.333-0.597-1.333-1.333v-1.333c0-0.736 0.597-1.333 1.333-1.333h13.333c0.736 0 1.333 0.597 1.333 1.333v1.333c0 0.736-0.597 1.333-1.333 1.333h-4.667zM8.552 26.667l1.724 1.724c0.521 0.521 0.521 1.365 0 1.886s-1.365 0.521-1.886 0l-4-4c-0.521-0.521-0.521-1.365 0-1.886l4-4c0.521-0.521 1.365-0.521 1.886 0s0.521 1.365 0 1.886l-1.724 1.724h14.895l-1.724-1.724c-0.521-0.521-0.521-1.365 0-1.886s1.365-0.521 1.886 0l4 4c0.521 0.521 0.521 1.365 0 1.886l-4 4c-0.521 0.521-1.365 0.521-1.886 0s-0.521-1.365 0-1.886l1.724-1.724h-14.895z"></path>
</svg>
