<!-- Generated by IcoMoon.io -->
<svg version="1.1" xmlns="http://www.w3.org/2000/svg" width="32" height="32" viewBox="0 0 32 32">
<path d="M15.565 11.108l4.434-2.975-1.171-1.171c-0.521-0.521-0.521-1.365 0-1.886l1.886-1.886c0.521-0.521 1.365-0.521 1.886 0l7.542 7.542c0.521 0.521 0.521 1.365 0 1.886l-1.886 1.886c-0.521 0.521-1.365 0.521-1.886 0l-1.171-1.171-2.975 4.434c0.343 1.234 0.439 2.541 0.263 3.844l-0.576 4.262c-0.099 0.73-0.77 1.241-1.5 1.143-0.289-0.039-0.558-0.172-0.764-0.378l-12.954-12.954c-0.521-0.521-0.521-1.365 0-1.886 0.206-0.206 0.475-0.339 0.764-0.379l4.262-0.576c1.303-0.176 2.609-0.080 3.844 0.263zM11.757 18.748l-5.387 5.387-0.741 3.569 3.569-0.741 5.387-5.387z"></path>
</svg>
