<!-- Generated by IcoMoon.io -->
<svg version="1.1" xmlns="http://www.w3.org/2000/svg" width="32" height="32" viewBox="0 0 32 32">
<path d="M29.333 16c0 7.364-5.97 13.333-13.333 13.333s-13.333-5.97-13.333-13.333c0-7.364 5.97-13.333 13.333-13.333s13.333 5.97 13.333 13.333zM16.561 22.878l4.049-8.097c0.247-0.494 0.047-1.095-0.447-1.342-0.139-0.069-0.292-0.106-0.447-0.106h-3.715v-3.764c0-0.552-0.448-1-1-1-0.379 0-0.725 0.214-0.894 0.553l-4.049 8.097c-0.247 0.494-0.047 1.095 0.447 1.342 0.139 0.069 0.292 0.106 0.447 0.106h3.715v3.764c0 0.552 0.448 1 1 1 0.379 0 0.725-0.214 0.894-0.553z"></path>
</svg>
