<!-- Generated by IcoMoon.io -->
<svg version="1.1" xmlns="http://www.w3.org/2000/svg" width="32" height="32" viewBox="0 0 32 32">
<path d="M5.4 23.313l-1.933-1.933c-0.521-0.521-0.521-1.365 0-1.886l4.714-4.714 1.886 1.886c0.521 0.521 1.365 0.521 1.886 0s0.521-1.365 0-1.886l-1.886-1.886 9.428-9.428c0.521-0.521 1.365-0.521 1.886 0l1.933 1.933c-0.857 1.294-0.716 3.055 0.424 4.195s2.901 1.282 4.195 0.424l1.933 1.933c0.521 0.521 0.521 1.365 0 1.886l-9.428 9.428-1.886-1.886c-0.521-0.521-1.365-0.521-1.886 0s-0.521 1.365 0 1.886l1.886 1.886-4.714 4.714c-0.521 0.521-1.365 0.521-1.886 0l-1.933-1.933c0.857-1.294 0.716-3.055-0.424-4.195s-2.901-1.282-4.196-0.424zM12.895 17.609c-0.521 0.521-0.521 1.365 0 1.886l0.943 0.943c0.521 0.521 1.365 0.521 1.886 0s0.521-1.365 0-1.886l-0.943-0.943c-0.521-0.521-1.365-0.521-1.886 0z"></path>
</svg>
