<!-- Generated by IcoMoon.io -->
<svg version="1.1" xmlns="http://www.w3.org/2000/svg" width="32" height="32" viewBox="0 0 32 32">
<path d="M16 28c-5.891 0-10.667-4.776-10.667-10.667s4.776-10.667 10.667-10.667c5.891 0 10.667 4.776 10.667 10.667s-4.776 10.667-10.667 10.667zM17.333 6.749c-0.437-0.054-0.882-0.083-1.333-0.083s-0.897 0.028-1.333 0.083v-1.416h-1.333c-0.736 0-1.333-0.597-1.333-1.333s0.597-1.333 1.333-1.333h5.333c0.736 0 1.333 0.597 1.333 1.333s-0.597 1.333-1.333 1.333h-1.333v1.416zM22.28 8.71l1.101-1.101c0.521-0.521 1.365-0.521 1.886 0s0.521 1.365 0 1.886l-1.043 1.043c-0.568-0.687-1.221-1.302-1.943-1.828zM15.951 10h0.099c0.348 0 0.638 0.268 0.665 0.616l0.564 7.333c0.028 0.367-0.246 0.688-0.614 0.716-0.017 0.001-0.034 0.002-0.051 0.002h-1.227c-0.368 0-0.667-0.298-0.667-0.667 0-0.017 0.001-0.034 0.002-0.051l0.564-7.333c0.027-0.347 0.316-0.616 0.665-0.616z"></path>
</svg>
