<!-- Generated by IcoMoon.io -->
<svg version="1.1" xmlns="http://www.w3.org/2000/svg" width="32" height="32" viewBox="0 0 32 32">
<path d="M14.617 10h0.113c0.342 0 0.629 0.26 0.663 0.6l0.607 6.066 4.331 2.475c0.208 0.119 0.336 0.34 0.336 0.579v0.28c0 0.281-0.228 0.509-0.509 0.509-0.045 0-0.090-0.006-0.134-0.018l-6.159-1.68c-0.309-0.084-0.514-0.375-0.489-0.694l0.577-7.502c0.027-0.347 0.316-0.616 0.665-0.616zM9.853 3.78c1.683-0.717 3.535-1.113 5.48-1.113 7.732 0 14 6.268 14 14s-6.268 14-14 14c-7.732 0-14-6.268-14-14 0-1.313 0.181-2.584 0.519-3.789l2.568 0.72c-0.277 0.989-0.42 2.018-0.42 3.069 0 6.259 5.074 11.333 11.333 11.333s11.333-5.074 11.333-11.333c0-6.259-5.074-11.333-11.333-11.333-1.268 0-2.504 0.208-3.668 0.606l1.588 1.892c0.092 0.11 0.147 0.247 0.155 0.391 0.021 0.368-0.26 0.682-0.628 0.703l-6.489 0.368c-0.065 0.004-0.129-0.002-0.192-0.017-0.358-0.085-0.579-0.445-0.494-0.803l1.505-6.308c0.033-0.139 0.11-0.264 0.22-0.356 0.282-0.237 0.703-0.2 0.939 0.082l1.585 1.889z"></path>
</svg>
