<!-- Generated by IcoMoon.io -->
<svg version="1.1" xmlns="http://www.w3.org/2000/svg" width="32" height="32" viewBox="0 0 32 32">
<path d="M9.333 1.333h13.333c0.736 0 1.333 0.597 1.333 1.333v2.667c0 0.736-0.597 1.333-1.333 1.333h-13.333c-0.736 0-1.333-0.597-1.333-1.333v-2.667c0-0.736 0.597-1.333 1.333-1.333zM23.814 17.182c0.122 0.693 0.186 1.413 0.186 2.151 0 5.523-3.582 10-8 10s-8-4.477-8-10c0-0.739 0.064-1.458 0.186-2.151l0.856-6.846c0.167-1.334 1.301-2.336 2.646-2.336h8.625c1.345 0 2.479 1.001 2.646 2.336l0.856 6.846zM16 26.667c2.946 0 5.333-2.985 5.333-6.667s-2.388-6.667-5.333-6.667c-2.946 0-5.333 2.985-5.333 6.667s2.388 6.667 5.333 6.667zM14.667 18.667h2.667c0.368 0 0.667 0.298 0.667 0.667v1.333c0 1.105-0.895 2-2 2v0c-1.105 0-2-0.895-2-2v-1.333c0-0.368 0.298-0.667 0.667-0.667z"></path>
</svg>
