<!-- Generated by IcoMoon.io -->
<svg version="1.1" xmlns="http://www.w3.org/2000/svg" width="32" height="32" viewBox="0 0 32 32">
<path d="M24 21.333h-12c-0.736 0-1.333-0.597-1.333-1.333s0.597-1.333 1.333-1.333h10.667c0.736 0 1.333-0.597 1.333-1.333s-0.597-1.333-1.333-1.333h-10.667c-2.209 0-4 1.791-4 4s1.791 4 4 4h14c2 0 2 0.667 2 1.333s0 1.333-2 1.333h-16.667c-2.946 0-5.333-2.388-5.333-5.333v-10.667c0-2.946 2.388-5.333 5.333-5.333h13.333c2.946 0 5.333 2.388 5.333 5.333v6.667c0 2.209-1.791 4-4 4z"></path>
</svg>
