<!-- Generated by IcoMoon.io -->
<svg version="1.1" xmlns="http://www.w3.org/2000/svg" width="32" height="32" viewBox="0 0 32 32">
<path d="M8 10.667h16l-1.191 15.487c-0.080 1.042-0.949 1.847-1.994 1.847h-9.629c-1.045 0-1.914-0.805-1.994-1.847l-1.191-15.487zM10.667 13.333l0.606 5.453 9.463-0.074 0.598-5.379h-10.667zM18.667 6v-1.333c0-0.368-0.298-0.667-0.667-0.667h-4c-0.368 0-0.667 0.298-0.667 0.667v1.333h-6c-0.368 0-0.667 0.298-0.667 0.667v0.667c0 0.368 0.298 0.667 0.667 0.667h17.333c0.368 0 0.667-0.298 0.667-0.667v-0.667c0-0.368-0.298-0.667-0.667-0.667h-6z"></path>
</svg>
