<!-- Generated by IcoMoon.io -->
<svg version="1.1" xmlns="http://www.w3.org/2000/svg" width="32" height="32" viewBox="0 0 32 32">
<path d="M14.667 16h-12v-1.333c0-2.209 1.791-4 4-4h4c2.209 0 4 1.791 4 4v1.333zM14.667 18.667v8c0 0.736-0.597 1.333-1.333 1.333h-9.333c-0.736 0-1.333-0.597-1.333-1.333v-8h12zM29.333 16h-12v-1.333c0-2.209 1.791-4 4-4h4c2.209 0 4 1.791 4 4v1.333zM29.333 18.667v8c0 0.736-0.597 1.333-1.333 1.333h-9.333c-0.736 0-1.333-0.597-1.333-1.333v-8h12zM6.667 4h4c0.736 0 1.333 0.597 1.333 1.333v1.333c0 0.736-0.597 1.333-1.333 1.333h-4c-0.736 0-1.333-0.597-1.333-1.333v-1.333c0-0.736 0.597-1.333 1.333-1.333zM21.333 4h4c0.736 0 1.333 0.597 1.333 1.333v1.333c0 0.736-0.597 1.333-1.333 1.333h-4c-0.736 0-1.333-0.597-1.333-1.333v-1.333c0-0.736 0.597-1.333 1.333-1.333z"></path>
</svg>
