<!-- Generated by IcoMoon.io -->
<svg version="1.1" xmlns="http://www.w3.org/2000/svg" width="32" height="32" viewBox="0 0 32 32">
<path d="M21.333 13.333v-0.667c0-1.841-1.492-3.333-3.333-3.333s-3.333 1.492-3.333 3.333v0.667c-0.736 0-1.333 0.597-1.333 1.333v4c0 0.736 0.597 1.333 1.333 1.333h6.667c0.736 0 1.333-0.597 1.333-1.333v-4c0-0.736-0.597-1.333-1.333-1.333zM18 28c-6.996 0-12.667-5.671-12.667-12.667s5.671-12.667 12.667-12.667c6.996 0 12.667 5.671 12.667 12.667s-5.671 12.667-12.667 12.667zM18 10.667v0c1.105 0 2 0.895 2 2v0.667h-4v-0.667c0-1.105 0.895-2 2-2z"></path>
</svg>
