<!-- Generated by IcoMoon.io -->
<svg version="1.1" xmlns="http://www.w3.org/2000/svg" width="32" height="32" viewBox="0 0 32 32">
<path d="M17.333 2.667c7.364 0 13.333 5.97 13.333 13.333s-5.97 13.333-13.333 13.333c-7.364 0-13.333-5.97-13.333-13.333s5.97-13.333 13.333-13.333zM9.557 18.073c2.013 3.019 4.637 4.594 7.776 4.594s5.763-1.574 7.776-4.594c0.408-0.613 0.243-1.441-0.37-1.849s-1.441-0.243-1.849 0.37c-1.543 2.314-3.363 3.406-5.557 3.406s-4.015-1.092-5.557-3.406c-0.408-0.613-1.236-0.778-1.849-0.37s-0.778 1.236-0.37 1.849z"></path>
</svg>
