<!-- Generated by IcoMoon.io -->
<svg version="1.1" xmlns="http://www.w3.org/2000/svg" width="32" height="32" viewBox="0 0 32 32">
<path d="M24 8v-2.030c0-0.162 0.059-0.318 0.166-0.44 0.243-0.277 0.664-0.304 0.941-0.061l3.913 3.435c0.022 0.020 0.043 0.040 0.063 0.063 0.242 0.277 0.213 0.699-0.064 0.941l-3.913 3.413c-0.121 0.106-0.277 0.164-0.438 0.164-0.368 0-0.667-0.298-0.667-0.667v-2.151h-2.073c-1.646 0-3.199 0.76-4.21 2.059l-5.33 6.853c-1.516 1.949-3.846 3.088-6.315 3.088h-3.406v-2.667h3.406c1.646 0 3.199-0.76 4.21-2.059l5.33-6.853c1.516-1.949 3.846-3.088 6.315-3.088h2.073z"></path>
</svg>
