<!-- Generated by IcoMoon.io -->
<svg version="1.1" xmlns="http://www.w3.org/2000/svg" width="32" height="32" viewBox="0 0 32 32">
<path d="M17.333 25.26v1.407h1.333c1.473 0 2.667 1.194 2.667 2.667h-10.667c0-1.473 1.194-2.667 2.667-2.667h1.333v-1.407c-2.628-0.291-5.056-1.438-6.942-3.235l-1.407 1.541c-0.496 0.544-1.34 0.582-1.884 0.086s-0.582-1.34-0.086-1.884l2.384-2.612c0.549-0.602 1.506-0.574 2.020 0.058 1.763 2.17 4.399 3.452 7.248 3.452 5.155 0 9.333-4.179 9.333-9.333 0-3.020-1.443-5.797-3.838-7.545-0.595-0.434-0.725-1.268-0.291-1.863s1.268-0.725 1.863-0.291c3.076 2.244 4.933 5.818 4.933 9.699 0 6.177-4.667 11.264-10.667 11.927z"></path>
</svg>
