<!-- Generated by IcoMoon.io -->
<svg version="1.1" xmlns="http://www.w3.org/2000/svg" width="32" height="32" viewBox="0 0 32 32">
<path d="M10.667 24v5.333c0 0.736 0.597 1.333 1.333 1.333h8c0.736 0 1.333-0.597 1.333-1.333v-15.448c0-0.354-0.14-0.693-0.391-0.943l-1.886-1.886c-0.25-0.25-0.391-0.589-0.391-0.943v-3.448c0-0.736-0.597-1.333-1.333-1.333h-2.667c-0.736 0-1.333 0.597-1.333 1.333v3.448c0 0.354-0.14 0.693-0.391 0.943l-1.886 1.886c-0.25 0.25-0.391 0.589-0.391 0.943v3.448h5.333v6.667h-5.333z"></path>
</svg>
