<!-- Generated by IcoMoon.io -->
<svg version="1.1" xmlns="http://www.w3.org/2000/svg" width="32" height="32" viewBox="0 0 32 32">
<path d="M31.060 23.721c0-1.094 0.234-5.41-3.171-8.835-2.292-2.305-5.721-2.704-9.823-2.887v-5.743c0-0.552-0.448-1-1-1-0.248 0-0.488 0.092-0.672 0.259l-9.52 8.637c-0.409 0.371-0.44 1.004-0.069 1.413 0.019 0.021 0.040 0.042 0.061 0.062l9.52 8.817c0.405 0.375 1.038 0.351 1.413-0.054 0.171-0.185 0.266-0.428 0.266-0.679v-5.711c2.604 0.072 4.459 0.237 6.145 0.773 2.427 0.772 4.302 2.962 5.626 6.571h-0c0.145 0.394 0.519 0.656 0.939 0.656h0.29c0-0.658-0.006-1.699-0.006-2.279z"></path>
</svg>
