<!-- Generated by IcoMoon.io -->
<svg version="1.1" xmlns="http://www.w3.org/2000/svg" width="32" height="32" viewBox="0 0 32 32">
<path d="M20.657 10.725c-0.372-0.473-0.857-0.849-1.457-1.127s-1.178-0.418-1.735-0.418c-0.287 0-0.578 0.025-0.874 0.076s-0.562 0.148-0.798 0.291c-0.236 0.144-0.435 0.329-0.595 0.557s-0.241 0.519-0.241 0.874c0 0.304 0.063 0.557 0.19 0.76s0.312 0.38 0.557 0.532c0.245 0.152 0.536 0.291 0.874 0.418s0.718 0.258 1.14 0.393c0.608 0.203 1.241 0.426 1.9 0.671s1.258 0.57 1.799 0.975c0.54 0.405 0.988 0.908 1.343 1.507s0.532 1.347 0.532 2.242c0 1.030-0.19 1.921-0.57 2.673s-0.891 1.372-1.533 1.862c-0.642 0.49-1.376 0.853-2.204 1.089s-1.68 0.355-2.559 0.355c-1.284 0-2.525-0.224-3.724-0.671s-2.196-1.085-2.989-1.913l2.837-2.888c0.439 0.54 1.018 0.992 1.735 1.355s1.431 0.545 2.141 0.545c0.321 0 0.633-0.034 0.937-0.101s0.57-0.177 0.798-0.329c0.228-0.152 0.41-0.355 0.545-0.608s0.203-0.557 0.203-0.912c0-0.338-0.084-0.625-0.253-0.861s-0.41-0.452-0.722-0.646c-0.312-0.194-0.701-0.372-1.165-0.532s-0.992-0.334-1.583-0.519c-0.574-0.186-1.136-0.405-1.685-0.659s-1.039-0.578-1.469-0.975c-0.431-0.397-0.777-0.878-1.039-1.444s-0.393-1.254-0.393-2.065c0-0.996 0.203-1.849 0.608-2.559s0.937-1.292 1.596-1.748c0.659-0.456 1.402-0.79 2.229-1.001s1.664-0.317 2.508-0.317c1.013 0 2.048 0.186 3.103 0.557s1.98 0.92 2.774 1.647l-2.761 2.913z"></path>
</svg>
