<!-- Generated by IcoMoon.io -->
<svg version="1.1" xmlns="http://www.w3.org/2000/svg" width="32" height="32" viewBox="0 0 32 32">
<path d="M8 24h4c0.889 0.152 1.333 0.597 1.333 1.333s-0.444 1.181-1.333 1.333h-6.667v-6.667c0-0.889 0.444-1.333 1.333-1.333s1.333 0.444 1.333 1.333v4zM24 24v-4c0.152-0.889 0.597-1.333 1.333-1.333s1.181 0.444 1.333 1.333v6.667h-6.667c-0.889 0-1.333-0.444-1.333-1.333s0.444-1.333 1.333-1.333h4zM24 8h-4c-0.889-0.152-1.333-0.597-1.333-1.333s0.444-1.181 1.333-1.333h6.667v6.667c0 0.889-0.444 1.333-1.333 1.333s-1.333-0.444-1.333-1.333v-4zM8 8v4c-0.152 0.889-0.597 1.333-1.333 1.333s-1.181-0.444-1.333-1.333v-6.667h6.667c0.889 0 1.333 0.444 1.333 1.333s-0.444 1.333-1.333 1.333h-4z"></path>
</svg>
