<!-- Generated by IcoMoon.io -->
<svg version="1.1" xmlns="http://www.w3.org/2000/svg" width="32" height="32" viewBox="0 0 32 32">
<path d="M23.833 18.781c0 0.98-0.194 1.803-0.583 2.47s-0.904 1.203-1.545 1.609c-0.642 0.405-1.372 0.697-2.191 0.874s-1.659 0.266-2.521 0.266h-7.66v-17.936h7.66c0.692 0 1.402 0.072 2.128 0.215s1.385 0.388 1.976 0.735c0.591 0.346 1.072 0.815 1.444 1.406s0.557 1.343 0.557 2.255c0 0.996-0.27 1.82-0.811 2.47s-1.25 1.119-2.128 1.406c0.507 0.135 0.984 0.291 1.431 0.519s0.836 0.519 1.165 0.874c0.329 0.355 0.591 0.768 0.785 1.241s0.291 1.005 0.291 1.596zM18.919 11.257c0-0.608-0.232-1.051-0.697-1.33s-1.153-0.418-2.065-0.418h-2.128v3.699h2.331c0.811 0 1.44-0.165 1.887-0.494s0.671-0.815 0.671-1.457zM19.501 18.376c0-0.743-0.279-1.258-0.836-1.545s-1.3-0.431-2.229-0.431h-2.407v4.104h2.432c0.338 0 0.688-0.030 1.051-0.089s0.692-0.165 0.988-0.317c0.296-0.152 0.536-0.367 0.722-0.646s0.279-0.638 0.279-1.077z"></path>
</svg>
