<!-- Generated by IcoMoon.io -->
<svg version="1.1" xmlns="http://www.w3.org/2000/svg" width="32" height="32" viewBox="0 0 32 32">
<path d="M16 28c-6.627 0-12-5.373-12-12s5.373-12 12-12c6.627 0 12 5.373 12 12s-5.373 12-12 12zM15.7 17.724c0.736 0 1.333-0.597 1.333-1.333s-0.597-1.333-1.333-1.333c-0.736 0-1.333 0.597-1.333 1.333s0.597 1.333 1.333 1.333zM14.965 12.136c1.423-0.381 2.267-1.843 1.886-3.266s-1.843-2.267-3.266-1.886c-1.423 0.381-2.267 1.843-1.886 3.266s1.843 2.267 3.266 1.886zM18.416 25.015c1.423-0.381 2.267-1.843 1.886-3.266s-1.843-2.267-3.266-1.886c-1.423 0.381-2.267 1.843-1.886 3.266s1.843 2.267 3.266 1.886zM10.251 20.301c1.423-0.381 2.267-1.843 1.886-3.266s-1.843-2.267-3.266-1.886c-1.423 0.381-2.267 1.843-1.886 3.266s1.843 2.267 3.266 1.886zM23.13 16.85c1.423-0.381 2.267-1.843 1.886-3.266s-1.843-2.267-3.266-1.886c-1.423 0.381-2.267 1.843-1.886 3.266s1.843 2.267 3.266 1.886z"></path>
</svg>
