<!-- Generated by IcoMoon.io -->
<svg version="1.1" xmlns="http://www.w3.org/2000/svg" width="32" height="32" viewBox="0 0 32 32">
<path d="M10.667 10.667v0c0.736 0 1.333 0.597 1.333 1.333v12c0 0.736-0.597 1.333-1.333 1.333v0c-0.736 0-1.333-0.597-1.333-1.333v-12c0-0.736 0.597-1.333 1.333-1.333zM17.333 10.667v0c0.736 0 1.333 0.597 1.333 1.333v12c0 0.736-0.597 1.333-1.333 1.333v0c-0.736 0-1.333-0.597-1.333-1.333v-12c0-0.736 0.597-1.333 1.333-1.333zM5.414 6.667h17.172c0.736 0 1.333 0.597 1.333 1.333 0 0.026-0.001 0.052-0.002 0.078l-1.103 18.745c-0.083 1.41-1.25 2.51-2.662 2.51h-12.305c-1.412 0-2.579-1.101-2.662-2.51l-1.103-18.745c-0.043-0.735 0.518-1.366 1.253-1.409 0.026-0.002 0.052-0.002 0.078-0.002z"></path>
</svg>
