<!-- Generated by IcoMoon.io -->
<svg version="1.1" xmlns="http://www.w3.org/2000/svg" width="32" height="32" viewBox="0 0 32 32">
<path d="M9.333 16.168v-5.501c0-4.418 3.582-8 8-8s8 3.582 8 8v1.333h-2.667v-1.333c0-2.946-2.388-5.333-5.333-5.333s-5.333 2.388-5.333 5.333v5.501c2.3 0.592 4 2.68 4 5.165 0 2.946-2.388 5.333-5.333 5.333s-5.333-2.388-5.333-5.333c0-2.485 1.7-4.573 4-5.165zM10.667 24c1.473 0 2.667-1.194 2.667-2.667s-1.194-2.667-2.667-2.667c-1.473 0-2.667 1.194-2.667 2.667s1.194 2.667 2.667 2.667z"></path>
</svg>
