<!-- Generated by IcoMoon.io -->
<svg version="1.1" xmlns="http://www.w3.org/2000/svg" width="32" height="32" viewBox="0 0 32 32">
<path d="M6.667 2.667h16c2.209 0 4 1.791 4 4v18.667c0 2.209-1.791 4-4 4h-16c-0.736 0-1.333-0.597-1.333-1.333v-24c0-0.736 0.597-1.333 1.333-1.333zM16 14.667c1.473 0 2.667-1.194 2.667-2.667s-1.194-2.667-2.667-2.667c-1.473 0-2.667 1.194-2.667 2.667s1.194 2.667 2.667 2.667zM9.334 21.999c-0.016 0.217 0.353 0.667 0.538 0.667 5.413 0 9.492 0 12.236 0 0.556 0 0.565-0.504 0.556-0.667-0.217-4.089-3.131-6-6.677-6-3.497 0-6.367 2.022-6.654 5.999z"></path>
</svg>
