<!-- Generated by IcoMoon.io -->
<svg version="1.1" xmlns="http://www.w3.org/2000/svg" width="32" height="32" viewBox="0 0 32 32">
<path d="M11.414 22.243l2.828-2.828c0.781-0.781 2.047-0.781 2.828 0l2.828 2.828c0.781 0.781 0.781 2.047 0 2.828l-2.828 2.828c-0.781 0.781-2.047 0.781-2.828 0l-2.828-2.828c-0.781-0.781-0.781-2.047 0-2.828zM11.414 6.243l2.828-2.828c0.781-0.781 2.047-0.781 2.828 0l2.828 2.828c0.781 0.781 0.781 2.047 0 2.828l-2.828 2.828c-0.781 0.781-2.047 0.781-2.828 0l-2.828-2.828c-0.781-0.781-0.781-2.047 0-2.828z"></path>
</svg>
