<!-- Generated by IcoMoon.io -->
<svg version="1.1" xmlns="http://www.w3.org/2000/svg" width="32" height="32" viewBox="0 0 32 32">
<path d="M8 22.667c-0.736 0-1.333-0.597-1.333-1.333v-13.333c0-0.736 0.597-1.333 1.333-1.333s1.333 0.597 1.333 1.333v13.333c0 0.736-0.597 1.333-1.333 1.333zM11.057 19.057c0.521-0.521 1.365-0.521 1.886 0s0.521 1.365 0 1.886l-4 4c-0.521 0.521-1.365 0.521-1.886 0l-4-4c-0.521-0.521-0.521-1.365 0-1.886s1.365-0.521 1.886 0l3.057 3.057 3.057-3.057zM24 9.333c-0.736 0-1.333 0.597-1.333 1.333v13.333c0 0.736 0.597 1.333 1.333 1.333s1.333-0.597 1.333-1.333v-13.333c0-0.736-0.597-1.333-1.333-1.333zM27.057 12.943c0.521 0.521 1.365 0.521 1.886 0s0.521-1.365 0-1.886l-4-4c-0.521-0.521-1.365-0.521-1.886 0l-4 4c-0.521 0.521-0.521 1.365 0 1.886s1.365 0.521 1.886 0l3.057-3.057 3.057 3.057z"></path>
</svg>
