<!-- Generated by IcoMoon.io -->
<svg version="1.1" xmlns="http://www.w3.org/2000/svg" width="32" height="32" viewBox="0 0 32 32">
<path d="M22.128 10.538c0.521 0.521 0.521 1.365 0 1.886l-11.314 11.314c-0.521 0.521-1.365 0.521-1.886 0s-0.521-1.365 0-1.886l11.314-11.314c0.521-0.521 1.365-0.521 1.886 0zM10.815 11.872c-0.736 0-1.333-0.597-1.333-1.333s0.597-1.333 1.333-1.333h11.314c0.714 0 1.301 0.562 1.332 1.275l0.471 10.842c0.032 0.736-0.538 1.358-1.274 1.39s-1.358-0.538-1.39-1.274l-0.416-9.567h-10.037z"></path>
</svg>
