<!-- Generated by IcoMoon.io -->
<svg version="1.1" xmlns="http://www.w3.org/2000/svg" width="32" height="32" viewBox="0 0 32 32">
<path d="M4.667 4h8c1.105 0 2 0.895 2 2v18.667c0 1.105-0.895 2-2 2h-8c-1.105 0-2-0.895-2-2v-18.667c0-1.105 0.895-2 2-2zM12 12c-0.736 0-1.333 0.597-1.333 1.333v2.667c0 0.736 0.597 1.333 1.333 1.333s1.333-0.597 1.333-1.333v-2.667c0-0.736-0.597-1.333-1.333-1.333zM27.333 4h-8c-1.105 0-2 0.895-2 2v18.667c0 1.105 0.895 2 2 2h8c1.105 0 2-0.895 2-2v-18.667c0-1.105-0.895-2-2-2zM20 12c0.736 0 1.333 0.597 1.333 1.333v2.667c0 0.736-0.597 1.333-1.333 1.333s-1.333-0.597-1.333-1.333v-2.667c0-0.736 0.597-1.333 1.333-1.333z"></path>
</svg>
