<!-- Generated by IcoMoon.io -->
<svg version="1.1" xmlns="http://www.w3.org/2000/svg" width="32" height="32" viewBox="0 0 32 32">
<path d="M11.244 9.566l1.3 0.91c0.118 0.082 0.206 0.201 0.251 0.337 0.115 0.35-0.075 0.727-0.424 0.842l-4.516 1.488c-0.061 0.020-0.126 0.031-0.19 0.033-0.368 0.010-0.675-0.28-0.685-0.648l-0.131-4.742c-0.004-0.143 0.038-0.284 0.12-0.401 0.211-0.302 0.627-0.375 0.928-0.164l1.075 0.753c1.915-1.679 4.393-2.642 7.028-2.642 5.891 0 10.667 4.776 10.667 10.667s-4.776 10.667-10.667 10.667c-5.891 0-10.667-4.776-10.667-10.667h2.667c0 4.418 3.582 8 8 8s8-3.582 8-8c0-4.418-3.582-8-8-8-1.749 0-3.403 0.564-4.756 1.566z"></path>
</svg>
