<!-- Generated by IcoMoon.io -->
<svg version="1.1" xmlns="http://www.w3.org/2000/svg" width="32" height="32" viewBox="0 0 32 32">
<path d="M7.81 2.667h10.506c0.473 0 0.931 0.168 1.292 0.473l6.351 5.372c0.449 0.38 0.708 0.939 0.708 1.527v16.739c0 2.387-0.027 2.556-2.476 2.556h-16.381c-2.449 0-2.476-0.168-2.476-2.556v-21.556c0-2.387 0.027-2.556 2.476-2.556zM11.935 18.42h2.609v2.677c0 0.368 0.298 0.667 0.667 0.667h1.364c0.368 0 0.667-0.298 0.667-0.667v-2.677h2.609c0.368 0 0.667-0.298 0.667-0.667 0-0.158-0.056-0.31-0.158-0.431l-3.957-4.674c-0.238-0.281-0.659-0.316-0.94-0.078-0.028 0.024-0.054 0.050-0.078 0.078l-3.957 4.674c-0.238 0.281-0.203 0.702 0.078 0.94 0.12 0.102 0.273 0.158 0.431 0.158z"></path>
</svg>
