<!-- Generated by IcoMoon.io -->
<svg version="1.1" xmlns="http://www.w3.org/2000/svg" width="32" height="32" viewBox="0 0 32 32">
<path d="M2.667 17.333c0-0.667 0.667-1.333 1.333-1.333s1.333 0.667 1.333 1.333c0 0.444 0 2.667 0 6.667 0 1.473 1.194 2.667 2.667 2.667h16c1.473 0 2.667-1.194 2.667-2.667v-6.667c0-0.736 0.597-1.333 1.333-1.333s1.333 0.597 1.333 1.333v6.667c0 2.946-2.388 5.333-5.333 5.333h-16c-2.946 0-5.333-2.388-5.333-5.333 0-4 0-6.222 0-6.667zM16 2.667c0.736 0 1.333 0.597 1.333 1.333v16c0 0.736-0.597 1.333-1.333 1.333s-1.333-0.597-1.333-1.333v-16c0-0.736 0.597-1.333 1.333-1.333zM16.048 4.504l-5.772 5.772c-0.521 0.521-1.365 0.521-1.886 0s-0.521-1.365 0-1.886l6.667-6.667c0.501-0.501 1.308-0.523 1.835-0.048l6.667 6c0.547 0.493 0.592 1.336 0.099 1.883s-1.336 0.592-1.883 0.099l-5.726-5.154z"></path>
</svg>
