<!-- Generated by IcoMoon.io -->
<svg version="1.1" xmlns="http://www.w3.org/2000/svg" width="32" height="32" viewBox="0 0 32 32">
<path d="M16.938 18.667l3.951-5.333h-2.963v-5.333l-5.926 8h2.963v2.667h-6.963c-0.736 0-1.333-0.597-1.333-1.333v-13.333c0-0.736 0.597-1.333 1.333-1.333h16c0.736 0 1.333 0.597 1.333 1.333v13.333c0 0.736-0.597 1.333-1.333 1.333h-7.062zM13.072 14.552l-1.072 1.448h2.963v5.333l5.926-8h-0.273l6.328-4.57c0.298-0.216 0.715-0.148 0.931 0.15 0.082 0.114 0.126 0.25 0.126 0.39v13.363c0 1.473-1.194 2.667-2.667 2.667h-18.667c-1.473 0-2.667-1.194-2.667-2.667v-13.363c0-0.368 0.298-0.667 0.667-0.667 0.14 0 0.277 0.044 0.39 0.126l8.015 5.789z"></path>
</svg>
