<!-- Generated by IcoMoon.io -->
<svg version="1.1" xmlns="http://www.w3.org/2000/svg" width="32" height="32" viewBox="0 0 32 32">
<path d="M4 5.333c0-0.736 0.597-1.333 1.333-1.333h9.333v2.667c0 5.891-4.776 10.667-10.667 10.667v-12zM28 5.333v12c-5.891 0-10.667-4.776-10.667-10.667v-2.667h9.333c0.736 0 1.333 0.597 1.333 1.333zM5.333 28c-0.736 0-1.333-0.597-1.333-1.333v-9.333c4.418 0 8 3.582 8 8v2.667h-6.667zM26.667 28h-6.667v-2.667c0-4.418 3.582-8 8-8v9.333c0 0.736-0.597 1.333-1.333 1.333z"></path>
</svg>
