<!-- Generated by IcoMoon.io -->
<svg version="1.1" xmlns="http://www.w3.org/2000/svg" width="32" height="32" viewBox="0 0 32 32">
<path d="M21.198 17.639l-0.006-0.002c-0.085-0.036-0.166-0.077-0.251-0.111 0.952-0.746 1.723-1.699 2.253-2.787s0.806-2.282 0.806-3.492c-0.003-0.281-0.023-0.562-0.059-0.841 0.020-0.053 0.037-0.107 0.050-0.163l0.375-3.197c0.117-1.010-0.155-2.027-0.759-2.844s-1.498-1.374-2.498-1.558l-1.053-0.191c-2.681-0.49-5.429-0.49-8.11 0l-1.055 0.191c-1 0.184-1.893 0.741-2.497 1.558s-0.876 1.834-0.759 2.844l0.375 3.197c0.013 0.055 0.030 0.11 0.050 0.163-0.037 0.279-0.056 0.559-0.060 0.841 0.001 1.21 0.276 2.404 0.806 3.492s1.3 2.041 2.253 2.787c-0.085 0.034-0.167 0.075-0.251 0.111l-0.006 0.003c-2.183 0.917-4.080 2.403-5.496 4.301s-2.296 4.141-2.552 6.495c-0.038 0.351 0.065 0.704 0.286 0.98s0.543 0.452 0.895 0.49c0.352 0.038 0.704-0.065 0.98-0.286s0.452-0.543 0.49-0.895c0.188-1.731 0.799-3.388 1.779-4.826s2.3-2.613 3.842-3.42l4.031 4.031c0.124 0.124 0.271 0.222 0.433 0.289s0.335 0.101 0.51 0.101c0.175 0 0.348-0.035 0.51-0.101s0.309-0.165 0.433-0.289l4.031-4.031c1.542 0.807 2.861 1.982 3.842 3.42s1.591 3.096 1.779 4.826c0.036 0.326 0.19 0.628 0.435 0.847s0.561 0.341 0.889 0.341c0.049 0 0.098-0.003 0.147-0.008 0.351-0.038 0.673-0.215 0.895-0.49s0.324-0.628 0.286-0.98c-0.256-2.354-1.137-4.597-2.552-6.495s-3.313-3.383-5.496-4.301zM10.283 6.735c-0.039-0.337 0.052-0.675 0.253-0.948s0.499-0.458 0.832-0.519l1.054-0.191c2.366-0.432 4.79-0.432 7.156 0l1.053 0.191c0.333 0.061 0.631 0.247 0.833 0.519s0.292 0.611 0.253 0.948l-0.237 2.019h-10.961l-0.237-2.019zM16 21.68l-2.2-2.2c1.45-0.312 2.95-0.312 4.401 0l-2.2 2.2zM16 16.579c-1.384-0.002-2.713-0.54-3.707-1.503s-1.576-2.273-1.623-3.656h10.661c-0.047 1.383-0.629 2.694-1.623 3.656s-2.324 1.501-3.707 1.503z"></path>
</svg>
