<!-- Generated by IcoMoon.io -->
<svg version="1.1" xmlns="http://www.w3.org/2000/svg" width="32" height="32" viewBox="0 0 32 32">
<path d="M4.667 28h22.667c1.105 0 2-0.895 2-2v-14.667c0-1.105-0.895-2-2-2h-14l-3.414-3.414c-0.375-0.375-0.884-0.586-1.414-0.586h-3.838c-1.105 0-2 0.895-2 2v18.667c0 1.105 0.895 2 2 2zM16 17.333c-1.473 0-2.667-1.194-2.667-2.667s1.194-2.667 2.667-2.667c1.473 0 2.667 1.194 2.667 2.667s-1.194 2.667-2.667 2.667zM9.334 24.666c0.287-3.977 3.156-5.999 6.654-5.999 3.547 0 6.46 1.911 6.677 6 0.009 0.163 0 0.667-0.556 0.667-2.745 0-6.824 0-12.236 0-0.186 0-0.554-0.451-0.538-0.667z"></path>
</svg>
