<!-- Generated by IcoMoon.io -->
<svg version="1.1" xmlns="http://www.w3.org/2000/svg" width="32" height="32" viewBox="0 0 32 32">
<path d="M21.754 21.531c-0.482 0.27-1.091 0.097-1.361-0.385s-0.097-1.091 0.385-1.361c1.361-0.761 2.222-2.197 2.222-3.785 0-1.576-0.848-3.003-2.194-3.769-0.48-0.273-0.648-0.884-0.374-1.364s0.884-0.648 1.364-0.374c1.964 1.118 3.204 3.205 3.204 5.507 0 2.32-1.258 4.419-3.246 5.531zM22.385 26.519c-0.498 0.239-1.095 0.030-1.335-0.468s-0.030-1.095 0.468-1.335c3.324-1.599 5.482-4.963 5.482-8.717 0-3.718-2.117-7.055-5.392-8.673-0.495-0.245-0.698-0.844-0.454-1.339s0.844-0.698 1.339-0.454c3.951 1.951 6.506 5.98 6.506 10.466 0 4.529-2.605 8.59-6.615 10.519zM9.333 21.333l-4.523-0.905c-1.246-0.249-2.144-1.344-2.144-2.615v-3.628c0-1.271 0.897-2.366 2.144-2.615l4.523-0.905 4.391-4.391c0.521-0.521 1.365-0.521 1.886 0 0.25 0.25 0.391 0.589 0.391 0.943v17.562c0 0.736-0.597 1.333-1.333 1.333-0.354 0-0.693-0.14-0.943-0.391l-4.391-4.391z"></path>
</svg>
