<!-- Generated by IcoMoon.io -->
<svg version="1.1" xmlns="http://www.w3.org/2000/svg" width="32" height="32" viewBox="0 0 32 32">
<path d="M29.333 16.667c0 1.105-0.895 2-2 2s-2-0.895-2-2c0-1.105 0.895-2 2-2s2 0.895 2 2zM4.489 6.92l20.606-5.521c0.711-0.191 1.442 0.232 1.633 0.943l1.725 6.44c0.191 0.711-0.232 1.442-0.943 1.633l-20.606 5.521c-0.711 0.191-1.442-0.232-1.633-0.943l-1.725-6.44c-0.191-0.711 0.232-1.442 0.943-1.633zM29.333 12.449c-0.606-0.288-1.284-0.449-2-0.449-2.577 0-4.667 2.089-4.667 4.667s2.089 4.667 4.667 4.667c0.716 0 1.394-0.161 2-0.449v3.116c0 1.473-1.194 2.667-2.667 2.667h-21.333c-1.473 0-2.667-1.194-2.667-2.667v-16c0-1.473 1.194-2.667 2.667-2.667h21.333c1.473 0 2.667 1.194 2.667 2.667v4.449z"></path>
</svg>
