<svg width="7" height="7" viewBox="0 0 7 7" fill="none" xmlns="http://www.w3.org/2000/svg">
<path d="M1.38835 0.832031C1.08013 0.832031 0.833008 1.08193 0.833008 1.38737V5.27476C0.833008 5.42205 0.891517 5.5633 0.995663 5.66745C1.09981 5.77159 1.24106 5.8301 1.38835 5.8301H5.27574C5.42302 5.8301 5.56428 5.77159 5.66842 5.66745C5.77257 5.5633 5.83108 5.42205 5.83108 5.27476V4.64167C5.9949 4.54449 6.10875 4.36956 6.10875 4.16408V2.49806C6.10875 2.29258 5.9949 2.11765 5.83108 2.02046V1.38737C5.83108 1.24009 5.77257 1.09883 5.66842 0.994687C5.56428 0.89054 5.42302 0.832031 5.27574 0.832031H1.38835ZM1.38835 1.38737H5.27574V1.94271H3.60971C3.46243 1.94271 3.32118 2.00122 3.21703 2.10537C3.11288 2.20952 3.05437 2.35077 3.05437 2.49806V4.16408C3.05437 4.31136 3.11288 4.45262 3.21703 4.55676C3.32118 4.66091 3.46243 4.71942 3.60971 4.71942H5.27574V5.27476H1.38835V1.38737ZM3.60971 2.49806H5.55341V4.16408H3.60971V2.49806ZM4.44273 2.91456C4.33226 2.91456 4.22632 2.95844 4.14821 3.03655C4.0701 3.11466 4.02622 3.2206 4.02622 3.33107C4.02622 3.44153 4.0701 3.54747 4.14821 3.62558C4.22632 3.70369 4.33226 3.74757 4.44273 3.74757C4.55319 3.74757 4.65913 3.70369 4.73724 3.62558C4.81535 3.54747 4.85923 3.44153 4.85923 3.33107C4.85923 3.2206 4.81535 3.11466 4.73724 3.03655C4.65913 2.95844 4.55319 2.91456 4.44273 2.91456Z" fill="black"/>
</svg>
