<svg width="7" height="7" viewBox="0 0 7 7" fill="none" xmlns="http://www.w3.org/2000/svg">
<g clip-path="url(#clip0_201_26375)">
<path d="M0.833012 0V0.833012H0V1.38835H0.833012V2.22137H1.38835V1.38835H2.22137V0.833012H1.38835V0H0.833012ZM2.77671 0.833012V1.38835H5.27574V1.94369H3.60972C3.30428 1.94369 3.05438 2.1936 3.05438 2.49904V4.16506C3.05438 4.4705 3.30428 4.7204 3.60972 4.7204H5.27574V5.27574H1.38835V2.77671H0.833012V5.27574C0.833012 5.58118 1.08014 5.83108 1.38835 5.83108H5.27574C5.58118 5.83108 5.83108 5.58118 5.83108 5.27574V4.64265C5.99491 4.54547 6.10875 4.37054 6.10875 4.16506V2.49904C6.10875 2.29356 5.99491 2.11863 5.83108 2.02144V1.38835C5.83108 1.08292 5.58118 0.833012 5.27574 0.833012H2.77671ZM3.60972 2.49904H5.55341V4.16506H3.60972V2.49904ZM4.44273 2.91554C4.33227 2.91554 4.22633 2.95942 4.14822 3.03753C4.07011 3.11564 4.02622 3.22158 4.02622 3.33205C4.02622 3.44251 4.07011 3.54845 4.14822 3.62656C4.22633 3.70467 4.33227 3.74855 4.44273 3.74855C4.55319 3.74855 4.65913 3.70467 4.73724 3.62656C4.81535 3.54845 4.85924 3.44251 4.85924 3.33205C4.85924 3.22158 4.81535 3.11564 4.73724 3.03753C4.65913 2.95942 4.55319 2.91554 4.44273 2.91554Z" fill="black"/>
</g>
<defs>
<clipPath id="clip0_201_26375">
<rect width="6.6641" height="6.6641" fill="white"/>
</clipPath>
</defs>
</svg>
