<!-- Generated by IcoMoon.io -->
<svg version="1.1" xmlns="http://www.w3.org/2000/svg" width="32" height="32" viewBox="0 0 32 32">
<path d="M14.889 5.999l-11.122 20.020c-0.358 0.644-0.126 1.455 0.518 1.813 0.198 0.11 0.421 0.168 0.648 0.168h23.357c0.736 0 1.333-0.597 1.333-1.333 0-0.245-0.068-0.486-0.196-0.695l-12.234-20.020c-0.384-0.628-1.205-0.826-1.833-0.442-0.196 0.12-0.358 0.289-0.47 0.49zM16 12c0.736 0 1.333 0.597 1.333 1.333v6.667c0 0.736-0.597 1.333-1.333 1.333s-1.333-0.597-1.333-1.333v-6.667c0-0.736 0.597-1.333 1.333-1.333zM16 22.667c0.736 0 1.333 0.597 1.333 1.333s-0.597 1.333-1.333 1.333c-0.736 0-1.333-0.597-1.333-1.333s0.597-1.333 1.333-1.333z"></path>
</svg>
