<!-- Generated by IcoMoon.io -->
<svg version="1.1" xmlns="http://www.w3.org/2000/svg" width="32" height="32" viewBox="0 0 32 32">
<path d="M9.308 28.667h0.849c0.301 0 0.564-0.201 0.643-0.491l1.702-6.242c0.092-0.337 0.428-0.546 0.77-0.479 1.873 0.364 3.226 0.546 4.060 0.546 0.862 0 2.668-0.195 5.418-0.584v0c0.333-0.047 0.648 0.161 0.736 0.485l1.711 6.274c0.079 0.29 0.343 0.491 0.643 0.491h0.875c0.348 0 0.637-0.267 0.665-0.613l0.824-10.295c0.235-2.936-1.955-5.507-4.891-5.742-0.142-0.011-0.283-0.017-0.425-0.017h-5.556c-1.299-2.709-2.41-4.487-3.333-5.333-0.423-0.388-2.852-1.41-7.288-3.068l0-0c-0.207-0.077-0.438 0.028-0.515 0.235-0.028 0.076-0.033 0.159-0.013 0.237l0.388 1.553c0.058 0.232-0.013 0.478-0.186 0.643-0.872 0.834-1.445 1.412-1.72 1.733-0.287 0.334-0.699 1.343-1.236 3.027l0 0c-0.062 0.193-0.032 0.404 0.080 0.573l0.803 1.205c0.197 0.296 0.593 0.385 0.898 0.202l1.122-0.673c0.545-0.327 1.251-0.15 1.578 0.395 0.1 0.166 0.156 0.354 0.163 0.548l0.567 14.75c0.014 0.358 0.308 0.641 0.666 0.641z"></path>
</svg>
