<!-- Generated by IcoMoon.io -->
<svg version="1.1" xmlns="http://www.w3.org/2000/svg" width="32" height="32" viewBox="0 0 32 32">
<path d="M26 8.4h-6c-0.221 0-0.4-0.179-0.4-0.4v0-6c0-0.221 0.179-0.4 0.4-0.4s0.4 0.179 0.4 0.4v0 5.6h5.6c0.221 0 0.4 0.179 0.4 0.4s-0.179 0.4-0.4 0.4v0zM26 12.386c-0.221 0-0.4-0.179-0.4-0.4v0-3.821l-5.766-5.766h-11.834c-0.884 0-1.6 0.716-1.6 1.6v0 7.854c0 0.221-0.179 0.4-0.4 0.4s-0.4-0.179-0.4-0.4v0-7.854c0-1.325 1.075-2.4 2.4-2.4v0h12c0 0 0 0 0.001 0 0.11 0 0.21 0.045 0.282 0.117v0l6 6c0.072 0.072 0.117 0.172 0.117 0.282 0 0 0 0 0 0.001v-0 3.986c0 0.221-0.179 0.4-0.4 0.4v0zM24 30.4h-16c-1.325 0-2.4-1.075-2.4-2.4v0-6c0-0.221 0.179-0.4 0.4-0.4s0.4 0.179 0.4 0.4v0 6c0 0.884 0.716 1.6 1.6 1.6v0h16c0.884 0 1.6-0.716 1.6-1.6v0-6c0-0.221 0.179-0.4 0.4-0.4s0.4 0.179 0.4 0.4v0 6c0 1.325-1.075 2.4-2.4 2.4v0zM22 22.4h-12c-0.221 0-0.4-0.179-0.4-0.4s0.179-0.4 0.4-0.4v0h12c0.221 0 0.4 0.179 0.4 0.4s-0.179 0.4-0.4 0.4v0zM16 26.4h-6c-0.221 0-0.4-0.179-0.4-0.4s0.179-0.4 0.4-0.4v0h6c0.221 0 0.4 0.179 0.4 0.4s-0.179 0.4-0.4 0.4v0zM26 22.4h-20c-1.325 0-2.4-1.075-2.4-2.4v0-6.146c0-1.325 1.075-2.4 2.4-2.4v0h0.016l20 0.133c1.317 0.013 2.381 1.081 2.385 2.4v6.014c0 1.325-1.075 2.4-2.4 2.4-0 0-0.001 0-0.001 0h0zM6 12.254c-0.884 0-1.6 0.716-1.6 1.6v0 6.146c0 0.884 0.716 1.6 1.6 1.6v0h20c0.884 0 1.6-0.716 1.6-1.6v0-6.014c-0.003-0.879-0.712-1.592-1.59-1.6l-20.001-0.133zM14.374 14.614l-1.141 4.266h-0.806l-0.85-3.138-0.772 3.138h-0.79l-1.166-4.266h0.816l0.825 3.11 0.769-3.11h0.778l0.85 3.11 0.81-3.11zM15.926 18.946q-0.7 0-1.069-0.503c-0.23-0.311-0.369-0.702-0.369-1.125 0-0.010 0-0.019 0-0.029l-0 0.001c-0.001-0.017-0.001-0.037-0.001-0.058 0-0.424 0.155-0.812 0.411-1.11l-0.002 0.002c0.251-0.287 0.617-0.467 1.025-0.467 0.018 0 0.036 0 0.054 0.001l-0.003-0c0.011-0 0.023-0 0.035-0 0.399 0 0.758 0.175 1.003 0.452l0.001 0.001q0.408 0.453 0.408 1.178 0 0.747-0.423 1.2c-0.257 0.281-0.626 0.456-1.036 0.456-0.013 0-0.025-0-0.038-0l0.002 0zM15.951 18.358q0.72 0 0.72-1.072 0-0.484-0.172-0.764c-0.103-0.169-0.286-0.281-0.495-0.281-0.012 0-0.023 0-0.034 0.001l0.002-0c-0.010-0.001-0.023-0.001-0.035-0.001-0.216 0-0.406 0.115-0.511 0.287l-0.002 0.003q-0.178 0.289-0.178 0.767 0 0.516 0.189 0.787c0.108 0.165 0.292 0.273 0.501 0.273 0.005 0 0.011-0 0.016-0l-0.001 0zM18.789 18.88h-0.709v-3.156h0.64v0.756q0.138-0.441 0.378-0.64c0.13-0.121 0.302-0.197 0.492-0.203l0.001-0h0.094v0.763q-0.544 0-0.72 0.347c-0.107 0.194-0.172 0.425-0.177 0.67l-0 0.002zM22.792 18.88h-0.666v-0.64q-0.275 0.703-0.931 0.703c-0.011 0-0.024 0.001-0.037 0.001-0.361 0-0.677-0.192-0.851-0.48l-0.003-0.004q-0.31-0.484-0.31-1.2c-0-0.015-0.001-0.033-0.001-0.051 0-0.413 0.119-0.798 0.326-1.123l-0.005 0.009c0.183-0.3 0.509-0.497 0.881-0.497 0.012 0 0.025 0 0.037 0.001l-0.002-0q0.61 0 0.847 0.56v-1.542h0.713zM22.080 17.018q0-0.384-0.183-0.598c-0.11-0.132-0.274-0.215-0.457-0.215-0.006 0-0.012 0-0.018 0l0.001-0c-0.003-0-0.007-0-0.011-0-0.204 0-0.383 0.109-0.481 0.273l-0.001 0.003q-0.178 0.275-0.178 0.822 0 1.056 0.662 1.056c0.187-0.003 0.354-0.090 0.463-0.225l0.001-0.001c0.126-0.146 0.203-0.338 0.203-0.547 0-0.011-0-0.022-0.001-0.034l0 0.002z"></path>
</svg>
