<!-- Generated by IcoMoon.io -->
<svg version="1.1" xmlns="http://www.w3.org/2000/svg" width="32" height="32" viewBox="0 0 32 32">
<path d="M28.998 9.465l-11.799 12.287c-0.367 0.382-0.871 0.603-1.401 0.614l-4.964 0.104 0.105-4.985c0.011-0.518 0.222-1.011 0.589-1.376l12.067-11.998c0.782-0.777 2.045-0.775 2.824 0.004l2.55 2.55c0.77 0.77 0.782 2.014 0.028 2.799zM17.2 2.667c0.736 0 1.333 0.597 1.333 1.333s-0.597 1.333-1.333 1.333h-9.2c-1.473 0-2.667 1.194-2.667 2.667v16c0 1.473 1.194 2.667 2.667 2.667h16c1.473 0 2.667-1.194 2.667-2.667v-6.667c0-0.736 0.597-1.333 1.333-1.333s1.333 0.597 1.333 1.333v6.667c0 2.946-2.388 5.333-5.333 5.333h-16c-2.946 0-5.333-2.388-5.333-5.333v-16c0-2.946 2.388-5.333 5.333-5.333h9.2z"></path>
</svg>
